<svg width="48" height="45" viewBox="0 0 48 45" fill="none" xmlns="http://www.w3.org/2000/svg">
<path d="M13.3857 2.5H13.3984C15.0513 2.4918 16.6861 2.86214 18.1816 3.58496C19.6774 4.30788 20.9968 5.36592 22.04 6.68262L24 9.15625L25.96 6.68262C27.0034 5.36565 28.3233 4.30789 29.8193 3.58496C31.3153 2.8621 32.9503 2.4915 34.6035 2.5H34.6162C40.6177 2.5 45.5 7.24971 45.5 13.126C45.4998 21.9008 40.1121 29.2458 34.6221 34.4453C31.5537 37.3307 28.1948 39.8789 24.6016 42.0479C24.4026 42.1673 24.2003 42.282 23.999 42.3975C23.7969 42.2821 23.5944 42.1673 23.3945 42.0479H23.3936C20.0267 40.015 16.8662 37.6485 13.957 34.9844L13.3779 34.4473C7.88732 29.242 2.50019 21.8977 2.5 13.126C2.5 7.25004 7.38152 2.50006 13.3857 2.5Z" stroke="#5D91FE" stroke-width="5"/>
</svg>
