<svg width="36" height="49" viewBox="0 0 36 49" fill="none" xmlns="http://www.w3.org/2000/svg">
<path d="M8.4 14.8571H6.8C5.52696 14.8571 4.30606 15.3651 3.40589 16.2693C2.50571 17.1735 2 18.3998 2 19.6786V35.75C2 37.0287 2.50571 38.2551 3.40589 39.1593C4.30606 40.0635 5.52696 40.5714 6.8 40.5714H22.8C24.073 40.5714 25.2939 40.0635 26.1941 39.1593C27.0943 38.2551 27.6 37.0287 27.6 35.75V19.6786C27.6 18.3998 27.0943 17.1735 26.1941 16.2693C25.2939 15.3651 24.073 14.8571 22.8 14.8571H21.2M8.4 22.8929L14.8 29.3214M14.8 29.3214L21.2 22.8929M14.8 29.3214V2M27.6 21.2857H29.2C30.473 21.2857 31.6939 21.7937 32.5941 22.6979C33.4943 23.6021 34 24.8284 34 26.1071V42.1786C34 43.4573 33.4943 44.6836 32.5941 45.5878C31.6939 46.492 30.473 47 29.2 47H13.2C11.927 47 10.7061 46.492 9.80589 45.5878C8.90571 44.6836 8.4 43.4573 8.4 42.1786V40.5714" stroke="#5D91FE" stroke-width="3.5" stroke-linecap="round" stroke-linejoin="round"/>
</svg>
