<svg width="39" height="36" viewBox="0 0 39 36" fill="none" xmlns="http://www.w3.org/2000/svg">
<path d="M27.31 12.8576H37L30.8254 6.68556C28.8374 4.69971 26.3612 3.27164 23.6456 2.5449C20.93 1.81816 18.0708 1.81837 15.3553 2.54551C12.6398 3.27265 10.1638 4.7011 8.17619 6.68725C6.18858 8.67339 4.7594 11.1472 4.03233 13.8601M2.00194 32.8222V23.1424M2.00194 23.1424H11.6919M2.00194 23.1424L8.17464 29.3144C10.1626 31.3003 12.6388 32.7284 15.3544 33.4551C18.07 34.1818 20.9292 34.1816 23.6447 33.4545C26.3602 32.7273 28.8362 31.2989 30.8238 29.3128C32.8114 27.3266 34.2406 24.8528 34.9677 22.1399M37 3.1778V12.8537" stroke="#5D91FE" stroke-width="3.5" stroke-linecap="round" stroke-linejoin="round"/>
</svg>
