<svg width="327" height="110" viewBox="0 0 327 110" fill="none" xmlns="http://www.w3.org/2000/svg">
<path d="M53.7974 24.7669L33.2057 49.5337C30.3289 52.9935 26.0532 54.9947 21.5453 54.9947H21.54C8.70782 54.9947 1.68731 40.0809 9.87967 30.2279L30.4767 5.46103C33.3535 2.00115 37.6292 0 42.1371 0H42.1423C54.9693 0 61.9951 14.9138 53.8027 24.7669H53.7974ZM35.7764 54.9947C31.2685 54.9947 26.9928 56.9958 24.116 60.461L3.51898 85.2331C-4.67338 95.0862 2.35242 110 15.1794 110C19.6873 110 23.9629 107.999 26.8397 104.534L47.4368 79.7616C55.6291 69.9085 48.6033 55 35.7764 55V54.9947ZM87.0842 0H87.0789C82.571 0 78.2953 2.00115 75.4185 5.46103L54.8268 30.2279C46.6344 40.0809 53.6549 54.9947 66.4871 54.9947H66.4924C71.0003 54.9947 75.276 52.9935 78.1528 49.5337L98.7498 24.7669C106.942 14.9138 99.9217 0 87.0894 0H87.0842ZM80.7235 54.9947C76.2156 54.9947 71.9399 56.9958 69.0631 60.461L48.4661 85.2331C40.2737 95.0862 47.2995 110 60.1265 110C64.6344 110 68.91 107.999 71.7868 104.534L92.3839 79.7616C100.576 69.9085 93.5504 55 80.7235 55V54.9947ZM132.031 0H132.026C127.518 0 123.242 2.00115 120.366 5.46103L99.7739 30.2279C91.5815 40.0809 98.602 54.9947 111.434 54.9947H111.44C115.947 54.9947 120.223 52.9935 123.1 49.5337L143.692 24.7669C151.884 14.9138 144.863 0 132.031 0ZM125.671 54.9947C121.163 54.9947 116.887 56.9958 114.01 60.461L93.4132 85.2331C85.2208 95.0862 92.2466 110 105.074 110C109.581 110 113.857 107.999 116.734 104.534L137.331 79.7616C145.523 69.9085 138.498 55 125.671 55V54.9947ZM176.978 0H176.973C172.465 0 168.19 2.00115 165.313 5.46103L144.721 30.2279C136.529 40.0809 143.549 54.9947 156.381 54.9947H156.387C160.895 54.9947 165.17 52.9935 168.047 49.5337L188.639 24.7669C196.831 14.9138 189.811 0 176.978 0ZM170.618 54.9947C166.11 54.9947 161.834 56.9958 158.957 60.461L138.36 85.2331C130.168 95.0862 137.194 110 150.021 110C154.529 110 158.804 107.999 161.681 104.534L182.278 79.7616C190.47 69.9085 183.445 55 170.618 55V54.9947ZM221.925 0C217.418 0 213.142 2.00115 210.265 5.46103L189.673 30.2279C181.481 40.0809 188.502 54.9947 201.334 54.9947H201.339C205.847 54.9947 210.123 52.9935 212.999 49.5337L233.591 24.7669C241.783 14.9138 234.763 0 221.931 0H221.925ZM215.565 54.9947C211.057 54.9947 206.781 56.9958 203.904 60.461L183.307 85.2331C175.115 95.0862 182.136 110 194.968 110C199.476 110 203.751 107.999 206.628 104.534L227.225 79.7616C235.418 69.9085 228.392 55 215.565 55V54.9947ZM266.873 0H266.867C262.359 0 258.084 2.00115 255.207 5.46103L234.615 30.2279C226.423 40.0809 233.443 54.9947 246.276 54.9947H246.281C250.789 54.9947 255.064 52.9935 257.941 49.5337L278.533 24.7669C286.725 14.9138 279.705 0 266.873 0ZM260.512 54.9947C256.004 54.9947 251.728 56.9958 248.851 60.461L228.254 85.2331C220.062 95.0862 227.088 110 239.915 110C244.423 110 248.698 107.999 251.575 104.534L272.172 79.7616C280.365 69.9085 273.344 55 260.512 55V54.9947ZM311.82 0H311.814C307.306 0 303.031 2.00115 300.154 5.46103L279.562 30.2279C271.37 40.0809 278.39 54.9947 291.223 54.9947H291.228C295.736 54.9947 300.011 52.9935 302.888 49.5337L323.48 24.7669C331.672 14.9138 324.652 0 311.82 0ZM305.459 54.9947C300.951 54.9947 296.675 56.9958 293.799 60.461L273.202 85.2331C265.009 95.0862 272.035 110 284.862 110C289.37 110 293.646 107.999 296.522 104.534L317.119 79.7616C325.312 69.9085 318.286 55 305.459 55V54.9947Z" fill="#5B5B5B" fill-opacity="0.03"/>
</svg>
