<svg width="24" height="13" viewBox="0 0 24 13" fill="none" xmlns="http://www.w3.org/2000/svg">
<path fill-rule="evenodd" clip-rule="evenodd" d="M3.52582 0H0.900225C0.150045 0 0 0.322127 0 0.677232C0 1.31156 0.890145 4.45749 4.14465 8.61825C6.31432 11.4597 9.37117 13 12.1528 13C13.8218 13 14.0283 12.6579 14.0283 12.0687V9.92105C14.0283 9.23684 14.1864 9.10027 14.7148 9.10027C15.1043 9.10027 15.7719 9.27789 17.3296 10.6479C19.1099 12.2716 19.4034 13 20.4047 13H23.0303C23.7805 13 24.1556 12.6579 23.9392 11.9828C23.7025 11.3099 22.8525 10.3336 21.7246 9.17643C21.1126 8.51678 20.1947 7.80643 19.9165 7.45119C19.5271 6.99455 19.6384 6.79154 19.9165 6.38567C19.9165 6.38567 23.1154 2.27562 23.4493 0.880305C23.6161 0.372826 23.4493 0 22.6552 0H20.0296C19.3621 0 19.0543 0.322127 18.8873 0.677232C18.8873 0.677232 17.5522 3.64561 15.6607 5.57378C15.0487 6.13189 14.7705 6.30952 14.4367 6.30952C14.2698 6.30952 14.0282 6.1319 14.0282 5.62455V0.880305C14.0282 0.271358 13.8345 0 13.2781 0H9.15209C8.73495 0 8.48399 0.282579 8.48399 0.550447C8.48399 1.12765 9.42974 1.26079 9.52724 2.88449V6.41105C9.52724 7.18421 9.37409 7.32441 9.04034 7.32441C8.15024 7.32441 5.98507 4.34275 4.70092 0.931006C4.4493 0.267869 4.19685 0 3.52582 0Z" fill="#2787F5"/>
</svg>
