<svg width="34" height="38" viewBox="0 0 34 38" fill="none" xmlns="http://www.w3.org/2000/svg">
<path fill-rule="evenodd" clip-rule="evenodd" d="M14.668 1.00086C15.3465 0.993831 15.7635 1.02899 16.2583 1.13448C16.6258 1.21184 17.1701 1.35249 17.4598 1.45094C17.7496 1.54939 18.2444 1.75334 18.5554 1.91508C18.8664 2.0698 19.3258 2.35109 19.5802 2.52691C19.8347 2.70975 20.2588 3.06137 20.5274 3.31454C20.7959 3.56771 21.2129 4.03888 21.4603 4.36941C21.7077 4.69993 22.054 5.24847 22.2237 5.60009C22.4004 5.95171 22.6195 6.47211 22.7114 6.76044C22.8103 7.04877 22.9375 7.59027 23.0011 7.95596C23.0648 8.32165 23.1142 8.9405 23.1142 9.32729C23.1142 9.71407 23.0648 10.3189 23.0082 10.6635C22.9446 11.008 22.8456 11.4722 22.782 11.6832C22.7255 11.8941 22.5559 12.3372 22.4145 12.6677C22.2731 12.9982 21.9692 13.5538 21.743 13.8984C21.5027 14.2711 21.0504 14.8056 20.6475 15.2064C20.2729 15.5791 19.7145 16.0503 19.4035 16.2543C19.0925 16.4652 18.5837 16.7536 18.2727 16.8942C17.9617 17.0419 17.4386 17.2388 17.1064 17.3302C16.7743 17.4287 16.2583 17.5412 15.9544 17.5834C15.6575 17.6256 15.0991 17.6607 14.7245 17.6607C14.3429 17.6607 13.735 17.6115 13.3746 17.5553C13.0212 17.499 12.4274 17.3513 12.074 17.2318C11.7136 17.1122 11.2612 16.9294 11.0633 16.838C10.8725 16.7395 10.4413 16.4863 10.1092 16.2754C9.76989 16.0503 9.21152 15.5932 8.82985 15.2064C8.43404 14.8126 7.97462 14.2711 7.73431 13.8984C7.50813 13.5538 7.20421 12.9912 7.05578 12.6466C6.90736 12.3091 6.72359 11.7886 6.64584 11.4933C6.56809 11.1909 6.46914 10.6775 6.42673 10.347C6.37726 10.0024 6.36312 9.39058 6.38433 8.90534C6.4126 8.36384 6.49035 7.82234 6.59637 7.39336C6.69532 7.02768 6.87202 6.47211 6.99924 6.16269C7.1194 5.85326 7.34557 5.39615 7.494 5.14298C7.63536 4.88981 7.94635 4.44677 8.17959 4.15844C8.41284 3.8701 8.7733 3.46926 8.98534 3.27235C9.19738 3.07544 9.57198 2.76601 9.82643 2.58317C10.0809 2.39329 10.5544 2.11199 10.8866 1.94321C11.2188 1.78147 11.7277 1.55643 12.0175 1.45797C12.3073 1.35249 12.8162 1.21184 13.1484 1.14151C13.5442 1.05712 14.0602 1.0079 14.668 1.00086V1.00086ZM26.0828 22.689C26.6199 22.7101 27.1218 22.7804 27.5671 22.8929C27.9346 22.9843 28.4788 23.1672 28.7686 23.3008C29.0584 23.4344 29.5461 23.7087 29.85 23.9056C30.1469 24.1095 30.6063 24.4893 30.8749 24.7495C31.1364 25.0097 31.5251 25.4808 31.7372 25.7832C31.9492 26.0927 32.2319 26.5849 32.3591 26.8733C32.4934 27.1616 32.6843 27.7031 32.7762 28.0688C32.8751 28.4415 32.967 29.0604 32.9882 29.4753C33.0165 30.0097 32.9953 30.4176 32.9104 30.9521C32.8398 31.36 32.6843 31.9577 32.5641 32.2883C32.4369 32.6188 32.2036 33.1251 32.034 33.4134C31.8715 33.7018 31.5181 34.1941 31.2565 34.5035C30.995 34.8129 30.5215 35.256 30.2175 35.488C29.9066 35.7201 29.3977 36.0436 29.0867 36.1983C28.7757 36.36 28.3163 36.557 28.0618 36.6343C27.8074 36.7117 27.3833 36.8242 27.1076 36.8875C26.8037 36.9578 26.2948 37 25.7789 37C25.1003 37 24.8105 36.9648 24.1603 36.7961C23.7221 36.6835 23.1213 36.4866 22.8315 36.353C22.5417 36.2194 22.047 35.9451 21.743 35.7342C21.4321 35.5232 20.9726 35.1434 20.7182 34.8903C20.4637 34.6371 20.0679 34.1659 19.8488 33.8354C19.6297 33.5049 19.347 33.0196 19.2268 32.7454C19.0996 32.4781 18.93 31.9718 18.8381 31.6202C18.7462 31.2756 18.6543 30.6849 18.6261 30.3192C18.5907 29.9113 18.6049 29.4049 18.6543 29.0182C18.7038 28.6736 18.7886 28.1954 18.8522 27.9633C18.9159 27.7312 19.0643 27.3022 19.1844 27.0139C19.3117 26.7256 19.5873 26.2192 19.8064 25.8887C20.0467 25.5301 20.4637 25.0378 20.8666 24.658C21.2341 24.3064 21.7854 23.8774 22.0964 23.6946C22.4004 23.5047 22.9729 23.2445 23.3616 23.1039C23.7503 22.9703 24.337 22.8085 24.6692 22.7593C25.0509 22.696 25.5668 22.6679 26.0828 22.689V22.689ZM24.8883 25.7692C24.7964 25.8536 24.6621 26.0505 24.5914 26.2052C24.4854 26.4373 24.4571 26.6623 24.4571 27.4921V28.4907C22.6336 28.4907 22.3862 28.5189 22.1601 28.6243C22.0046 28.6876 21.7925 28.8494 21.6865 28.9689C21.5734 29.0955 21.4603 29.3135 21.4179 29.4612C21.3826 29.6019 21.3472 29.7706 21.3472 29.8269C21.3472 29.8832 21.3826 30.0519 21.4179 30.1996C21.4603 30.3403 21.5734 30.5583 21.6865 30.6849C21.7925 30.8044 22.0046 30.9662 22.1601 31.0294C22.3862 31.1349 22.6336 31.1631 23.4535 31.1631H24.4571C24.4571 32.9915 24.4854 33.2165 24.5914 33.4486C24.6621 33.6033 24.7964 33.8002 24.8883 33.8846C24.9802 33.969 25.1781 34.0886 25.3265 34.1448C25.4679 34.2081 25.687 34.2573 25.8001 34.2573C25.9131 34.2573 26.1323 34.2081 26.2807 34.1448C26.422 34.0886 26.6199 33.969 26.7118 33.8846C26.8037 33.8002 26.938 33.6033 27.0087 33.4486C27.1147 33.2165 27.143 32.9915 27.143 32.1687V31.1631C28.9806 31.1631 29.2068 31.1349 29.4401 31.0294C29.5956 30.9591 29.7935 30.8255 29.8783 30.7341C29.9631 30.6427 30.0833 30.4458 30.1398 30.3051C30.2034 30.1574 30.2529 29.9324 30.2529 29.8128C30.2529 29.6862 30.1893 29.4542 30.1186 29.2995C30.0479 29.1447 29.9136 28.9478 29.8217 28.8634C29.7299 28.7791 29.532 28.6595 29.3906 28.6032C29.1927 28.5189 28.8676 28.4907 28.1325 28.4907H27.143C27.143 26.6764 27.1147 26.4302 27.0087 26.2052C26.9451 26.0505 26.7825 25.8395 26.6624 25.734C26.5351 25.6215 26.316 25.509 26.1747 25.4668C26.0262 25.4316 25.8425 25.3965 25.7647 25.3965C25.687 25.4035 25.4961 25.4457 25.3406 25.5019C25.1851 25.5582 24.9802 25.6777 24.8883 25.7692V25.7692ZM16.1523 19.7353C18.9159 19.7494 21.7077 19.7986 22.3721 19.8338C23.0365 19.876 23.8281 19.9393 24.1391 19.9815C24.4501 20.0166 24.9236 20.1221 25.1993 20.2135C25.4749 20.305 25.8071 20.4386 26.1888 20.6425L25.4113 20.6988C24.9802 20.7269 24.3794 20.8043 24.0684 20.8675C23.7574 20.9238 23.2132 21.0715 22.8668 21.184C22.5205 21.3036 21.9268 21.5567 21.5593 21.7466C21.1917 21.9365 20.6192 22.2881 20.287 22.5413C19.9548 22.7874 19.4601 23.2234 19.1915 23.5047C18.9158 23.793 18.52 24.2642 18.3151 24.5526C18.1101 24.8409 17.7991 25.3543 17.6295 25.6988C17.4598 26.0364 17.2266 26.5849 17.1135 26.9295C17.0004 27.2671 16.852 27.7945 16.7813 28.1039C16.6965 28.5118 16.6612 28.99 16.6612 29.8269C16.6612 30.6567 16.6965 31.149 16.7813 31.5498C16.8449 31.8593 16.9863 32.3656 17.0852 32.675C17.1842 32.9845 17.4104 33.526 17.58 33.8706C17.7567 34.2222 18.0253 34.6863 18.1737 34.9114C18.3716 35.1927 18.4211 35.3263 18.3575 35.3544C18.3151 35.3825 17.269 35.4177 16.0463 35.4388C14.7457 35.4599 13.2049 35.4388 12.3356 35.3896C11.5157 35.3474 10.1516 35.2419 9.29633 35.1645C8.44111 35.0872 7.33143 34.9606 6.82254 34.8903C6.31365 34.8129 5.67046 34.6863 5.38774 34.609C5.11209 34.5316 4.66681 34.3628 4.40529 34.2292C4.13671 34.1026 3.73383 33.8495 3.50059 33.6736C3.26735 33.5049 2.90688 33.1743 2.69484 32.9493C2.4828 32.7172 2.17888 32.3305 2.00925 32.0773C1.84668 31.8241 1.60637 31.367 1.48622 31.0576C1.35899 30.7481 1.21057 30.291 1.15402 30.0379C1.07627 29.7144 1.03387 28.9689 1.01266 27.5413C0.984391 26.1911 1.0056 25.2558 1.05507 24.7635C1.10455 24.3275 1.2247 23.779 1.35193 23.4274C1.46501 23.0968 1.66292 22.6608 1.78307 22.4569C1.9103 22.2459 2.19302 21.8873 2.40505 21.6552C2.61709 21.4161 2.98463 21.0926 3.21787 20.9308C3.45112 20.7621 3.81158 20.5511 4.01655 20.4456C4.21446 20.3471 4.61733 20.1995 4.90005 20.1221C5.18984 20.0448 5.8613 19.9463 6.46914 19.9041C7.05578 19.8619 8.34216 19.8056 9.33167 19.7705C10.3212 19.7424 13.3887 19.7213 16.1523 19.7353V19.7353Z" stroke="currentColor" stroke-width="1.5"/>
</svg>
