<svg width="28" height="29" viewBox="0 0 28 29" fill="none" xmlns="http://www.w3.org/2000/svg">
<circle cx="13.7836" cy="14.4999" r="13.0336" stroke="currentColor" stroke-width="1.5"/>
<path d="M6.09229 16.6581L7.52184 16.4218C7.62423 16.8471 7.84871 17.1661 8.19526 17.3787C8.54182 17.5914 8.9829 17.6977 9.51849 17.6977C10.062 17.6977 10.4873 17.6072 10.7945 17.426C11.1095 17.237 11.267 16.981 11.267 16.6581C11.267 16.3666 11.1765 16.1382 10.9953 15.9728C10.8141 15.8074 10.5109 15.6853 10.0856 15.6066L8.67966 15.3467C7.94716 15.2128 7.37219 14.9725 6.95474 14.626C6.54517 14.2794 6.34039 13.7478 6.34039 13.031C6.34039 12.2985 6.62394 11.7235 7.19103 11.3061C7.766 10.8887 8.52607 10.6799 9.47123 10.6799C10.4479 10.6799 11.1961 10.8847 11.716 11.2943C12.2358 11.696 12.5587 12.2394 12.6848 12.9247L11.2552 13.1492C11.1843 12.8184 11.0071 12.5348 10.7236 12.2985C10.4479 12.0544 10.0226 11.9323 9.4476 11.9323C8.91201 11.9323 8.4985 12.0347 8.20708 12.2394C7.92353 12.4364 7.78176 12.6923 7.78176 13.0074C7.78176 13.2988 7.88415 13.5272 8.08893 13.6926C8.30159 13.8502 8.64815 13.9722 9.12861 14.0589L10.629 14.3542C11.3064 14.4803 11.8223 14.7205 12.1767 15.0749C12.5391 15.4294 12.7202 15.9334 12.7202 16.5872C12.7202 17.3512 12.4288 17.938 11.8459 18.3475C11.2631 18.7492 10.4715 18.9501 9.47123 18.9501C8.53395 18.9501 7.77388 18.765 7.19103 18.3948C6.60818 18.0246 6.24194 17.4457 6.09229 16.6581Z" fill="currentColor"/>
<path d="M14.2233 18.8319V10.7981H17.6613C18.4805 10.7981 19.1303 10.9753 19.6107 11.3297C20.0912 11.6763 20.3314 12.2316 20.3314 12.9956C20.3314 13.3579 20.2448 13.7005 20.0715 14.0234C19.8982 14.3464 19.5871 14.5866 19.1382 14.7441C19.6501 14.8701 20.0124 15.0946 20.2251 15.4175C20.4377 15.7405 20.5441 16.1382 20.5441 16.6108C20.5441 17.3669 20.2881 17.9262 19.7761 18.2885C19.2721 18.6508 18.575 18.8319 17.685 18.8319H14.2233ZM17.5314 12.0268H15.6529V14.177H17.4605C17.9803 14.177 18.3466 14.0864 18.5592 13.9053C18.7798 13.7241 18.8901 13.4485 18.8901 13.0783C18.8901 12.7002 18.7877 12.4324 18.5829 12.2749C18.3781 12.1095 18.0276 12.0268 17.5314 12.0268ZM17.5668 15.3703H15.6529V17.6032H17.6141C18.1339 17.6032 18.508 17.5166 18.7365 17.3433C18.9728 17.1621 19.0909 16.8786 19.0909 16.4927C19.0909 16.1067 18.9728 15.8232 18.7365 15.642C18.5002 15.4609 18.1103 15.3703 17.5668 15.3703Z" fill="currentColor"/>
</svg>
