<svg width="25" height="26" viewBox="0 0 25 26" fill="none" xmlns="http://www.w3.org/2000/svg">
<path d="M10.774 4.60417C10.8678 4.03958 11.3574 3.625 11.9303 3.625H13.0688C13.6417 3.625 14.1313 4.03958 14.2251 4.60417L14.3803 5.53542C14.4532 5.97708 14.7803 6.33125 15.1928 6.50417C15.6074 6.675 16.0834 6.65208 16.448 6.39167L17.2157 5.84271C17.4415 5.68131 17.7172 5.60528 17.9938 5.62817C18.2704 5.65106 18.5299 5.77138 18.7261 5.96771L19.5313 6.77396C19.9376 7.17917 19.9896 7.81771 19.6563 8.28437L19.1074 9.05208C18.8469 9.41667 18.824 9.89167 18.9959 10.3062C19.1678 10.7198 19.5219 11.0458 19.9646 11.1187L20.8949 11.275C21.4605 11.3687 21.874 11.8573 21.874 12.4302V13.5698C21.874 14.1427 21.4605 14.6323 20.8949 14.726L19.9636 14.8812C19.5219 14.9542 19.1678 15.2802 18.9959 15.6938C18.824 16.1083 18.8469 16.5833 19.1074 16.9479L19.6563 17.7167C19.9896 18.1823 19.9365 18.8208 19.5313 19.2271L18.7251 20.0323C18.5289 20.2283 18.2696 20.3485 17.9933 20.3714C17.7169 20.3943 17.4414 20.3184 17.2157 20.1573L16.4469 19.6083C16.0824 19.3479 15.6074 19.325 15.1938 19.4969C14.7792 19.6687 14.4542 20.0229 14.3803 20.4646L14.2251 21.3958C14.1313 21.9604 13.6417 22.375 13.0688 22.375H11.9292C11.3563 22.375 10.8678 21.9604 10.773 21.3958L10.6188 20.4646C10.5449 20.0229 10.2188 19.6687 9.80527 19.4958C9.39069 19.325 8.91569 19.3479 8.55111 19.6083L7.78236 20.1573C7.31673 20.4906 6.67819 20.4375 6.27194 20.0323L5.46673 19.226C5.27041 19.0299 5.15009 18.7704 5.1272 18.4938C5.10431 18.2172 5.18033 17.9414 5.34173 17.7156L5.89069 16.9479C6.15111 16.5833 6.17402 16.1083 6.00319 15.6938C5.83131 15.2802 5.47611 14.9542 5.03444 14.8812L4.10319 14.725C3.53861 14.6312 3.12402 14.1417 3.12402 13.5698V12.4302C3.12402 11.8573 3.53861 11.3677 4.10319 11.274L5.03444 11.1187C5.47611 11.0458 5.83131 10.7198 6.00319 10.3062C6.17506 9.89167 6.15215 9.41667 5.89069 9.05208L5.34277 8.28333C5.18137 8.05754 5.10535 7.7818 5.12824 7.5052C5.15113 7.2286 5.27145 6.9691 5.46777 6.77292L6.27298 5.96771C6.46917 5.77138 6.72866 5.65106 7.00526 5.62817C7.28186 5.60528 7.55761 5.68131 7.7834 5.84271L8.55111 6.39167C8.91569 6.65208 9.39173 6.675 9.80527 6.50312C10.2188 6.33125 10.5449 5.97708 10.6178 5.53542L10.774 4.60417Z" stroke="currentColor" stroke-width="1.5" stroke-linecap="round" stroke-linejoin="round"/>
<path d="M15.625 13C15.625 13.8288 15.2958 14.6237 14.7097 15.2097C14.1237 15.7958 13.3288 16.125 12.5 16.125C11.6712 16.125 10.8763 15.7958 10.2903 15.2097C9.70424 14.6237 9.375 13.8288 9.375 13C9.375 12.1712 9.70424 11.3763 10.2903 10.7903C10.8763 10.2042 11.6712 9.875 12.5 9.875C13.3288 9.875 14.1237 10.2042 14.7097 10.7903C15.2958 11.3763 15.625 12.1712 15.625 13Z" stroke="currentColor" stroke-width="1.5" stroke-linecap="round" stroke-linejoin="round"/>
</svg>
