<svg width="27" height="27" viewBox="0 0 27 27" fill="none" xmlns="http://www.w3.org/2000/svg">
<path d="M17.75 19.25V22.625C17.75 23.246 17.246 23.75 16.625 23.75H6.875C6.57663 23.75 6.29048 23.6315 6.0795 23.4205C5.86853 23.2095 5.75 22.9234 5.75 22.625V9.875C5.75 9.254 6.254 8.75 6.875 8.75H8.75C9.25257 8.74966 9.7543 8.79114 10.25 8.874M17.75 19.25H21.125C21.746 19.25 22.25 18.746 22.25 18.125V13.25C22.25 8.79 19.007 5.089 14.75 4.374C14.2543 4.29114 13.7526 4.24966 13.25 4.25H11.375C10.754 4.25 10.25 4.754 10.25 5.375V8.874M17.75 19.25H11.375C11.0766 19.25 10.7905 19.1315 10.5795 18.9205C10.3685 18.7095 10.25 18.4234 10.25 18.125V8.874M22.25 15.5V13.625C22.25 12.7299 21.8944 11.8715 21.2615 11.2385C20.6286 10.6056 19.7701 10.25 18.875 10.25H17.375C17.0766 10.25 16.7905 10.1315 16.5795 9.9205C16.3685 9.70952 16.25 9.42337 16.25 9.125V7.625C16.25 7.18179 16.1627 6.74292 15.9931 6.33345C15.8235 5.92397 15.5749 5.55191 15.2615 5.23852C14.9481 4.92512 14.576 4.67652 14.1666 4.50691C13.7571 4.3373 13.3182 4.25 12.875 4.25H11.75" stroke="currentColor" stroke-width="1.5" stroke-linecap="round" stroke-linejoin="round"/>
</svg>
