<svg width="26" height="27" viewBox="0 0 26 27" fill="none" xmlns="http://www.w3.org/2000/svg">
<path d="M10 11V8.2002C10 7.08009 10 6.51962 10.218 6.0918C10.4097 5.71547 10.7155 5.40973 11.0918 5.21799C11.5196 5 12.0801 5 13.2002 5H18.8002C19.9203 5 20.4801 5 20.9079 5.21799C21.2842 5.40973 21.5905 5.71547 21.7822 6.0918C22.0002 6.51962 22.0002 7.07967 22.0002 8.19978V13.7998C22.0002 14.9199 22.0002 15.48 21.7822 15.9078C21.5905 16.2841 21.2839 16.5905 20.9076 16.7822C20.4802 17 19.921 17 18.8031 17H16M10 11H7.2002C6.08009 11 5.51962 11 5.0918 11.218C4.71547 11.4097 4.40973 11.7155 4.21799 12.0918C4 12.5196 4 13.0801 4 14.2002V19.8002C4 20.9203 4 21.4801 4.21799 21.9079C4.40973 22.2842 4.71547 22.5905 5.0918 22.7822C5.5192 23 6.07899 23 7.19691 23H12.8036C13.9215 23 14.4805 23 14.9079 22.7822C15.2842 22.5905 15.5905 22.2839 15.7822 21.9076C16 21.4802 16 20.921 16 19.8031V17M10 11H12.8002C13.9203 11 14.4801 11 14.9079 11.218C15.2842 11.4097 15.5905 11.7155 15.7822 12.0918C16 12.5192 16 13.079 16 14.1969L16 17" stroke="currentColor" stroke-width="2" stroke-linecap="round" stroke-linejoin="round"/>
</svg>
