<svg width="24" height="25" viewBox="0 0 24 25" fill="none" xmlns="http://www.w3.org/2000/svg">
<path d="M6.6 7.14286H5.7C4.98392 7.14286 4.29716 7.42506 3.79081 7.92739C3.28446 8.42972 3 9.11103 3 9.82143V18.75C3 19.4604 3.28446 20.1417 3.79081 20.644C4.29716 21.1464 4.98392 21.4286 5.7 21.4286H14.7C15.4161 21.4286 16.1028 21.1464 16.6092 20.644C17.1155 20.1417 17.4 19.4604 17.4 18.75V9.82143C17.4 9.11103 17.1155 8.42972 16.6092 7.92739C16.1028 7.42506 15.4161 7.14286 14.7 7.14286H13.8M6.6 11.6071L10.2 15.1786M10.2 15.1786L13.8 11.6071M10.2 15.1786V0M17.4 10.7143H18.3C19.0161 10.7143 19.7028 10.9965 20.2092 11.4988C20.7155 12.0012 21 12.6825 21 13.3929V22.3214C21 23.0318 20.7155 23.7131 20.2092 24.2155C19.7028 24.7178 19.0161 25 18.3 25H9.3C8.58392 25 7.89716 24.7178 7.39081 24.2155C6.88446 23.7131 6.6 23.0318 6.6 22.3214V21.4286" stroke="currentColor" stroke-width="1.5" stroke-linecap="round" stroke-linejoin="round"/>
</svg>
