<svg width="22" height="20" viewBox="0 0 22 20" fill="none" xmlns="http://www.w3.org/2000/svg">
<path d="M6.13477 1H6.13965C6.92435 0.996215 7.69977 1.16656 8.40723 1.49805C9.11475 1.82965 9.73624 2.31414 10.2256 2.91309L11 3.86035L11.7744 2.91309C12.2639 2.31401 12.8851 1.82966 13.5928 1.49805C14.3005 1.16642 15.0763 0.996073 15.8613 1H15.8662C18.7232 1.00013 21 3.18658 21 5.83398C20.9998 9.76754 18.5085 13.0563 15.9795 15.3789C14.5661 16.6677 13.0187 17.8069 11.3623 18.7764C11.2423 18.8462 11.1208 18.9137 10.999 18.9805C10.8777 18.9142 10.7572 18.8466 10.6377 18.7773C8.98229 17.8084 7.4352 16.6707 6.02246 15.3828H6.02344C3.49309 13.0575 1.00018 9.76778 1 5.83398C1 3.18674 3.27662 1.00021 6.13477 1Z" stroke="currentColor" stroke-width="2"/>
</svg>
