<svg width="25" height="25" viewBox="0 0 25 25" fill="none" xmlns="http://www.w3.org/2000/svg">
<path fill-rule="evenodd" clip-rule="evenodd" d="M13.463 2.78608C13.4028 2.70532 13.3269 2.63753 13.2398 2.58676C13.1528 2.536 13.0564 2.50329 12.9564 2.49059C12.8565 2.4779 12.755 2.48548 12.658 2.51288C12.561 2.54028 12.4706 2.58694 12.392 2.65008C10.4756 4.18865 9.21145 6.39471 8.85304 8.82608C8.19621 8.34978 7.62049 7.77068 7.14804 7.11108C7.08387 7.02138 7.00071 6.94694 6.90448 6.89306C6.80825 6.83918 6.70132 6.80718 6.59131 6.79935C6.4813 6.79152 6.37092 6.80805 6.26802 6.84775C6.16513 6.88746 6.07226 6.94937 5.99604 7.02908C4.67536 8.41064 3.82878 10.1768 3.57894 12.0716C3.32911 13.9665 3.68898 15.8917 4.60643 17.5683C5.52388 19.245 6.95128 20.586 8.68184 21.3972C10.4124 22.2084 12.3563 22.4476 14.2319 22.0802C16.1075 21.7128 17.8174 20.7578 19.114 19.3536C20.4106 17.9494 21.2265 16.1689 21.4435 14.27C21.6605 12.3711 21.2674 10.4524 20.3211 8.79191C19.3748 7.13137 17.9244 5.81521 16.18 5.03408C15.1077 4.51265 14.176 3.74178 13.463 2.78608ZM16.25 14.7501C16.2497 15.2925 16.1316 15.8284 15.904 16.3208C15.6765 16.8132 15.3448 17.2503 14.9319 17.6021C14.519 17.9538 14.0347 18.2118 13.5124 18.3583C12.9901 18.5047 12.4422 18.5361 11.9066 18.4502C11.371 18.3644 10.8604 18.1634 10.4101 17.8611C9.95968 17.5588 9.58025 17.1624 9.29794 16.6992C9.01563 16.236 8.83717 15.7171 8.77486 15.1782C8.71255 14.6394 8.76788 14.0935 8.93704 13.5781C9.56504 14.0431 10.287 14.3881 11.07 14.5781C11.2823 13.209 11.9626 11.9559 12.995 11.0321C13.896 11.1521 14.7228 11.5952 15.3215 12.2791C15.9203 12.963 16.2502 13.8411 16.25 14.7501Z" fill="currentColor"/>
</svg>
