<svg width="19" height="21" viewBox="0 0 19 21" fill="none" xmlns="http://www.w3.org/2000/svg">
<path d="M5.56555 0.569938C4.55474 0.620138 3.86446 0.789939 3.26102 1.03954C2.63648 1.29574 2.10714 1.63954 1.58045 2.19594C1.05377 2.75235 0.729433 3.30995 0.48775 3.96835C0.253858 4.60495 0.0953964 5.33215 0.0507459 6.39676C0.00609547 7.46136 -0.00378463 7.80356 0.00115542 10.5192C0.00609547 13.2348 0.0174956 13.5752 0.0665161 14.642C0.114777 15.7058 0.275518 16.4322 0.512641 17.0676C0.756413 17.725 1.08265 18.282 1.61142 18.8366C2.1402 19.3912 2.66954 19.7318 3.29655 19.9866C3.90075 20.2324 4.59179 20.4 5.60298 20.4466C6.61417 20.4932 6.93965 20.504 9.51873 20.4988C12.0978 20.4936 12.4225 20.4816 13.4358 20.431C14.4491 20.3804 15.1356 20.21 15.7394 19.9616C16.3639 19.7044 16.8935 19.3616 17.42 18.8048C17.9465 18.248 18.2706 17.69 18.5121 17.0312C18.7462 16.3952 18.9052 15.6678 18.9491 14.6042C18.9934 13.5368 19.0038 13.196 18.9989 10.4808C18.9939 7.76556 18.9823 7.42516 18.9343 6.35876C18.8862 5.29235 18.7253 4.56815 18.4883 3.93235C18.2442 3.27495 17.9183 2.71835 17.3898 2.16334C16.8612 1.60834 16.3307 1.26734 15.705 1.01374C15.1004 0.767539 14.4098 0.599738 13.3986 0.553738C12.3874 0.507738 12.0619 0.495938 9.48187 0.501138C6.90184 0.506338 6.57883 0.517938 5.56555 0.569938ZM5.67651 18.6476C4.75025 18.6052 4.24732 18.4432 3.91215 18.3076C3.46831 18.1276 3.15215 17.91 2.81812 17.5618C2.4841 17.2136 2.2789 16.8796 2.10562 16.4134C1.97547 16.0606 1.81871 15.5318 1.77539 14.5568C1.72827 13.503 1.71839 13.1866 1.71288 10.5168C1.70737 7.84696 1.71706 7.53096 1.76095 6.47676C1.80047 5.50256 1.95533 4.97255 2.08396 4.61995C2.25496 4.15215 2.46092 3.81995 2.79247 3.46855C3.12403 3.11715 3.44038 2.90075 3.88365 2.71835C4.21844 2.58074 4.7208 2.41714 5.64668 2.37074C6.64856 2.32074 6.94877 2.31074 9.48472 2.30494C12.0207 2.29914 12.3216 2.30914 13.3239 2.35554C14.2494 2.39794 14.7531 2.55934 15.0877 2.69555C15.5317 2.87555 15.8477 3.09175 16.1815 3.44135C16.5154 3.79095 16.7211 4.12275 16.8944 4.59035C17.0253 4.94175 17.1807 5.47036 17.2244 6.44556C17.2721 7.50016 17.283 7.81636 17.2875 10.4856C17.2921 13.1548 17.2832 13.4718 17.2393 14.5256C17.1988 15.5006 17.0453 16.0302 16.9163 16.3834C16.7453 16.8504 16.5391 17.1834 16.2074 17.5346C15.8756 17.8858 15.5597 18.1022 15.1162 18.2846C14.7818 18.422 14.2789 18.586 13.3537 18.6324C12.3519 18.682 12.0516 18.6924 9.51474 18.6982C6.97784 18.704 6.67858 18.6932 5.6767 18.6476M13.4212 5.15535C13.4216 5.39271 13.4888 5.62462 13.6144 5.82174C13.74 6.01887 13.9183 6.17237 14.1268 6.26281C14.3352 6.35326 14.5645 6.3766 14.7856 6.32988C15.0067 6.28315 15.2096 6.16847 15.3688 6.00033C15.5279 5.83218 15.6361 5.61813 15.6797 5.38525C15.7233 5.15237 15.7003 4.91112 15.6136 4.69201C15.5269 4.47289 15.3804 4.28576 15.1927 4.15428C15.005 4.0228 14.7844 3.95288 14.5589 3.95335C14.2566 3.95399 13.967 4.08097 13.7536 4.30638C13.5402 4.53179 13.4207 4.83716 13.4212 5.15535ZM4.62219 10.51C4.62751 13.346 6.81558 15.6398 9.50923 15.6344C12.2029 15.629 14.3835 13.326 14.3784 10.49C14.3733 7.65396 12.1846 5.35955 9.49061 5.36515C6.79658 5.37075 4.61706 7.67436 4.62219 10.51ZM6.33335 10.5064C6.33211 9.84709 6.51663 9.20222 6.86356 8.65332C7.2105 8.10442 7.70428 7.67614 8.28245 7.42264C8.86063 7.16914 9.49723 7.1018 10.1118 7.22914C10.7263 7.35648 11.2912 7.67278 11.7349 8.13804C12.1787 8.6033 12.4814 9.19663 12.6048 9.84299C12.7282 10.4894 12.6667 11.1597 12.4282 11.7693C12.1897 12.3789 11.7848 12.9004 11.2647 13.2677C10.7446 13.6351 10.1327 13.8319 9.50638 13.8332C9.0905 13.8341 8.67852 13.7488 8.29398 13.5821C7.90943 13.4154 7.55985 13.1706 7.26519 12.8616C6.97054 12.5527 6.73659 12.1857 6.5767 11.7816C6.41681 11.3775 6.33412 10.9441 6.33335 10.5064Z" fill="currentColor"/>
</svg>
