<svg width="24" height="24" viewBox="0 0 24 24" fill="none" xmlns="http://www.w3.org/2000/svg">
<path d="M21.75 9.00002V9.90602C21.75 10.3123 21.64 10.7109 21.4318 11.0597C21.2235 11.4085 20.9247 11.6944 20.567 11.887L14.089 15.375M2.25 9.00002V9.90602C2.24998 10.3123 2.35995 10.7109 2.56824 11.0597C2.77652 11.4085 3.07534 11.6944 3.433 11.887L9.911 15.375M9.911 15.375L10.933 14.825C11.2609 14.6484 11.6275 14.5559 12 14.5559C12.3725 14.5559 12.7391 14.6484 13.067 14.825L14.09 15.375L18.75 17.885M9.911 15.375L5.25 17.885M21.75 19.5C21.75 20.0968 21.5129 20.6691 21.091 21.091C20.669 21.513 20.0967 21.75 19.5 21.75H4.5C3.90326 21.75 3.33097 21.513 2.90901 21.091C2.48705 20.6691 2.25 20.0968 2.25 19.5V8.84402C2.24998 8.43778 2.35995 8.03912 2.56824 7.69033C2.77652 7.34155 3.07534 7.05567 3.433 6.86302L10.933 2.82402C11.2609 2.64739 11.6275 2.55493 12 2.55493C12.3725 2.55493 12.7391 2.64739 13.067 2.82402L20.567 6.86302C20.9245 7.05559 21.2232 7.34132 21.4315 7.6899C21.6398 8.03849 21.7498 8.43695 21.75 8.84302V19.5Z" stroke="currentColor" stroke-width="1.5" stroke-linecap="round" stroke-linejoin="round"/>
</svg>
