<svg width="22" height="22" viewBox="0 0 22 22" fill="none" xmlns="http://www.w3.org/2000/svg">
<path d="M3.64796 7.53775C2.79038 8.54991 2.15179 9.72877 1.77246 11C2.95679 14.9765 6.63996 17.875 10.9996 17.875C11.9099 17.875 12.7899 17.7485 13.624 17.5129M5.70863 5.709C7.27855 4.67304 9.1187 4.12214 10.9996 4.125C15.3593 4.125 19.0415 7.0235 20.2259 10.9982C19.5768 13.1701 18.1836 15.044 16.2906 16.291M5.70863 5.709L2.74963 2.75M5.70863 5.709L9.05446 9.05483M16.2906 16.291L19.2496 19.25M16.2906 16.291L12.9448 12.9452C13.2002 12.6898 13.4028 12.3866 13.541 12.0529C13.6792 11.7193 13.7503 11.3616 13.7503 11.0005C13.7503 10.6393 13.6792 10.2817 13.541 9.94799C13.4028 9.61432 13.2002 9.31113 12.9448 9.05575C12.6894 8.80037 12.3862 8.59779 12.0526 8.45957C11.7189 8.32136 11.3613 8.25023 11.0001 8.25023C10.6389 8.25023 10.2813 8.32136 9.94762 8.45957C9.61394 8.59779 9.31076 8.80037 9.05538 9.05575M12.9439 12.9443L9.05629 9.05667" stroke="currentColor" stroke-width="1.5" stroke-linecap="round" stroke-linejoin="round"/>
</svg>
