<svg width="26" height="27" viewBox="0 0 26 27" fill="none" xmlns="http://www.w3.org/2000/svg">
<path d="M2.4375 20.8125C8.21774 20.8078 13.9728 21.5732 19.5509 23.0886C20.3385 23.3031 21.125 22.7181 21.125 21.9012V20.8125M4.0625 5.375V6.1875C4.0625 6.40299 3.9769 6.60965 3.82452 6.76202C3.67215 6.9144 3.46549 7 3.25 7H2.4375M2.4375 7V6.59375C2.4375 5.921 2.9835 5.375 3.65625 5.375H21.9375M2.4375 7V16.75M21.9375 5.375V6.1875C21.9375 6.636 22.3015 7 22.75 7H23.5625M21.9375 5.375H22.3438C23.0165 5.375 23.5625 5.921 23.5625 6.59375V17.1562C23.5625 17.829 23.0165 18.375 22.3438 18.375H21.9375M2.4375 16.75V17.1562C2.4375 17.4795 2.5659 17.7895 2.79446 18.018C3.02302 18.2466 3.33302 18.375 3.65625 18.375H4.0625M2.4375 16.75H3.25C3.46549 16.75 3.67215 16.8356 3.82452 16.988C3.9769 17.1403 4.0625 17.347 4.0625 17.5625V18.375M21.9375 18.375V17.5625C21.9375 17.347 22.0231 17.1403 22.1755 16.988C22.3278 16.8356 22.5345 16.75 22.75 16.75H23.5625M21.9375 18.375H4.0625M16.25 11.875C16.25 12.737 15.9076 13.5636 15.2981 14.1731C14.6886 14.7826 13.862 15.125 13 15.125C12.138 15.125 11.3114 14.7826 10.7019 14.1731C10.0924 13.5636 9.75 12.737 9.75 11.875C9.75 11.013 10.0924 10.1864 10.7019 9.5769C11.3114 8.96741 12.138 8.625 13 8.625C13.862 8.625 14.6886 8.96741 15.2981 9.5769C15.9076 10.1864 16.25 11.013 16.25 11.875ZM19.5 11.875H19.5087V11.8837H19.5V11.875ZM6.5 11.875H6.50867V11.8837H6.5V11.875Z" stroke="currentColor" stroke-width="1.5" stroke-linecap="round" stroke-linejoin="round"/>
</svg>
