<svg width="24" height="25" viewBox="0 0 24 25" fill="none" xmlns="http://www.w3.org/2000/svg">
<path d="M16.0229 9.84794H21.0149L17.8339 6.66494C16.8098 5.64081 15.5341 4.90433 14.1351 4.52955C12.7361 4.15476 11.2631 4.15487 9.86416 4.52986C8.46522 4.90486 7.18965 5.64153 6.16569 6.66581C5.14172 7.69009 4.40545 8.96588 4.03089 10.3649M2.98489 20.1439V15.1519M2.98489 15.1519H7.97689M2.98489 15.1519L6.16489 18.3349C7.189 19.3591 8.46468 20.0955 9.86368 20.4703C11.2627 20.8451 12.7357 20.845 14.1346 20.47C15.5336 20.095 16.8091 19.3584 17.8331 18.3341C18.8571 17.3098 19.5933 16.034 19.9679 14.6349M21.0149 4.85594V9.84594" stroke="currentColor" stroke-width="1.5" stroke-linecap="round" stroke-linejoin="round"/>
</svg>
