<svg width="21" height="19" viewBox="0 0 21 19" fill="none" xmlns="http://www.w3.org/2000/svg">
<path fill-rule="evenodd" clip-rule="evenodd" d="M1.45081 8.27825C7.08003 5.71674 10.8429 4.06113 12.7394 3.24894C18.0977 0.937332 19.2115 0.531238 19.9339 0.5C20.0844 0.5 20.4457 0.531238 20.6865 0.718666C20.8671 0.874856 20.9273 1.09352 20.9574 1.24971C20.9875 1.4059 21.0176 1.74952 20.9875 2.03066C20.6865 5.18569 19.4523 12.9015 18.79 16.4314C18.5191 17.9308 17.9772 18.4306 17.4655 18.4931C16.3517 18.5868 15.4787 17.7121 14.395 16.9936C12.7093 15.8378 11.746 15.1194 10.0903 13.9948C8.19384 12.6828 9.42805 11.9643 10.5118 10.8085C10.7827 10.4961 15.7496 5.84169 15.84 5.40436C15.84 5.34188 15.8701 5.15446 15.7496 5.06074C15.6292 4.96703 15.4787 4.99827 15.3583 5.0295C15.1777 5.06074 12.4684 6.93502 7.20044 10.6211C6.41777 11.1834 5.7254 11.4333 5.09325 11.4333C4.40088 11.4333 3.07636 11.0272 2.08296 10.6836C0.878852 10.2775 -0.0844373 10.0588 0.00587116 9.37158C0.0660768 9.02796 0.547722 8.65311 1.45081 8.27825Z" fill="currentColor"/>
</svg>
