<svg width="15" height="21" viewBox="0 0 15 21" fill="none" xmlns="http://www.w3.org/2000/svg">
<path d="M7.5 11.3838C9.20408 11.3838 10.8591 12.1194 12.1016 13.4648C13.3311 14.7963 14.0522 16.6168 14.0967 18.5449C12.0199 19.5734 9.77197 20.103 7.50098 20.0996H7.5C5.15163 20.0996 2.91862 19.5447 0.902344 18.5449C0.94679 16.6168 1.6689 14.7963 2.89844 13.4648C4.1409 12.1194 5.79592 11.3838 7.5 11.3838ZM7.5 0.900391C8.31725 0.900391 9.12098 1.25668 9.72754 1.92383C10.3365 2.59379 10.6914 3.51924 10.6914 4.5C10.6914 5.48077 10.3365 6.40621 9.72754 7.07617C9.12098 7.74332 8.31725 8.09961 7.5 8.09961C6.68275 8.09961 5.87902 7.74332 5.27246 7.07617C4.66354 6.40621 4.30859 5.48077 4.30859 4.5C4.30859 3.51923 4.66354 2.59379 5.27246 1.92383C5.84104 1.29846 6.58292 0.945962 7.34668 0.904297L7.5 0.900391Z" stroke="currentColor" stroke-width="1.8"/>
</svg>
