<svg width="22" height="15" viewBox="0 0 22 15" fill="none" xmlns="http://www.w3.org/2000/svg">
<path fill-rule="evenodd" clip-rule="evenodd" d="M3.232 0.5H0.825206C0.137541 0.5 0 0.846906 0 1.22933C0 1.91245 0.815966 5.30038 3.79926 9.78119C5.78813 12.8412 8.59024 14.5 11.1401 14.5C12.67 14.5 12.8593 14.1316 12.8593 13.497V11.1842C12.8593 10.4474 13.0042 10.3003 13.4886 10.3003C13.8456 10.3003 14.4576 10.4916 15.8855 11.967C17.5174 13.7156 17.7864 14.5 18.7043 14.5H21.1111C21.7988 14.5 22.1426 14.1316 21.9443 13.4045C21.7273 12.6799 20.9481 11.6285 19.9142 10.3823C19.3532 9.67192 18.5118 8.90693 18.2568 8.52436C17.8999 8.03259 18.0018 7.81397 18.2568 7.37687C18.2568 7.37687 21.1891 2.95066 21.4952 1.44802C21.6481 0.901505 21.4952 0.5 20.7673 0.5H18.3605C17.7486 0.5 17.4664 0.846906 17.3134 1.22933C17.3134 1.22933 16.0895 4.42604 14.3556 6.50254C13.7946 7.10358 13.5396 7.29486 13.2336 7.29486C13.0806 7.29486 12.8592 7.10358 12.8592 6.55721V1.44802C12.8592 0.792232 12.6816 0.5 12.1716 0.5H8.38942C8.00703 0.5 7.77699 0.804316 7.77699 1.09279C7.77699 1.71439 8.64393 1.85778 8.73331 3.60638V7.40421C8.73331 8.23684 8.59292 8.38782 8.28698 8.38782C7.47106 8.38782 5.48632 5.17681 4.30918 1.50262C4.07852 0.788474 3.84711 0.5 3.232 0.5Z" fill="currentColor"/>
</svg>
