<svg width="26" height="26" viewBox="0 0 26 26" fill="none" xmlns="http://www.w3.org/2000/svg">
<path d="M11.205 4.26815C11.3025 3.68098 11.8117 3.24982 12.4075 3.24982H13.5916C14.1874 3.24982 14.6966 3.68098 14.7941 4.26815L14.9555 5.23665C15.0314 5.69598 15.3715 6.06432 15.8005 6.24415C16.2317 6.42182 16.7268 6.39798 17.1059 6.12715L17.9044 5.55623C18.1392 5.38838 18.426 5.30931 18.7136 5.33312C19.0013 5.35692 19.2712 5.48206 19.4752 5.68623L20.3126 6.52473C20.7351 6.94615 20.7893 7.61023 20.4426 8.09557L19.8717 8.89398C19.6009 9.27315 19.577 9.76715 19.7558 10.1983C19.9345 10.6284 20.3029 10.9675 20.7633 11.0433L21.7307 11.2058C22.3189 11.3033 22.749 11.8114 22.749 12.4072V13.5924C22.749 14.1882 22.3189 14.6974 21.7307 14.7949L20.7622 14.9563C20.3029 15.0322 19.9345 15.3712 19.7558 15.8013C19.577 16.2325 19.6009 16.7265 19.8717 17.1057L20.4426 17.9052C20.7893 18.3894 20.734 19.0535 20.3126 19.476L19.4741 20.3134C19.2701 20.5173 19.0005 20.6423 18.7131 20.6661C18.4256 20.6899 18.1391 20.611 17.9044 20.4434L17.1049 19.8725C16.7257 19.6017 16.2317 19.5778 15.8016 19.7566C15.3704 19.9353 15.0324 20.3037 14.9555 20.763L14.7941 21.7315C14.6966 22.3187 14.1874 22.7498 13.5916 22.7498H12.4064C11.8106 22.7498 11.3025 22.3187 11.2039 21.7315L11.0436 20.763C10.9667 20.3037 10.6276 19.9353 10.1975 19.7555C9.76636 19.5778 9.27236 19.6017 8.89319 19.8725L8.09369 20.4434C7.60944 20.7901 6.94536 20.7348 6.52286 20.3134L5.68544 19.4749C5.48126 19.2709 5.35613 19.001 5.33232 18.7133C5.30852 18.4257 5.38758 18.1389 5.55544 17.9041L6.12636 17.1057C6.39719 16.7265 6.42102 16.2325 6.24336 15.8013C6.06461 15.3712 5.69519 15.0322 5.23586 14.9563L4.26736 14.7938C3.68019 14.6963 3.24902 14.1872 3.24902 13.5924V12.4072C3.24902 11.8114 3.68019 11.3022 4.26736 11.2047L5.23586 11.0433C5.69519 10.9675 6.06461 10.6284 6.24336 10.1983C6.42211 9.76715 6.39827 9.27315 6.12636 8.89398L5.55652 8.09448C5.38867 7.85966 5.3096 7.57289 5.33341 7.28522C5.35721 6.99756 5.48235 6.72768 5.68652 6.52365L6.52394 5.68623C6.72797 5.48206 6.99785 5.35692 7.28551 5.33312C7.57318 5.30931 7.85995 5.38838 8.09477 5.55623L8.89319 6.12715C9.27236 6.39798 9.76744 6.42182 10.1975 6.24307C10.6276 6.06432 10.9667 5.69598 11.0425 5.23665L11.205 4.26815Z" stroke="#373737" stroke-width="1.5" stroke-linecap="round" stroke-linejoin="round"/>
<path d="M16.25 12.9998C16.25 13.8618 15.9076 14.6884 15.2981 15.2979C14.6886 15.9074 13.862 16.2498 13 16.2498C12.138 16.2498 11.3114 15.9074 10.7019 15.2979C10.0924 14.6884 9.75 13.8618 9.75 12.9998C9.75 12.1379 10.0924 11.3112 10.7019 10.7017C11.3114 10.0922 12.138 9.74982 13 9.74982C13.862 9.74982 14.6886 10.0922 15.2981 10.7017C15.9076 11.3112 16.25 12.1379 16.25 12.9998Z" stroke="#373737" stroke-width="1.5" stroke-linecap="round" stroke-linejoin="round"/>
</svg>
