<svg width="26" height="26" viewBox="0 0 26 26" fill="none" xmlns="http://www.w3.org/2000/svg">
<path d="M8.53125 15.4373L9.84642 17.5412C10.0655 17.8918 10.3701 18.181 10.7317 18.3815C11.0933 18.582 11.5 18.6873 11.9134 18.6873H14.0866C14.9273 18.6873 15.7083 18.254 16.1536 17.5412L17.4688 15.4373M2.61083 9.74982H7.63317C8.03443 9.74985 8.42949 9.84894 8.78326 10.0383C9.13704 10.2277 9.4386 10.5014 9.66117 10.8353L9.83883 11.1018C10.0614 11.4357 10.363 11.7095 10.7167 11.8988C11.0705 12.0882 11.4656 12.1873 11.8668 12.1873H14.1332C14.5344 12.1873 14.9295 12.0882 15.2833 11.8988C15.637 11.7095 15.9386 11.4357 16.1612 11.1018L16.3388 10.8353C16.5614 10.5014 16.863 10.2277 17.2167 10.0383C17.5705 9.84894 17.9656 9.74985 18.3668 9.74982H23.3892M2.61083 9.74982C2.4965 10.0366 2.43768 10.3424 2.4375 10.6512V12.9998C2.4375 13.6463 2.69431 14.2663 3.15143 14.7234C3.60855 15.1805 4.22853 15.4373 4.875 15.4373H21.125C21.7715 15.4373 22.3915 15.1805 22.8486 14.7234C23.3057 14.2663 23.5625 13.6463 23.5625 12.9998V10.6512C23.5625 10.3402 23.5029 10.0337 23.3892 9.74982M2.61083 9.74982C2.71013 9.50036 2.84996 9.26902 3.02467 9.06515L6.58342 4.91382C6.81218 4.64684 7.09599 4.43251 7.41538 4.28553C7.73476 4.13855 8.08217 4.06241 8.43375 4.06232H17.5663C18.278 4.06232 18.954 4.37323 19.4177 4.91382L22.9753 9.06515C23.1519 9.27098 23.2906 9.50282 23.3892 9.74982M4.875 21.9373H21.125C21.7715 21.9373 22.3915 21.6805 22.8486 21.2234C23.3057 20.7663 23.5625 20.1463 23.5625 19.4998V16.6561C23.5625 15.9833 23.0165 15.4373 22.3438 15.4373H3.65625C2.9835 15.4373 2.4375 15.9833 2.4375 16.6561V19.4998C2.4375 20.1463 2.69431 20.7663 3.15143 21.2234C3.60855 21.6805 4.22853 21.9373 4.875 21.9373Z" stroke="#373737" stroke-width="1.5" stroke-linecap="round" stroke-linejoin="round"/>
</svg>
