<svg width="26" height="26" viewBox="0 0 26 26" fill="none" xmlns="http://www.w3.org/2000/svg">
<path d="M5.6875 15.4373H20.3125M5.6875 15.4373C4.82555 15.4373 3.9989 15.0949 3.3894 14.4854C2.77991 13.8759 2.4375 13.0493 2.4375 12.1873M5.6875 15.4373C4.82555 15.4373 3.9989 15.7797 3.3894 16.3892C2.77991 16.9987 2.4375 17.8254 2.4375 18.6873C2.4375 19.5493 2.77991 20.3759 3.3894 20.9854C3.9989 21.5949 4.82555 21.9373 5.6875 21.9373H20.3125C21.1745 21.9373 22.0011 21.5949 22.6106 20.9854C23.2201 20.3759 23.5625 19.5493 23.5625 18.6873C23.5625 17.8254 23.2201 16.9987 22.6106 16.3892C22.0011 15.7797 21.1745 15.4373 20.3125 15.4373M20.3125 15.4373C21.1745 15.4373 22.0011 15.0949 22.6106 14.4854C23.2201 13.8759 23.5625 13.0493 23.5625 12.1873M2.4375 12.1873C2.4375 11.3254 2.77991 10.4987 3.3894 9.88922C3.9989 9.27973 4.82555 8.93732 5.6875 8.93732H20.3125C21.1745 8.93732 22.0011 9.27973 22.6106 9.88922C23.2201 10.4987 23.5625 11.3254 23.5625 12.1873M2.4375 12.1873C2.4375 11.1325 2.77962 10.1062 3.4125 9.26232L6.21508 5.52482C6.55565 5.07072 6.99727 4.70216 7.50496 4.44832C8.01265 4.19447 8.57247 4.06232 9.14008 4.06232H16.8599C18.0104 4.06232 19.0938 4.60398 19.7849 5.52482L22.5875 9.26232C23.2204 10.1062 23.5625 11.1325 23.5625 12.1873M20.3125 18.6873H20.3212V18.696H20.3125V18.6873ZM20.3125 12.1873H20.3212V12.196H20.3125V12.1873ZM17.0625 18.6873H17.0712V18.696H17.0625V18.6873ZM17.0625 12.1873H17.0712V12.196H17.0625V12.1873Z" stroke="#373737" stroke-width="1.5" stroke-linecap="round" stroke-linejoin="round"/>
</svg>
