<svg width="43" height="44" viewBox="0 0 43 44" fill="none" xmlns="http://www.w3.org/2000/svg">
<rect x="0.5" y="0.5" width="41.3457" height="42.2099" rx="3.82099" stroke="#EAEAEA"/>
<path d="M17.7726 13.0233C16.8991 13.0667 16.3026 13.2135 15.7811 13.4292C15.2413 13.6506 14.7839 13.9477 14.3287 14.4285C13.8736 14.9094 13.5933 15.3912 13.3844 15.9602C13.1823 16.5104 13.0453 17.1388 13.0067 18.0589C12.9682 18.9789 12.9596 19.2746 12.9639 21.6214C12.9682 23.9683 12.978 24.2624 13.0204 25.1844C13.0621 26.1037 13.201 26.7315 13.4059 27.2806C13.6166 27.8487 13.8985 28.3301 14.3555 28.8093C14.8124 29.2886 15.2699 29.583 15.8118 29.8032C16.3339 30.0156 16.9311 30.1604 17.805 30.2007C18.6788 30.241 18.9601 30.2503 21.189 30.2458C23.4178 30.2413 23.6984 30.2309 24.5741 30.1872C25.4498 30.1435 26.043 29.9962 26.5648 29.7816C27.1046 29.5593 27.5622 29.263 28.0172 28.7819C28.4722 28.3007 28.7523 27.8184 28.961 27.2491C29.1633 26.6995 29.3007 26.0709 29.3387 25.1517C29.3769 24.2292 29.3859 23.9347 29.3817 21.5883C29.3774 19.2418 29.3674 18.9476 29.3258 18.026C29.2843 17.1044 29.1452 16.4786 28.9405 15.9291C28.7295 15.361 28.4479 14.88 27.9911 14.4003C27.5343 13.9207 27.0758 13.626 26.5351 13.4069C26.0126 13.1941 25.4158 13.0491 24.5419 13.0093C23.668 12.9696 23.3868 12.9594 21.1571 12.9639C18.9274 12.9684 18.6483 12.9784 17.7726 13.0233ZM17.8685 28.646C17.068 28.6094 16.6334 28.4694 16.3438 28.3522C15.9602 28.1966 15.687 28.0086 15.3983 27.7077C15.1096 27.4067 14.9323 27.1181 14.7826 26.7152C14.6701 26.4103 14.5346 25.9533 14.4972 25.1107C14.4565 24.2 14.4479 23.9266 14.4432 21.6194C14.4384 19.3121 14.4468 19.039 14.4847 18.128C14.5189 17.2861 14.6527 16.8281 14.7638 16.5233C14.9116 16.1191 15.0896 15.832 15.3761 15.5283C15.6627 15.2246 15.9361 15.0376 16.3191 14.88C16.6085 14.7611 17.0426 14.6197 17.8427 14.5796C18.7086 14.5364 18.968 14.5277 21.1596 14.5227C23.3511 14.5177 23.6112 14.5263 24.4774 14.5664C25.2772 14.6031 25.7125 14.7426 26.0016 14.8603C26.3854 15.0158 26.6584 15.2027 26.9469 15.5048C27.2354 15.8069 27.4133 16.0937 27.563 16.4978C27.6761 16.8014 27.8105 17.2583 27.8482 18.101C27.8894 19.0124 27.8988 19.2857 27.9027 21.5924C27.9067 23.8991 27.899 24.1731 27.861 25.0838C27.8261 25.9264 27.6934 26.384 27.5819 26.6893C27.4341 27.0929 27.256 27.3806 26.9693 27.6841C26.6826 27.9877 26.4095 28.1747 26.0263 28.3323C25.7373 28.451 25.3026 28.5928 24.5032 28.6329C23.6373 28.6757 23.3779 28.6847 21.1855 28.6897C18.9931 28.6947 18.7345 28.6854 17.8687 28.646M24.5614 16.986C24.5618 17.1912 24.6199 17.3916 24.7284 17.5619C24.837 17.7323 24.991 17.8649 25.1712 17.9431C25.3514 18.0213 25.5495 18.0414 25.7406 18.0011C25.9316 17.9607 26.107 17.8616 26.2445 17.7163C26.3821 17.571 26.4756 17.386 26.5133 17.1847C26.5509 16.9835 26.531 16.775 26.4561 16.5856C26.3812 16.3963 26.2546 16.2345 26.0924 16.1209C25.9301 16.0073 25.7395 15.9469 25.5447 15.9473C25.2834 15.9478 25.0331 16.0576 24.8487 16.2524C24.6643 16.4471 24.561 16.7111 24.5614 16.986ZM16.9574 21.6135C16.962 24.0644 18.8529 26.0467 21.1807 26.042C23.5086 26.0373 25.3931 24.0471 25.3887 21.5962C25.3842 19.1453 23.4928 17.1625 21.1647 17.1673C18.8365 17.1722 16.9529 19.163 16.9574 21.6135ZM18.4362 21.6104C18.4351 21.0406 18.5945 20.4833 18.8944 20.009C19.1942 19.5346 19.6209 19.1645 20.1206 18.9454C20.6202 18.7263 21.1704 18.6681 21.7014 18.7782C22.2325 18.8882 22.7207 19.1616 23.1042 19.5637C23.4877 19.9657 23.7493 20.4785 23.8559 21.0371C23.9626 21.5957 23.9095 22.175 23.7033 22.7018C23.4972 23.2286 23.1472 23.6793 22.6978 23.9967C22.2483 24.3142 21.7196 24.4843 21.1783 24.4854C20.8189 24.4862 20.4629 24.4125 20.1305 24.2684C19.7982 24.1243 19.4961 23.9128 19.2415 23.6458C18.9868 23.3788 18.7846 23.0616 18.6465 22.7124C18.5083 22.3632 18.4368 21.9887 18.4362 21.6104Z" fill="#717171"/>
</svg>
