<svg width="45" height="44" viewBox="0 0 45 44" fill="none" xmlns="http://www.w3.org/2000/svg">
<path d="M4.98779 0.5H40.4194C42.5297 0.5 44.2407 2.21102 44.2407 4.32129V38.8887C44.2407 40.9989 42.5297 42.71 40.4194 42.71H4.98779C2.87752 42.71 1.1665 40.9989 1.1665 38.8887V4.32129C1.1665 2.21102 2.87752 0.5 4.98779 0.5Z" stroke="#EAEAEA"/>
<path fill-rule="evenodd" clip-rule="evenodd" d="M14.8832 20.5491C19.7479 18.3354 22.9998 16.9047 24.6387 16.2028C29.2693 14.2051 30.2319 13.8541 30.8563 13.8271C30.9863 13.8271 31.2985 13.8541 31.5066 14.0161C31.6627 14.1511 31.7147 14.3401 31.7408 14.475C31.7668 14.61 31.7928 14.907 31.7668 15.1499C31.5066 17.8765 30.44 24.5445 29.8677 27.595C29.6336 28.8908 29.1653 29.3227 28.723 29.3767C27.7605 29.4577 27.0061 28.7018 26.0695 28.0809C24.6127 27.0821 23.7802 26.4612 22.3494 25.4893C20.7105 24.3555 21.7771 23.7346 22.7136 22.7358C22.9478 22.4658 27.2402 18.4434 27.3182 18.0655C27.3182 18.0115 27.3443 17.8495 27.2402 17.7685C27.1361 17.6875 27.0061 17.7145 26.902 17.7415C26.7459 17.7685 24.4046 19.3883 19.852 22.5738C19.1756 23.0597 18.5773 23.2757 18.031 23.2757C17.4326 23.2757 16.288 22.9247 15.4295 22.6278C14.3889 22.2768 13.5564 22.0879 13.6345 21.4939C13.6865 21.197 14.1027 20.873 14.8832 20.5491Z" fill="#717171"/>
</svg>
