<svg width="45" height="44" viewBox="0 0 45 44" fill="none" xmlns="http://www.w3.org/2000/svg">
<path d="M4.38281 0.5H40.6787C42.789 0.5 44.5 2.21102 44.5 4.32129V38.8887C44.5 40.9989 42.789 42.71 40.6787 42.71H4.38281C2.27254 42.71 0.561523 40.9989 0.561523 38.8887V4.32129C0.561523 2.21102 2.27254 0.5 4.38281 0.5Z" stroke="#EAEAEA"/>
<path fill-rule="evenodd" clip-rule="evenodd" d="M15.8175 15.5557H13.7376C13.1433 15.5557 13.0244 15.8555 13.0244 16.1859C13.0244 16.7763 13.7296 19.7041 16.3077 23.5764C18.0265 26.2209 20.4481 27.6544 22.6517 27.6544C23.9738 27.6544 24.1374 27.336 24.1374 26.7876V24.7889C24.1374 24.1522 24.2626 24.0251 24.6812 24.0251C24.9898 24.0251 25.5186 24.1904 26.7526 25.4654C28.1629 26.9765 28.3954 27.6544 29.1886 27.6544H31.2686C31.8629 27.6544 32.16 27.336 31.9886 26.7077C31.8011 26.0815 31.1277 25.1729 30.2343 24.0959C29.7494 23.482 29.0223 22.8209 28.8019 22.4903C28.4934 22.0653 28.5816 21.8764 28.8019 21.4986C28.8019 21.4986 31.336 17.6735 31.6005 16.3749C31.7327 15.9026 31.6005 15.5557 30.9715 15.5557H28.8915C28.3627 15.5557 28.1188 15.8555 27.9866 16.1859C27.9866 16.1859 26.9289 18.9485 25.4305 20.743C24.9457 21.2625 24.7253 21.4278 24.4609 21.4278C24.3287 21.4278 24.1373 21.2625 24.1373 20.7903V16.3749C24.1373 15.8082 23.9838 15.5557 23.543 15.5557H20.2745C19.9441 15.5557 19.7453 15.8187 19.7453 16.068C19.7453 16.6051 20.4945 16.7291 20.5717 18.2402V21.5223C20.5717 22.2418 20.4504 22.3723 20.186 22.3723C19.4809 22.3723 17.7657 19.5974 16.7484 16.4221C16.5491 15.805 16.3491 15.5557 15.8175 15.5557Z" fill="#717171"/>
</svg>
