<svg width="20" height="21" viewBox="0 0 20 21" fill="none" xmlns="http://www.w3.org/2000/svg">
<path d="M7 7.5V4.7002C7 3.58009 7 3.01962 7.21799 2.5918C7.40973 2.21547 7.71547 1.90973 8.0918 1.71799C8.51962 1.5 9.08009 1.5 10.2002 1.5H15.8002C16.9203 1.5 17.4801 1.5 17.9079 1.71799C18.2842 1.90973 18.5905 2.21547 18.7822 2.5918C19.0002 3.01962 19.0002 3.57967 19.0002 4.69978V10.2998C19.0002 11.4199 19.0002 11.98 18.7822 12.4078C18.5905 12.7841 18.2839 13.0905 17.9076 13.2822C17.4802 13.5 16.921 13.5 15.8031 13.5H13M7 7.5H4.2002C3.08009 7.5 2.51962 7.5 2.0918 7.71799C1.71547 7.90973 1.40973 8.21547 1.21799 8.5918C1 9.01962 1 9.58009 1 10.7002V16.3002C1 17.4203 1 17.9801 1.21799 18.4079C1.40973 18.7842 1.71547 19.0905 2.0918 19.2822C2.5192 19.5 3.07899 19.5 4.19691 19.5H9.80355C10.9215 19.5 11.4805 19.5 11.9079 19.2822C12.2842 19.0905 12.5905 18.7839 12.7822 18.4076C13 17.9802 13 17.421 13 16.3031V13.5M7 7.5H9.8002C10.9203 7.5 11.4801 7.5 11.9079 7.71799C12.2842 7.90973 12.5905 8.21547 12.7822 8.5918C13 9.01921 13 9.579 13 10.6969L13 13.5" stroke="#B8B8B8" stroke-width="2" stroke-linecap="round" stroke-linejoin="round"/>
</svg>
