<svg width="26" height="27" viewBox="0 0 26 27" fill="none" xmlns="http://www.w3.org/2000/svg">
<path d="M10 11.0001V8.20032C10 7.08021 10 6.51974 10.218 6.09192C10.4097 5.71559 10.7155 5.40986 11.0918 5.21811C11.5196 5.00012 12.0801 5.00012 13.2002 5.00012H18.8002C19.9203 5.00012 20.4801 5.00012 20.9079 5.21811C21.2842 5.40986 21.5905 5.71559 21.7822 6.09192C22.0002 6.51974 22.0002 7.0798 22.0002 8.1999V13.7999C22.0002 14.92 22.0002 15.4801 21.7822 15.9079C21.5905 16.2842 21.2839 16.5906 20.9076 16.7823C20.4802 17.0001 19.921 17.0001 18.8031 17.0001H16M10 11.0001H7.2002C6.08009 11.0001 5.51962 11.0001 5.0918 11.2181C4.71547 11.4099 4.40973 11.7156 4.21799 12.0919C4 12.5197 4 13.0802 4 14.2003V19.8003C4 20.9204 4 21.4802 4.21799 21.908C4.40973 22.2843 4.71547 22.5906 5.0918 22.7823C5.5192 23.0001 6.07899 23.0001 7.19691 23.0001H12.8036C13.9215 23.0001 14.4805 23.0001 14.9079 22.7823C15.2842 22.5906 15.5905 22.284 15.7822 21.9077C16 21.4803 16 20.9211 16 19.8032V17.0001M10 11.0001H12.8002C13.9203 11.0001 14.4801 11.0001 14.9079 11.2181C15.2842 11.4099 15.5905 11.7156 15.7822 12.0919C16 12.5193 16 13.0791 16 14.1971L16 17.0001" stroke="#5D91FE" stroke-width="2" stroke-linecap="round" stroke-linejoin="round"/>
</svg>
