<svg width="19" height="17" viewBox="0 0 19 17" fill="none" xmlns="http://www.w3.org/2000/svg">
<path d="M5.29883 1H5.30371C5.96375 0.996924 6.61526 1.13823 7.20898 1.41211C7.80265 1.686 8.32211 2.08521 8.73047 2.57715L9.5 3.50391L10.2695 2.57715C10.678 2.08504 11.1981 1.686 11.792 1.41211C12.3859 1.13827 13.0371 0.996782 13.6973 1H13.7021C16.1173 1 18 2.81398 18 4.95898C17.9998 8.23187 15.8914 10.9886 13.7148 12.9561C12.5016 14.045 11.1725 15.0077 9.75 15.8271C9.66748 15.8744 9.58353 15.9192 9.5 15.9648C9.41652 15.9195 9.33249 15.8752 9.25 15.8281C7.82747 15.0086 6.49846 14.0459 5.28516 12.957C3.10829 10.9874 1.0002 8.23074 1 4.95898C1 2.8141 2.88257 1 5.29883 1Z" stroke="#B8B8B8" stroke-width="2"/>
</svg>
