<svg width="27" height="27" viewBox="0 0 27 27" fill="none" xmlns="http://www.w3.org/2000/svg">
<path d="M11.704 4.76833C11.8015 4.18117 12.3107 3.75 12.9065 3.75H14.0906C14.6865 3.75 15.1956 4.18117 15.2931 4.76833L15.4545 5.73683C15.5304 6.19617 15.8705 6.5645 16.2995 6.74433C16.7307 6.922 17.2258 6.89817 17.605 6.62733L18.4034 6.05642C18.6382 5.88856 18.925 5.80949 19.2126 5.8333C19.5003 5.85711 19.7702 5.98224 19.9742 6.18642L20.8116 7.02492C21.2341 7.44633 21.2883 8.11042 20.9416 8.59575L20.3707 9.39417C20.0999 9.77333 20.076 10.2673 20.2548 10.6985C20.4335 11.1286 20.8019 11.4677 21.2623 11.5435L22.2297 11.706C22.818 11.8035 23.248 12.3116 23.248 12.9074V14.0926C23.248 14.6884 22.818 15.1976 22.2297 15.2951L21.2612 15.4565C20.8019 15.5323 20.4335 15.8714 20.2548 16.3015C20.076 16.7327 20.0999 17.2267 20.3707 17.6058L20.9416 18.4053C21.2883 18.8896 21.233 19.5537 20.8116 19.9762L19.9731 20.8136C19.7692 21.0175 19.4995 21.1424 19.2121 21.1662C18.9247 21.19 18.6381 21.1112 18.4034 20.9436L17.6039 20.3727C17.2247 20.1018 16.7307 20.078 16.3006 20.2568C15.8695 20.4355 15.5315 20.8038 15.4545 21.2632L15.2931 22.2317C15.1956 22.8188 14.6865 23.25 14.0906 23.25H12.9055C12.3096 23.25 11.8015 22.8188 11.703 22.2317L11.5426 21.2632C11.4657 20.8038 11.1266 20.4355 10.6965 20.2557C10.2654 20.078 9.77138 20.1018 9.39221 20.3727L8.59271 20.9436C8.10846 21.2903 7.44438 21.235 7.02188 20.8136L6.18446 19.9751C5.98029 19.7711 5.85515 19.5012 5.83135 19.2135C5.80754 18.9258 5.88661 18.6391 6.05446 18.4043L6.62538 17.6058C6.89621 17.2267 6.92005 16.7327 6.74238 16.3015C6.56363 15.8714 6.19421 15.5323 5.73488 15.4565L4.76638 15.294C4.17921 15.1965 3.74805 14.6873 3.74805 14.0926V12.9074C3.74805 12.3116 4.17921 11.8024 4.76638 11.7049L5.73488 11.5435C6.19421 11.4677 6.56363 11.1286 6.74238 10.6985C6.92113 10.2673 6.8973 9.77333 6.62538 9.39417L6.05555 8.59467C5.88769 8.35985 5.80862 8.07307 5.83243 7.78541C5.85624 7.49774 5.98137 7.22787 6.18555 7.02383L7.02296 6.18642C7.227 5.98224 7.49687 5.85711 7.78454 5.8333C8.0722 5.80949 8.35898 5.88856 8.5938 6.05642L9.39221 6.62733C9.77138 6.89817 10.2665 6.922 10.6965 6.74325C11.1266 6.5645 11.4657 6.19617 11.5415 5.73683L11.704 4.76833Z" stroke="#373737" stroke-width="1.5" stroke-linecap="round" stroke-linejoin="round"/>
<path d="M16.75 13.5C16.75 14.362 16.4076 15.1886 15.7981 15.7981C15.1886 16.4076 14.362 16.75 13.5 16.75C12.638 16.75 11.8114 16.4076 11.2019 15.7981C10.5924 15.1886 10.25 14.362 10.25 13.5C10.25 12.638 10.5924 11.8114 11.2019 11.2019C11.8114 10.5924 12.638 10.25 13.5 10.25C14.362 10.25 15.1886 10.5924 15.7981 11.2019C16.4076 11.8114 16.75 12.638 16.75 13.5Z" stroke="#373737" stroke-width="1.5" stroke-linecap="round" stroke-linejoin="round"/>
</svg>
