<svg width="25" height="21" viewBox="0 0 25 21" fill="none" xmlns="http://www.w3.org/2000/svg">
<path d="M4.53846 13.0909H20.4615M4.53846 13.0909C3.6 13.0909 2.69998 12.7269 2.03639 12.0791C1.3728 11.4312 1 10.5526 1 9.63636M4.53846 13.0909C3.6 13.0909 2.69998 13.4549 2.03639 14.1027C1.3728 14.7506 1 15.6293 1 16.5455C1 17.4617 1.3728 18.3403 2.03639 18.9882C2.69998 19.636 3.6 20 4.53846 20H20.4615C21.4 20 22.3 19.636 22.9636 18.9882C23.6272 18.3403 24 17.4617 24 16.5455C24 15.6293 23.6272 14.7506 22.9636 14.1027C22.3 13.4549 21.4 13.0909 20.4615 13.0909M20.4615 13.0909C21.4 13.0909 22.3 12.7269 22.9636 12.0791C23.6272 11.4312 24 10.5526 24 9.63636M1 9.63636C1 8.72016 1.3728 7.84148 2.03639 7.19363C2.69998 6.54578 3.6 6.18182 4.53846 6.18182H20.4615C21.4 6.18182 22.3 6.54578 22.9636 7.19363C23.6272 7.84148 24 8.72016 24 9.63636M1 9.63636C1 8.51517 1.37248 7.42423 2.06154 6.52727L5.11287 2.55455C5.48367 2.07187 5.96448 1.68012 6.51723 1.41029C7.06998 1.14047 7.67949 1 8.29749 1H16.7025C17.9551 1 19.1346 1.57576 19.8871 2.55455L22.9385 6.52727C23.6275 7.42423 24 8.51517 24 9.63636M20.4615 16.5455H20.471V16.5547H20.4615V16.5455ZM20.4615 9.63636H20.471V9.64558H20.4615V9.63636ZM16.9231 16.5455H16.9325V16.5547H16.9231V16.5455ZM16.9231 9.63636H16.9325V9.64558H16.9231V9.63636Z" stroke="white" stroke-width="1.5" stroke-linecap="round" stroke-linejoin="round"/>
</svg>
