<svg width="50" height="43" viewBox="0 0 50 43" fill="none" xmlns="http://www.w3.org/2000/svg">
<path d="M2 35.9033C14.5866 35.893 27.1184 37.574 39.2647 40.902C40.9797 41.373 42.6923 40.0883 42.6923 38.2944V35.9033M5.53846 2V3.78438C5.53846 4.25763 5.35206 4.7115 5.02027 5.04614C4.68847 5.38077 4.23846 5.56877 3.76923 5.56877H2M2 5.56877V4.67658C2 3.19911 3.18892 2 4.65385 2H44.4615M2 5.56877V26.9814M44.4615 2V3.78438C44.4615 4.76936 45.2542 5.56877 46.2308 5.56877H48M44.4615 2H45.3462C46.8111 2 48 3.19911 48 4.67658V27.8736C48 29.351 46.8111 30.5502 45.3462 30.5502H44.4615M2 26.9814V27.8736C2 28.5834 2.2796 29.2642 2.77729 29.7662C3.27499 30.2682 3.95 30.5502 4.65385 30.5502H5.53846M2 26.9814H3.76923C4.23846 26.9814 4.68847 27.1694 5.02027 27.504C5.35206 27.8387 5.53846 28.2925 5.53846 28.7658V30.5502M44.4615 30.5502V28.7658C44.4615 28.2925 44.6479 27.8387 44.9797 27.504C45.3115 27.1694 45.7615 26.9814 46.2308 26.9814H48M44.4615 30.5502H5.53846M32.0769 16.2751C32.0769 18.1681 31.3313 19.9835 30.0041 21.3221C28.677 22.6606 26.8769 23.4126 25 23.4126C23.1231 23.4126 21.323 22.6606 19.9959 21.3221C18.6687 19.9835 17.9231 18.1681 17.9231 16.2751C17.9231 14.3821 18.6687 12.5666 19.9959 11.2281C21.323 9.88953 23.1231 9.13754 25 9.13754C26.8769 9.13754 28.677 9.88953 30.0041 11.2281C31.3313 12.5666 32.0769 14.3821 32.0769 16.2751ZM39.1538 16.2751H39.1727V16.2941H39.1538V16.2751ZM10.8462 16.2751H10.865V16.2941H10.8462V16.2751Z" stroke="#5D91FE" stroke-width="3.5" stroke-linecap="round" stroke-linejoin="round"/>
</svg>
