<svg width="35" height="35" viewBox="0 0 35 35" fill="none" xmlns="http://www.w3.org/2000/svg">
<path d="M17.5 7.16667V17.5H25.25M33 17.5C33 19.5355 32.5991 21.551 31.8201 23.4316C31.0412 25.3121 29.8995 27.0208 28.4602 28.4602C27.0208 29.8995 25.3121 31.0412 23.4316 31.8201C21.551 32.5991 19.5355 33 17.5 33C15.4645 33 13.449 32.5991 11.5684 31.8201C9.68786 31.0412 7.97915 29.8995 6.53984 28.4602C5.10054 27.0208 3.95881 25.3121 3.17987 23.4316C2.40092 21.551 2 19.5355 2 17.5C2 13.3891 3.63303 9.44666 6.53984 6.53984C9.44666 3.63303 13.3891 2 17.5 2C21.6109 2 25.5533 3.63303 28.4602 6.53984C31.367 9.44666 33 13.3891 33 17.5Z" stroke="#5D91FE" stroke-width="3" stroke-linecap="round" stroke-linejoin="round"/>
</svg>
