<svg width="28" height="37" viewBox="0 0 28 37" fill="none" xmlns="http://www.w3.org/2000/svg">
<path d="M3.43603 0.195117C3.63342 0.130078 3.86736 0.0650391 3.94778 0.0505859C4.0282 0.0289062 7.08407 0.0144531 17.3995 0L17.3629 10.8398L28 10.876V33.0615L27.8026 33.6396C27.6929 33.9576 27.4809 34.4201 27.3274 34.673C27.1739 34.9188 26.8668 35.3018 26.6475 35.5258C26.4282 35.7498 26.0992 36.0316 25.9164 36.1545C25.7337 36.2773 25.3901 36.4652 25.1488 36.5809C24.9076 36.6893 24.5128 36.8266 24.2715 36.8916C23.8841 36.9855 22.6266 37 14 37C5.4611 37 4.10862 36.9855 3.72846 36.8916C3.48721 36.8338 3.02663 36.6531 2.70496 36.4941C2.38329 36.3424 1.97389 36.0895 1.79112 35.9377C1.60836 35.7859 1.33786 35.533 1.19164 35.374C1.04543 35.215 0.811488 34.8898 0.665274 34.6514C0.51906 34.4129 0.30705 33.9576 0 33.0615V3.93848L0.197389 3.36035C0.30705 3.04238 0.51906 2.57988 0.672585 2.33418C0.82611 2.08848 1.06736 1.76328 1.20627 1.61152C1.35248 1.45977 1.63029 1.19961 1.82768 1.0334C2.03238 0.867188 2.3906 0.635938 2.63185 0.520312C2.87311 0.404687 3.23133 0.25293 3.43603 0.195117Z" fill="#0263D1"/>
<path d="M27.6919 10.5869C27.5311 10.4279 26.6392 9.50293 25.7034 8.52734L24 6.75684L25.5426 8.31055C26.3906 9.16328 27.2898 10.0955 27.5384 10.3701C27.7869 10.6447 27.8601 10.7459 27.6919 10.5869Z" fill="white"/>
<path d="M17.3491 5.50664C17.3417 2.57266 17.3637 0.144531 17.4002 0.122852C17.4368 0.0939453 17.4806 0.0722656 17.5026 0.0722656C17.5318 0.0722656 18.0436 0.585352 18.6431 1.21406C19.2498 1.83555 20.69 3.33867 21.8598 4.55273C23.0222 5.7668 24.7329 7.5373 25.654 8.49121C26.5825 9.44512 27.4671 10.3629 27.9276 10.8398H17.3637L17.3491 5.50664Z" fill="#4E92DF"/>
<path d="M12.1509 20.574C12.3629 20.4656 12.6627 20.35 12.8162 20.3066H12.8089C12.9624 20.2705 13.4303 20.2488 13.8543 20.256C14.5488 20.2705 14.6658 20.2922 15.1117 20.509C15.3895 20.6318 15.7624 20.8848 15.9525 21.0582C16.1499 21.2316 16.3911 21.5351 16.5008 21.723C16.6104 21.9181 16.7493 22.2723 16.8078 22.5107C16.8736 22.7492 16.9248 23.125 16.9248 23.3418C16.9248 23.5586 16.8736 23.9271 16.8151 24.1512C16.7566 24.3824 16.6324 24.7076 16.5446 24.8738C16.4569 25.0472 16.2157 25.358 15.9963 25.5603C15.7697 25.7916 15.4042 26.0373 15.1117 26.1746C14.695 26.3697 14.5123 26.4058 13.9274 26.4348C13.3645 26.4637 13.1378 26.442 12.7211 26.3191C12.436 26.2324 12.0266 26.0445 11.8073 25.8928C11.588 25.741 11.2882 25.4519 11.1347 25.2568C10.9812 25.0545 10.7911 24.7221 10.7107 24.5125C10.6303 24.3101 10.5425 23.9199 10.5206 23.6525C10.4987 23.3779 10.5133 22.966 10.5572 22.7275C10.601 22.489 10.7253 22.1133 10.835 21.8965C10.9446 21.6797 11.2005 21.3328 11.3979 21.1305C11.6026 20.9281 11.9462 20.6752 12.1509 20.574Z" fill="white"/>
<path d="M18.6282 20.8486C18.8329 20.6896 19.2204 20.4873 19.4835 20.3933C19.8929 20.256 20.083 20.2344 20.7702 20.2488C21.4867 20.2705 21.6256 20.2994 22.0496 20.4945C22.3128 20.6174 22.6564 20.8414 22.8099 21.0004C22.9707 21.1521 23.1754 21.4412 23.2705 21.6435C23.3582 21.8387 23.4386 22.0844 23.4386 22.1855C23.4386 22.3517 23.4021 22.3734 22.8026 22.489C22.4444 22.5613 22.1081 22.6191 22.0496 22.6191C21.9911 22.6191 21.8888 22.4963 21.8157 22.3517C21.7499 22.2 21.5963 21.9904 21.4721 21.8748C21.3478 21.7664 21.1211 21.6435 20.9676 21.6002C20.8214 21.5568 20.5509 21.5351 20.3681 21.564C20.1781 21.5857 19.9076 21.6941 19.7248 21.8242C19.5566 21.9398 19.3446 22.1783 19.2569 22.3445C19.118 22.5974 19.0888 22.7709 19.0888 23.3056C19.0888 23.8621 19.118 24.0139 19.2788 24.3535C19.4397 24.6787 19.5347 24.7799 19.8271 24.9244C20.0245 25.0183 20.3023 25.1123 20.4412 25.134C20.5801 25.1484 20.8287 25.1267 20.9895 25.0762C21.1504 25.0256 21.377 24.9027 21.4867 24.7943C21.6036 24.6931 21.7425 24.498 21.9034 24.1367L22.6491 24.3246C23.0658 24.4258 23.4167 24.5197 23.4386 24.5414C23.4606 24.5558 23.4094 24.7221 23.3363 24.9172C23.2559 25.1051 23.0585 25.4014 22.8976 25.5748C22.7295 25.7482 22.4663 25.965 22.3055 26.059C22.1446 26.1529 21.8303 26.283 21.611 26.3408C21.3916 26.3986 20.9457 26.4492 20.624 26.4492C20.2439 26.4492 19.871 26.3986 19.564 26.3119C19.3008 26.2324 18.906 26.0373 18.6867 25.8855C18.4674 25.7265 18.1603 25.4303 18.0141 25.2135C17.8679 24.9967 17.6851 24.6281 17.6193 24.3896C17.5389 24.115 17.4877 23.7248 17.495 23.3056C17.495 22.8287 17.5389 22.5324 17.6632 22.1855C17.7509 21.9254 17.9191 21.5857 18.036 21.4267C18.153 21.2678 18.4162 21.0076 18.6282 20.8486Z" fill="white"/>
<path d="M4.50391 26.3769V23.3418V20.3066H5.94412C7.06265 20.3066 7.47936 20.3283 7.79372 20.4223C8.01304 20.4873 8.32009 20.6029 8.46631 20.6752C8.61983 20.7474 8.89764 20.9498 9.08041 21.1232C9.27049 21.2894 9.51174 21.6146 9.62871 21.8459C9.74568 22.0699 9.87727 22.4963 9.92845 22.7781C9.98694 23.1611 9.99425 23.443 9.93576 23.8115C9.89921 24.0933 9.76761 24.5269 9.65064 24.7799C9.51905 25.0617 9.30704 25.358 9.10965 25.5459C8.92688 25.7121 8.64177 25.9144 8.46631 26.0012C8.29816 26.0879 7.96918 26.2107 7.73524 26.2685C7.4355 26.348 6.93106 26.3769 4.50391 26.3769Z" fill="white"/>
<path d="M12.6266 21.9904C12.7582 21.8676 12.9848 21.7158 13.1237 21.6508C13.2773 21.5857 13.5405 21.5424 13.789 21.5568C14.0961 21.5641 14.2788 21.6219 14.5566 21.7881C14.8271 21.9543 14.966 22.1061 15.1123 22.4023C15.2804 22.7275 15.317 22.8937 15.317 23.3418C15.317 23.7176 15.2731 23.9705 15.1781 24.1728C15.1049 24.3318 14.966 24.5486 14.871 24.6498C14.776 24.751 14.5859 24.8883 14.4543 24.9533C14.33 25.0184 14.0814 25.0978 13.9133 25.1195C13.7378 25.1412 13.4527 25.1268 13.27 25.0762C13.0433 25.0184 12.8386 24.8883 12.612 24.657C12.3781 24.4186 12.2465 24.209 12.1807 23.9561C12.1149 23.732 12.0929 23.4213 12.1149 23.125C12.1368 22.8648 12.2099 22.5541 12.2684 22.4385C12.3269 22.3156 12.4877 22.1205 12.6266 21.9904Z" fill="#0263D1"/>
<path d="M6.10547 25.0762V23.3418V21.6074H6.48563C6.69764 21.6074 7.04855 21.658 7.25325 21.7158C7.50912 21.7881 7.73576 21.9182 7.91852 22.0916C8.06474 22.2434 8.23288 22.4963 8.27675 22.6553C8.32792 22.8143 8.37179 23.1394 8.37179 23.3779C8.37179 23.6887 8.32061 23.9199 8.18902 24.1873C8.07205 24.4402 7.91121 24.6353 7.72845 24.751C7.58223 24.8449 7.31174 24.9605 7.12897 24.9967C6.9462 25.04 6.64646 25.0762 6.10547 25.0762Z" fill="#0263D1"/>
</svg>
