<svg width="28" height="37" viewBox="0 0 28 37" fill="none" xmlns="http://www.w3.org/2000/svg">
<path d="M3.32637 0.231334C3.58956 0.151813 3.86736 0.0650626 3.94778 0.0506042C4.0282 0.0289167 7.08407 0.0144584 17.3995 0L17.3629 10.8438L28 10.8799V33.0735L27.8026 33.6518C27.6929 33.9699 27.4809 34.4253 27.3347 34.6639C27.1885 34.9025 26.9546 35.2278 26.8084 35.3868C26.6621 35.5459 26.3478 35.835 26.1065 36.0302C25.858 36.2182 25.4632 36.4712 25.2219 36.5796C24.9807 36.6881 24.5567 36.8327 24.2715 36.8977C23.8037 37.0062 22.8313 37.0206 3.80157 36.9772L3.25326 36.7676C2.95352 36.6519 2.49295 36.4206 2.22976 36.2543C1.96658 36.088 1.5718 35.77 1.35248 35.5459C1.13316 35.3145 0.82611 34.9314 0.672585 34.6856C0.51906 34.4326 0.30705 33.9699 0 33.0735V18.579C0 6.64361 0.0146214 4.01219 0.10235 3.68688C0.153525 3.47 0.321671 3.02902 0.475196 2.71094C0.628721 2.39286 0.913838 1.95188 1.10392 1.735C1.29399 1.51813 1.61567 1.20727 1.82037 1.041C2.02507 0.881959 2.33943 0.665084 2.52219 0.563876C2.70496 0.462667 3.06319 0.310855 3.32637 0.231334Z" fill="#E5252A"/>
<path d="M25.6119 8.38585C25.5972 8.38585 25.2463 8.03885 24.8223 7.61232L24.0547 6.83157L24.8442 7.59064C25.2756 8.00993 25.6265 8.35693 25.6265 8.37139C25.6265 8.37862 25.6192 8.38585 25.6119 8.38585Z" fill="white"/>
<path d="M27.7758 10.663C27.6516 10.5474 27.1325 10.0124 26.6134 9.47022C25.6704 8.49428 25.6704 8.49428 26.4599 9.25335C26.8912 9.67264 27.4103 10.2076 27.615 10.4462C27.827 10.6847 27.8928 10.7859 27.7758 10.663Z" fill="white"/>
<path d="M17.3491 5.50864C17.3417 2.57359 17.3637 0.144588 17.4002 0.1229C17.4368 0.0939837 17.4806 0.0722961 17.4953 0.0722961C17.5172 0.0722961 17.9485 0.506047 18.4603 1.02655C18.972 1.55428 20.1417 2.76878 21.0629 3.72303C21.984 4.67728 23.7605 6.52072 25.0034 7.80751C26.2535 9.10154 27.4232 10.316 27.9276 10.851L17.3637 10.8438L17.3491 5.50864Z" fill="#ED676A"/>
<path d="M5.44531 27.6155V24.2177V20.82H6.81972C7.57273 20.82 8.42808 20.8562 8.7132 20.8923C9.00563 20.9357 9.37116 21.0224 9.51737 21.102C9.6709 21.1743 9.90484 21.3261 10.0364 21.4417C10.1753 21.5574 10.3727 21.8321 10.4751 22.049C10.6359 22.3815 10.6725 22.5406 10.6725 23.0249C10.6652 23.4442 10.6286 23.69 10.5189 23.9286C10.4385 24.1093 10.2411 24.384 10.0803 24.5358C9.92677 24.6949 9.64897 24.8901 9.4662 24.9696C9.1957 25.0925 8.95445 25.1214 7.19988 25.1575V27.6155H5.44531Z" fill="white"/>
<path d="M11.4401 27.6155L11.4547 24.2105L11.462 20.7983L13.0046 20.8417C14.05 20.8706 14.6787 20.9212 14.9492 20.9935C15.1685 21.0586 15.5122 21.1887 15.7169 21.2827C15.9142 21.3839 16.2432 21.6008 16.4406 21.7743C16.6672 21.9767 16.8793 22.2586 17.0401 22.5912C17.2302 22.9599 17.3179 23.2707 17.3764 23.7478C17.4422 24.2973 17.4422 24.4852 17.3398 24.9768C17.274 25.2949 17.1351 25.7142 17.0401 25.9166C16.9377 26.1118 16.7184 26.4226 16.543 26.5961C16.3675 26.7624 16.097 26.9865 15.9362 27.0805C15.7753 27.1745 15.4464 27.3191 15.2051 27.4058C14.8103 27.5504 14.5983 27.5721 11.4401 27.6155Z" fill="white"/>
<path d="M18.3195 27.6227V24.225V20.8273H23.1445V22.3454H20.074V23.4298H22.5597V24.8756H20.074V27.6227H18.3195Z" fill="white"/>
<path d="M23.1899 21.9044C23.1753 22.1213 23.168 21.9767 23.168 21.5791C23.168 21.1815 23.1753 21.0008 23.1899 21.1815C23.2045 21.3622 23.2045 21.6875 23.1899 21.9044Z" fill="#ED676A"/>
<path d="M7.19922 23.7117V23.0249V22.3382H7.85718C8.49321 22.3382 8.52246 22.3454 8.73447 22.555C8.8953 22.7141 8.95379 22.837 8.95379 23.0249C8.95379 23.1912 8.8953 23.3502 8.77833 23.4731C8.61019 23.6611 8.55901 23.6756 7.19922 23.7117Z" fill="#E5252A"/>
<path d="M13.1209 26.1335L13.1282 24.225L13.1355 22.3237L13.735 22.3454C14.2175 22.3671 14.4076 22.4105 14.7512 22.5912C15.0071 22.7213 15.2483 22.9093 15.3507 23.0611C15.4457 23.1984 15.5627 23.4948 15.6138 23.7117C15.6577 23.9286 15.6796 24.2539 15.6504 24.4346C15.6285 24.6153 15.5627 24.9045 15.4969 25.0852C15.4311 25.266 15.2922 25.4973 15.1825 25.613C15.0728 25.7214 14.8243 25.8805 14.6196 25.96C14.371 26.0684 14.0786 26.119 13.1209 26.1335Z" fill="#E5252A"/>
</svg>
