<svg width="28" height="37" viewBox="0 0 28 37" fill="none" xmlns="http://www.w3.org/2000/svg">
<path d="M17.349 5.50664C17.3417 2.3414 17.3637 0.144528 17.4075 0.115622C17.4441 0.0794889 17.9924 0.585348 18.6284 1.23574C19.2644 1.88613 21.3699 4.06133 23.3073 6.06308C25.2446 8.06484 27.0723 9.9582 27.8911 10.8398H17.3637L17.349 5.50664Z" fill="#4D9D76"/>
<path d="M2.14935 0.831055C2.50757 0.592578 2.92428 0.390234 3.39217 0.238477L4.09399 0.00722656L17.3995 0L17.3629 10.8398L28 10.876V21.8604C28 32.1076 27.9927 32.8736 27.8684 33.3145C27.8026 33.5746 27.6125 34.0443 27.459 34.3623C27.2909 34.702 26.9911 35.1355 26.7426 35.4029C26.5086 35.6559 26.1211 35.9955 25.8799 36.1545C25.6386 36.3207 25.295 36.5158 25.1123 36.5881C24.9295 36.6676 24.564 36.7904 24.2935 36.8627C23.8183 36.9928 23.3138 37 4.1671 37L3.47258 36.7904C3.0047 36.6459 2.5953 36.458 2.22976 36.2195C1.93003 36.0244 1.49138 35.6559 1.25744 35.4029C1.00888 35.1283 0.709138 34.702 0.540992 34.3623C0.387467 34.0443 0.197389 33.5746 0.131593 33.3145C0.0073107 32.8736 0 31.9486 0 18.5C0 5.05137 0.0073107 4.12637 0.131593 3.68555C0.197389 3.42539 0.387467 2.95566 0.540992 2.6377C0.701828 2.31973 1.00888 1.86445 1.2282 1.62598C1.44021 1.3875 1.85692 1.0334 2.14935 0.831055Z" fill="#00733B"/>
<path d="M23.5045 6.21484C23.4825 6.21484 23.2559 6.00527 22.9927 5.74512C22.7295 5.48496 22.5468 5.27539 22.576 5.27539C22.6126 5.27539 22.8392 5.48496 23.0878 5.74512C23.3363 6.00527 23.5264 6.21484 23.5045 6.21484Z" fill="white"/>
<path d="M27.4157 10.2979C27.1013 9.97988 26.1875 9.04043 25.3833 8.20215L23.9285 6.68457L25.3614 8.12988C26.1509 8.9248 27.0648 9.87148 27.9786 10.876L27.4157 10.2979Z" fill="white"/>
<path d="M18.3797 20.509C18.482 20.4439 18.7306 20.3428 18.928 20.2777C19.1912 20.1982 19.4982 20.1693 19.988 20.1838C20.5583 20.2055 20.763 20.2416 21.1212 20.4078C21.3624 20.5162 21.6695 20.6824 21.8011 20.7836C21.9327 20.8775 22.1374 21.1305 22.2543 21.34C22.3786 21.5424 22.4737 21.7447 22.481 21.7881C22.481 21.8314 22.1666 21.9977 21.7865 22.1711C21.399 22.3373 21.0554 22.4746 21.0115 22.4746C20.975 22.4746 20.8726 22.3445 20.7922 22.1855C20.7118 22.0266 20.5436 21.8314 20.412 21.752C20.2731 21.6652 20.0465 21.6074 19.8637 21.6074C19.6883 21.6074 19.4763 21.6436 19.3885 21.6869C19.2935 21.7375 19.1985 21.8098 19.1692 21.8531C19.14 21.8965 19.1181 21.9904 19.1181 22.0627C19.1107 22.1277 19.1838 22.2506 19.2789 22.3301C19.3739 22.4096 19.7248 22.5396 20.0977 22.6264C20.4632 22.7059 20.9896 22.8793 21.2674 23.0094C21.6037 23.1611 21.8669 23.3418 22.0204 23.5297C22.152 23.6814 22.3055 23.9561 22.3713 24.1367C22.4298 24.3174 22.481 24.6715 22.481 24.9316C22.481 25.3002 22.4371 25.4809 22.2763 25.7916C22.1666 26.0084 21.9765 26.2613 21.8523 26.3625C21.7353 26.4564 21.4867 26.6154 21.304 26.7021C21.1285 26.7961 20.763 26.9117 20.4998 26.9551C20.2147 27.0129 19.8418 27.0273 19.5494 26.9984C19.2862 26.9768 18.8987 26.8684 18.6721 26.7672C18.4528 26.666 18.1384 26.4709 17.9776 26.3408C17.8167 26.2107 17.5974 25.9434 17.4951 25.7555C17.3854 25.5603 17.2758 25.2785 17.21 24.8594L17.8533 24.6715C18.2042 24.5703 18.5259 24.4764 18.5624 24.4691C18.6063 24.4547 18.7233 24.6137 18.8183 24.816C18.928 25.04 19.1034 25.2496 19.257 25.3508C19.4032 25.4375 19.6298 25.5314 19.7687 25.5604C19.9149 25.582 20.1489 25.5604 20.3024 25.517C20.5071 25.4592 20.6021 25.3725 20.6752 25.2062C20.7337 25.0762 20.7556 24.9027 20.7337 24.8305C20.7045 24.751 20.6167 24.6426 20.5363 24.5775C20.4559 24.5125 20.1415 24.3896 19.8418 24.2957C19.5421 24.2018 19.0669 24.0428 18.7818 23.9344C18.4308 23.8043 18.1677 23.6381 17.941 23.4141C17.7071 23.1828 17.5755 22.9805 17.5024 22.7275C17.4512 22.5324 17.4073 22.2072 17.4073 22.0049C17.4147 21.7953 17.4805 21.5207 17.5609 21.3545C17.6486 21.1955 17.8241 20.9643 17.9556 20.8414C18.0872 20.7186 18.2846 20.574 18.3797 20.509Z" fill="white"/>
<path d="M6.66061 21.7014C6.19273 20.9354 5.80526 20.2922 5.80526 20.2705C5.80526 20.2488 6.20735 20.2344 7.59638 20.2344L8.07158 21.0221C8.33476 21.4557 8.5687 21.8025 8.58333 21.7881C8.60526 21.7809 8.82458 21.4268 9.53372 20.2344H11.3614L11.164 20.5812C11.0543 20.7691 10.6449 21.4484 10.2502 22.0988C9.85539 22.742 9.54103 23.3129 9.54103 23.3635C9.54103 23.4068 9.97967 24.1801 10.5207 25.0762C11.0617 25.9723 11.5149 26.76 11.5442 26.8322C11.5807 26.9478 11.5076 26.9551 9.82615 26.9551L9.22667 25.9434C8.89038 25.3869 8.60526 24.9316 8.58333 24.9316C8.5687 24.9316 8.26897 25.3869 7.30395 26.9623L6.4486 26.9551C5.92223 26.9551 5.58594 26.9262 5.58594 26.8828C5.58594 26.8395 6.05382 26.0373 6.61675 25.0978C7.45748 23.6887 7.63293 23.349 7.57445 23.2334C7.5379 23.1539 7.1285 22.4602 6.66061 21.7014Z" fill="white"/>
<path d="M12.3118 26.9551V23.5947V20.2344H13.9932L14.0298 25.4736L16.9906 25.5098V26.9551H12.3118Z" fill="white"/>
</svg>
