<svg width="24" height="24" viewBox="0 0 24 24" fill="none" xmlns="http://www.w3.org/2000/svg">
<path d="M2.25 7.125C2.25 6.504 2.754 6 3.375 6H9.375C9.996 6 10.5 6.504 10.5 7.125V10.875C10.5 11.496 9.996 12 9.375 12H3.375C3.07663 12 2.79048 11.8815 2.5795 11.6705C2.36853 11.4595 2.25 11.1734 2.25 10.875V7.125ZM14.25 8.625C14.25 8.004 14.754 7.5 15.375 7.5H20.625C21.246 7.5 21.75 8.004 21.75 8.625V16.875C21.75 17.496 21.246 18 20.625 18H15.375C15.0766 18 14.7905 17.8815 14.5795 17.6705C14.3685 17.4595 14.25 17.1734 14.25 16.875V8.625ZM3.75 16.125C3.75 15.504 4.254 15 4.875 15H10.125C10.746 15 11.25 15.504 11.25 16.125V18.375C11.25 18.996 10.746 19.5 10.125 19.5H4.875C4.57663 19.5 4.29048 19.3815 4.0795 19.1705C3.86853 18.9595 3.75 18.6734 3.75 18.375V16.125Z" stroke="url(#paint0_linear_173_1881)" stroke-width="1.5" stroke-linecap="round" stroke-linejoin="round"/>
<defs>
<linearGradient id="paint0_linear_173_1881" x1="12" y1="6" x2="12" y2="19.5" gradientUnits="userSpaceOnUse">
<stop offset="0.167024" stop-color="#ACC7FF"/>
<stop offset="1" stop-color="#5D91FE"/>
</linearGradient>
</defs>
</svg>
