<svg width="26" height="26" viewBox="0 0 26 26" fill="none" xmlns="http://www.w3.org/2000/svg">
<path d="M2.4375 7.71857C2.4375 7.04582 2.9835 6.49982 3.65625 6.49982H10.1563C10.829 6.49982 11.375 7.04582 11.375 7.71857V11.7811C11.375 12.4538 10.829 12.9998 10.1563 12.9998H3.65625C3.33302 12.9998 3.02302 12.8714 2.79446 12.6429C2.5659 12.4143 2.4375 12.1043 2.4375 11.7811V7.71857ZM15.4375 9.34357C15.4375 8.67082 15.9835 8.12482 16.6563 8.12482H22.3438C23.0165 8.12482 23.5625 8.67082 23.5625 9.34357V18.2811C23.5625 18.9538 23.0165 19.4998 22.3438 19.4998H16.6563C16.333 19.4998 16.023 19.3714 15.7945 19.1429C15.5659 18.9143 15.4375 18.6043 15.4375 18.2811V9.34357ZM4.0625 17.4686C4.0625 16.7958 4.6085 16.2498 5.28125 16.2498H10.9688C11.6415 16.2498 12.1875 16.7958 12.1875 17.4686V19.9061C12.1875 20.5788 11.6415 21.1248 10.9688 21.1248H5.28125C4.95802 21.1248 4.64802 20.9964 4.41946 20.7679C4.1909 20.5393 4.0625 20.2293 4.0625 19.9061V17.4686Z" stroke="#373737" stroke-width="1.5" stroke-linecap="round" stroke-linejoin="round"/>
</svg>
