<svg width="23" height="23" viewBox="0 0 23 23" fill="none" xmlns="http://www.w3.org/2000/svg">
<path d="M5.03125 13.4837H17.9687M5.03125 13.4837C4.26875 13.4837 3.53749 13.2051 2.99832 12.709C2.45915 12.213 2.15625 11.5402 2.15625 10.8387M5.03125 13.4837C4.26875 13.4837 3.53749 13.7624 2.99832 14.2585C2.45915 14.7545 2.15625 15.4273 2.15625 16.1287C2.15625 16.8302 2.45915 17.503 2.99832 17.999C3.53749 18.4951 4.26875 18.7737 5.03125 18.7737H17.9687C18.7312 18.7737 19.4625 18.4951 20.0017 17.999C20.5408 17.503 20.8437 16.8302 20.8437 16.1287C20.8437 15.4273 20.5408 14.7545 20.0017 14.2585C19.4625 13.7624 18.7312 13.4837 17.9687 13.4837M17.9687 13.4837C18.7312 13.4837 19.4625 13.2051 20.0017 12.709C20.5408 12.213 20.8437 11.5402 20.8437 10.8387M2.15625 10.8387C2.15625 10.1373 2.45915 9.46449 2.99832 8.96845C3.53749 8.47242 4.26875 8.19375 5.03125 8.19375H17.9687C18.7312 8.19375 19.4625 8.47242 20.0017 8.96845C20.5408 9.46449 20.8437 10.1373 20.8437 10.8387M2.15625 10.8387C2.15625 9.9803 2.45889 9.14501 3.01875 8.45825L5.49796 5.4165C5.79923 5.04694 6.18989 4.74699 6.639 4.54039C7.08811 4.3338 7.58334 4.22625 8.08546 4.22625H14.9145C15.9323 4.22625 16.8906 4.66708 17.502 5.4165L19.9812 8.45825C20.5411 9.14501 20.8437 9.9803 20.8437 10.8387M17.9687 16.1287H17.9764V16.1358H17.9687V16.1287ZM17.9687 10.8387H17.9764V10.8458H17.9687V10.8387ZM15.0937 16.1287H15.1014V16.1358H15.0937V16.1287ZM15.0937 10.8387H15.1014V10.8458H15.0937V10.8387Z" stroke="url(#paint0_linear_173_1892)" stroke-width="1.5" stroke-linecap="round" stroke-linejoin="round"/>
<defs>
<linearGradient id="paint0_linear_173_1892" x1="11.5" y1="4.22625" x2="11.5" y2="18.7737" gradientUnits="userSpaceOnUse">
<stop offset="0.167024" stop-color="#ACC7FF"/>
<stop offset="1" stop-color="#5D91FE"/>
</linearGradient>
</defs>
</svg>
