<svg width="19" height="18" viewBox="0 0 19 18" fill="none" xmlns="http://www.w3.org/2000/svg">
<path d="M9.5 2.25C11.5663 2.25 13.5913 2.424 15.5623 2.7585C15.962 2.826 16.25 3.1755 16.25 3.5805V4.3635C16.25 4.58511 16.2064 4.80455 16.1216 5.00928C16.0367 5.21402 15.9124 5.40005 15.7557 5.55675L11.6818 9.63075C11.5251 9.78745 11.4008 9.97348 11.3159 10.1782C11.2311 10.383 11.1875 10.6024 11.1875 10.824V13.0193C11.1876 13.3327 11.1003 13.64 10.9355 13.9067C10.7707 14.1734 10.5349 14.3888 10.2545 14.529L7.8125 15.75V10.824C7.8125 10.6024 7.76886 10.383 7.68405 10.1782C7.59925 9.97348 7.47495 9.78745 7.31825 9.63075L3.24425 5.55675C3.08755 5.40005 2.96325 5.21402 2.87845 5.00928C2.79364 4.80455 2.75 4.58511 2.75 4.3635V3.5805C2.75 3.1755 3.038 2.826 3.43775 2.7585C5.44068 2.41939 7.46857 2.24929 9.5 2.25Z" stroke="#5D91FE" stroke-width="1.5" stroke-linecap="round" stroke-linejoin="round"/>
</svg>
