<svg width="22" height="21" viewBox="0 0 22 21" fill="none" xmlns="http://www.w3.org/2000/svg">
<path d="M3.94922 18.2735C4.14968 18.2735 4.33749 18.351 4.47266 18.4825C4.60711 18.6134 4.67871 18.7867 4.67871 18.9619C4.67861 19.1371 4.60701 19.3096 4.47266 19.4405C4.33748 19.572 4.14974 19.6504 3.94922 19.6504C3.74857 19.6504 3.56002 19.5721 3.4248 19.4405C3.29058 19.3096 3.21983 19.137 3.21973 18.9619C3.21973 18.7867 3.29042 18.6134 3.4248 18.4825C3.56002 18.3508 3.74857 18.2735 3.94922 18.2735ZM17.376 18.2735C17.5765 18.2735 17.7642 18.351 17.8994 18.4825C18.0339 18.6134 18.1055 18.7867 18.1055 18.9619C18.1054 19.1371 18.0338 19.3096 17.8994 19.4405C17.7642 19.572 17.5765 19.6504 17.376 19.6504C17.1754 19.6504 16.9877 19.572 16.8525 19.4405C16.7182 19.3096 16.6466 19.1371 16.6465 18.9619C16.6465 18.7867 16.7181 18.6134 16.8525 18.4825C16.9877 18.351 17.1755 18.2735 17.376 18.2735ZM4.41699 3.66702C10.0468 3.56713 15.6647 4.1999 21.1221 5.54788C20.272 8.00055 19.2634 10.3985 18.1006 12.7266H6.36035L6.14453 11.9375L3.88184 3.67581L4.41699 3.66702Z" stroke="white" stroke-width="1.7"/>
</svg>
