<svg width="22" height="20" viewBox="0 0 22 20" fill="none" xmlns="http://www.w3.org/2000/svg">
<path d="M3.94922 17.7736C4.14968 17.7736 4.33749 17.8511 4.47266 17.9826C4.60711 18.1135 4.67871 18.2868 4.67871 18.4621C4.67861 18.6372 4.60701 18.8097 4.47266 18.9406C4.33748 19.0722 4.14974 19.1505 3.94922 19.1506C3.74857 19.1506 3.56002 19.0723 3.4248 18.9406C3.29058 18.8098 3.21983 18.6371 3.21973 18.4621C3.21973 18.2869 3.29042 18.1135 3.4248 17.9826C3.56002 17.8509 3.74857 17.7736 3.94922 17.7736ZM17.376 17.7736C17.5765 17.7736 17.7642 17.8511 17.8994 17.9826C18.0339 18.1135 18.1055 18.2868 18.1055 18.4621C18.1054 18.6372 18.0338 18.8097 17.8994 18.9406C17.7642 19.0722 17.5765 19.1506 17.376 19.1506C17.1754 19.1506 16.9877 19.0722 16.8525 18.9406C16.7182 18.8097 16.6466 18.6372 16.6465 18.4621C16.6465 18.2868 16.7181 18.1135 16.8525 17.9826C16.9877 17.8511 17.1755 17.7736 17.376 17.7736ZM4.41699 3.16716C10.0468 3.06727 15.6647 3.70003 21.1221 5.04802C20.272 7.50069 19.2634 9.89862 18.1006 12.2267H6.36035L6.14453 11.4377L3.88184 3.17595L4.41699 3.16716Z" stroke="black" stroke-width="1.7"/>
</svg>
