<svg width="40" height="40" viewBox="0 0 40 40" fill="none" xmlns="http://www.w3.org/2000/svg">
<path d="M17.238 6.56667C17.388 5.66333 18.1714 5 19.088 5H20.9097C21.8264 5 22.6097 5.66333 22.7597 6.56667L23.008 8.05667C23.1247 8.76333 23.648 9.33 24.308 9.60667C24.9714 9.88 25.733 9.84333 26.3164 9.42667L27.5447 8.54833C27.906 8.29009 28.3472 8.16845 28.7897 8.20508C29.2323 8.2417 29.6475 8.43422 29.9614 8.74833L31.2497 10.0383C31.8997 10.6867 31.983 11.7083 31.4497 12.455L30.5714 13.6833C30.1547 14.2667 30.118 15.0267 30.393 15.69C30.668 16.3517 31.2347 16.8733 31.943 16.99L33.4314 17.24C34.3364 17.39 34.998 18.1717 34.998 19.0883V20.9117C34.998 21.8283 34.3364 22.6117 33.4314 22.7617L31.9414 23.01C31.2347 23.1267 30.668 23.6483 30.393 24.31C30.118 24.9733 30.1547 25.7333 30.5714 26.3167L31.4497 27.5467C31.983 28.2917 31.898 29.3133 31.2497 29.9633L29.9597 31.2517C29.6459 31.5654 29.231 31.7576 28.7889 31.7942C28.3467 31.8308 27.9058 31.7095 27.5447 31.4517L26.3147 30.5733C25.7314 30.1567 24.9714 30.12 24.3097 30.395C23.6464 30.67 23.1264 31.2367 23.008 31.9433L22.7597 33.4333C22.6097 34.3367 21.8264 35 20.9097 35H19.0864C18.1697 35 17.388 34.3367 17.2364 33.4333L16.9897 31.9433C16.8714 31.2367 16.3497 30.67 15.688 30.3933C15.0247 30.12 14.2647 30.1567 13.6814 30.5733L12.4514 31.4517C11.7064 31.985 10.6847 31.9 10.0347 31.2517L8.74638 29.9617C8.43226 29.6478 8.23975 29.2326 8.20312 28.79C8.1665 28.3475 8.28814 27.9063 8.54638 27.545L9.42471 26.3167C9.84138 25.7333 9.87805 24.9733 9.60471 24.31C9.32971 23.6483 8.76138 23.1267 8.05471 23.01L6.56471 22.76C5.66138 22.61 4.99805 21.8267 4.99805 20.9117V19.0883C4.99805 18.1717 5.66138 17.3883 6.56471 17.2383L8.05471 16.99C8.76138 16.8733 9.32971 16.3517 9.60471 15.69C9.87971 15.0267 9.84305 14.2667 9.42471 13.6833L8.54805 12.4533C8.2898 12.0921 8.16817 11.6509 8.20479 11.2083C8.24142 10.7658 8.43393 10.3506 8.74805 10.0367L10.0364 8.74833C10.3503 8.43422 10.7655 8.2417 11.208 8.20508C11.6506 8.16845 12.0918 8.29009 12.453 8.54833L13.6814 9.42667C14.2647 9.84333 15.0264 9.88 15.688 9.605C16.3497 9.33 16.8714 8.76333 16.988 8.05667L17.238 6.56667Z" stroke="#5D91FE" stroke-width="1.95122" stroke-linecap="round" stroke-linejoin="round"/>
<path d="M25 20C25 21.3261 24.4732 22.5979 23.5355 23.5355C22.5979 24.4732 21.3261 25 20 25C18.6739 25 17.4021 24.4732 16.4645 23.5355C15.5268 22.5979 15 21.3261 15 20C15 18.6739 15.5268 17.4021 16.4645 16.4645C17.4021 15.5268 18.6739 15 20 15C21.3261 15 22.5979 15.5268 23.5355 16.4645C24.4732 17.4021 25 18.6739 25 20Z" stroke="#5D91FE" stroke-width="1.95122" stroke-linecap="round" stroke-linejoin="round"/>
</svg>
