<svg width="35" height="27" viewBox="0 0 35 27" fill="none" xmlns="http://www.w3.org/2000/svg">
<path d="M17.5088 21.0102V9.78317M17.5088 9.78317L22.4321 14.773M17.5088 9.78317L12.5855 14.773M8.89299 26C7.13608 26.0019 5.43604 25.369 4.09818 24.2148C2.76031 23.0606 1.87228 21.4608 1.59355 19.7027C1.31481 17.9447 1.66365 16.1435 2.5774 14.6226C3.49116 13.1017 4.90997 11.9609 6.57904 11.4049C6.15022 9.17803 6.59341 6.86947 7.81476 4.96805C9.03611 3.06663 10.9397 1.72166 13.1225 1.21795C15.3052 0.714236 17.5957 1.09134 19.5089 2.2694C21.4221 3.44746 22.8077 5.33398 23.3724 7.52945C24.2455 7.24167 25.1806 7.20704 26.0721 7.42948C26.9636 7.65193 27.7759 8.12258 28.4174 8.78827C29.0588 9.45397 29.5039 10.2882 29.7022 11.1967C29.9005 12.1052 29.8442 13.0519 29.5397 13.9297C30.8832 14.4498 32.0047 15.4301 32.7096 16.7006C33.4145 17.9711 33.6584 19.4516 33.399 20.8852C33.1395 22.3189 32.3931 23.6153 31.2892 24.5496C30.1853 25.4838 28.7936 25.997 27.3554 26H8.89299Z" stroke="#9C9C9C" stroke-width="2" stroke-linecap="round" stroke-linejoin="round"/>
</svg>
