<svg width="24" height="24" viewBox="0 0 24 24" fill="none" xmlns="http://www.w3.org/2000/svg">
<path d="M21.75 8.99978V9.90578C21.75 10.312 21.64 10.7107 21.4318 11.0595C21.2235 11.4082 20.9247 11.6941 20.567 11.8868L14.089 15.3748M2.25 8.99978V9.90578C2.24998 10.312 2.35995 10.7107 2.56824 11.0595C2.77652 11.4082 3.07534 11.6941 3.433 11.8868L9.911 15.3748M9.911 15.3748L10.933 14.8248C11.2609 14.6481 11.6275 14.5557 12 14.5557C12.3725 14.5557 12.7391 14.6481 13.067 14.8248L14.09 15.3748L18.75 17.8848M9.911 15.3748L5.25 17.8848M21.75 19.4998C21.75 20.0965 21.5129 20.6688 21.091 21.0908C20.669 21.5127 20.0967 21.7498 19.5 21.7498H4.5C3.90326 21.7498 3.33097 21.5127 2.90901 21.0908C2.48705 20.6688 2.25 20.0965 2.25 19.4998V8.84378C2.24998 8.43754 2.35995 8.03887 2.56824 7.69009C2.77652 7.34131 3.07534 7.05542 3.433 6.86278L10.933 2.82378C11.2609 2.64715 11.6275 2.55469 12 2.55469C12.3725 2.55469 12.7391 2.64715 13.067 2.82378L20.567 6.86278C20.9245 7.05534 21.2232 7.34107 21.4315 7.68966C21.6398 8.03825 21.7498 8.43671 21.75 8.84278V19.4998Z" stroke="#373737" stroke-width="1.5" stroke-linecap="round" stroke-linejoin="round"/>
</svg>
