<svg width="20" height="22" viewBox="0 0 20 22" fill="none" xmlns="http://www.w3.org/2000/svg">
<path fill-rule="evenodd" clip-rule="evenodd" d="M13.5002 3.49928C13.5002 2.8019 13.7431 2.12629 14.1872 1.58859C14.6313 1.0509 15.2488 0.684725 15.9336 0.553017C16.6185 0.42131 17.3278 0.532301 17.9397 0.866908C18.5515 1.20152 19.0277 1.73883 19.2863 2.38648C19.5449 3.03413 19.5698 3.75165 19.3568 4.41568C19.1437 5.07971 18.7059 5.64875 18.1187 6.02499C17.5315 6.40122 16.8316 6.56114 16.1393 6.47724C15.447 6.39334 14.8056 6.07087 14.3252 5.56528L5.90423 10.2443C6.03289 10.7394 6.03289 11.2592 5.90423 11.7543L14.3252 16.4333C14.8285 15.9042 15.5074 15.5768 16.2348 15.5125C16.9622 15.4481 17.6881 15.6513 18.2763 16.084C18.8646 16.5166 19.2749 17.1489 19.4303 17.8624C19.5857 18.5759 19.4755 19.3215 19.1204 19.9596C18.7654 20.5977 18.1898 21.0843 17.5015 21.3283C16.8133 21.5724 16.0597 21.557 15.382 21.2851C14.7043 21.0132 14.149 20.5034 13.8202 19.8514C13.4915 19.1994 13.4118 18.4498 13.5962 17.7433L5.17523 13.0653C4.76209 13.5003 4.22801 13.8014 3.64198 13.9298C3.05595 14.0582 2.4449 14.0079 1.88773 13.7855C1.33056 13.563 0.852876 13.1787 0.516372 12.682C0.179868 12.1853 0 11.5992 0 10.9993C0 10.3994 0.179868 9.8132 0.516372 9.31654C0.852876 8.81988 1.33056 8.43551 1.88773 8.21309C2.4449 7.99066 3.05595 7.94039 3.64198 8.06877C4.22801 8.19715 4.76209 8.49828 5.17523 8.93328L13.5962 4.25428C13.5323 4.0077 13.5001 3.754 13.5002 3.49928Z" fill="#373737"/>
</svg>
