<svg width="19" height="20" viewBox="0 0 19 20" fill="none" xmlns="http://www.w3.org/2000/svg">
<path fill-rule="evenodd" clip-rule="evenodd" d="M15.5 1.75C15.8978 1.75 16.2794 1.90804 16.5607 2.18934C16.842 2.47064 17 2.85218 17 3.25V16.75C17 17.1478 16.842 17.5294 16.5607 17.8107C16.2794 18.092 15.8978 18.25 15.5 18.25H9.5C9.10218 18.25 8.72064 18.092 8.43934 17.8107C8.15804 17.5294 8 17.1478 8 16.75V13C8 12.8011 7.92098 12.6103 7.78033 12.4697C7.63968 12.329 7.44891 12.25 7.25 12.25C7.05109 12.25 6.86032 12.329 6.71967 12.4697C6.57902 12.6103 6.5 12.8011 6.5 13V16.75C6.5 17.5456 6.81607 18.3087 7.37868 18.8713C7.94129 19.4339 8.70435 19.75 9.5 19.75H15.5C16.2956 19.75 17.0587 19.4339 17.6213 18.8713C18.1839 18.3087 18.5 17.5456 18.5 16.75V3.25C18.5 2.45435 18.1839 1.69129 17.6213 1.12868C17.0587 0.566071 16.2956 0.25 15.5 0.25H9.5C8.70435 0.25 7.94129 0.566071 7.37868 1.12868C6.81607 1.69129 6.5 2.45435 6.5 3.25V7C6.5 7.19891 6.57902 7.38968 6.71967 7.53033C6.86032 7.67098 7.05109 7.75 7.25 7.75C7.44891 7.75 7.63968 7.67098 7.78033 7.53033C7.92098 7.38968 8 7.19891 8 7V3.25C8 2.85218 8.15804 2.47064 8.43934 2.18934C8.72064 1.90804 9.10218 1.75 9.5 1.75H15.5ZM10.47 6.47C10.3295 6.61063 10.2507 6.80125 10.2507 7C10.2507 7.19875 10.3295 7.38937 10.47 7.53L12.19 9.25H1.25C1.05109 9.25 0.860322 9.32902 0.71967 9.46967C0.579018 9.61032 0.5 9.80109 0.5 10C0.5 10.1989 0.579018 10.3897 0.71967 10.5303C0.860322 10.671 1.05109 10.75 1.25 10.75H12.19L10.47 12.47C10.3963 12.5387 10.3372 12.6215 10.2962 12.7135C10.2552 12.8055 10.2332 12.9048 10.2314 13.0055C10.2296 13.1062 10.2482 13.2062 10.2859 13.2996C10.3236 13.393 10.3797 13.4778 10.451 13.549C10.5222 13.6203 10.607 13.6764 10.7004 13.7141C10.7938 13.7518 10.8938 13.7704 10.9945 13.7686C11.0952 13.7668 11.1945 13.7448 11.2865 13.7038C11.3785 13.6628 11.4613 13.6037 11.53 13.53L14.53 10.53C14.6705 10.3894 14.7493 10.1988 14.7493 10C14.7493 9.80125 14.6705 9.61063 14.53 9.47L11.53 6.47C11.3894 6.32955 11.1988 6.25066 11 6.25066C10.8012 6.25066 10.6106 6.32955 10.47 6.47Z" fill="black"/>
</svg>
