<svg width="18" height="22" viewBox="0 0 18 22" fill="none" xmlns="http://www.w3.org/2000/svg">
<path d="M9 11.7324C11.0308 11.7324 12.9827 12.5447 14.4336 13.9971C15.8846 15.4497 16.7181 17.4265 16.75 19.502V19.5039C16.7502 19.5135 16.7471 19.522 16.7432 19.5283L16.7324 19.5391C14.3063 20.67 11.6689 21.2537 9.00098 21.25H9C6.24129 21.25 3.62184 20.6378 1.26758 19.5391C1.26468 19.5377 1.26064 19.5345 1.25684 19.5283C1.25293 19.522 1.24983 19.5135 1.25 19.5039V19.502C1.28191 17.4265 2.11536 15.4497 3.56641 13.9971C5.0173 12.5447 6.96923 11.7324 9 11.7324ZM9 0.75C10.0267 0.75 11.0142 1.16426 11.7441 1.90625C12.4744 2.64868 12.8866 3.65865 12.8867 4.71387C12.8867 5.76912 12.4743 6.77898 11.7441 7.52148C11.0142 8.26359 10.0268 8.67871 9 8.67871C7.97319 8.67871 6.98578 8.26359 6.25586 7.52148C5.52567 6.77898 5.11328 5.76912 5.11328 4.71387C5.11339 3.65865 5.52562 2.64868 6.25586 1.90625C6.98576 1.16426 7.97327 0.75 9 0.75Z" stroke="black" stroke-width="1.5"/>
</svg>
