<svg width="24" height="22" viewBox="0 0 24 22" fill="none" xmlns="http://www.w3.org/2000/svg">
<g clip-path="url(#clip0_654_8312)">
<path d="M11.5 4.33333V10H15.75M20 10C20 11.1162 19.7801 12.2215 19.353 13.2528C18.9258 14.2841 18.2997 15.2211 17.5104 16.0104C16.7211 16.7997 15.7841 17.4258 14.7528 17.853C13.7215 18.2801 12.6162 18.5 11.5 18.5C10.3838 18.5 9.27846 18.2801 8.24719 17.853C7.21592 17.4258 6.27889 16.7997 5.48959 16.0104C4.70029 15.2211 4.07419 14.2841 3.64702 13.2528C3.21986 12.2215 3 11.1162 3 10C3 7.74566 3.89553 5.58365 5.48959 3.98959C7.08365 2.39553 9.24566 1.5 11.5 1.5C13.7543 1.5 15.9163 2.39553 17.5104 3.98959C19.1045 5.58365 20 7.74566 20 10Z" stroke="#373737" stroke-width="1.5" stroke-linecap="round" stroke-linejoin="round"/>
</g>
<defs>
<clipPath id="clip0_654_8312">
<rect width="24" height="21" fill="white" transform="translate(0 0.5)"/>
</clipPath>
</defs>
</svg>
