<svg width="24" height="21" viewBox="0 0 24 21" fill="none" xmlns="http://www.w3.org/2000/svg">
<path d="M11.5 3.83333V9.5H15.75M20 9.5C20 10.6162 19.7801 11.7215 19.353 12.7528C18.9258 13.7841 18.2997 14.7211 17.5104 15.5104C16.7211 16.2997 15.7841 16.9258 14.7528 17.353C13.7215 17.7801 12.6162 18 11.5 18C10.3838 18 9.27846 17.7801 8.24719 17.353C7.21592 16.9258 6.27889 16.2997 5.48959 15.5104C4.70029 14.7211 4.07419 13.7841 3.64702 12.7528C3.21986 11.7215 3 10.6162 3 9.5C3 7.24566 3.89553 5.08365 5.48959 3.48959C7.08365 1.89553 9.24566 1 11.5 1C13.7543 1 15.9163 1.89553 17.5104 3.48959C19.1045 5.08365 20 7.24566 20 9.5Z" stroke="#909195" stroke-width="1.5" stroke-linecap="round" stroke-linejoin="round"/>
</svg>
