<svg width="21" height="20" viewBox="0 0 21 20" fill="none" xmlns="http://www.w3.org/2000/svg">
<path fill-rule="evenodd" clip-rule="evenodd" d="M9.26968 0.5C9.33932 0.5 9.47039 0.545043 9.5523 0.598276C9.63832 0.651509 11.4405 1.69569 13.5581 2.91595C15.6757 4.13621 17.4411 5.1722 17.482 5.22134C17.5517 5.30733 17.5558 5.49159 17.5517 11.5151L17.7851 11.6338C17.9162 11.6994 18.1701 11.8591 18.3504 11.9942C18.5306 12.1293 18.7804 12.3586 18.9074 12.5019C19.0344 12.6453 19.2228 12.8909 19.3293 13.0506C19.4358 13.2103 19.5791 13.4765 19.6488 13.6444C19.7184 13.8123 19.8126 14.0784 19.8536 14.2381C19.8945 14.3978 19.9478 14.7009 19.9724 14.9138C20.0092 15.2004 20.0092 15.4093 19.9724 15.7123C19.9478 15.9375 19.8904 16.261 19.8413 16.4289C19.7962 16.5968 19.6897 16.8834 19.6037 17.0636C19.5218 17.2437 19.3703 17.5099 19.2719 17.6573C19.1736 17.8047 18.9443 18.075 18.7641 18.2552C18.5797 18.4394 18.3053 18.6728 18.1456 18.7711C17.9858 18.8735 17.7646 19.0045 17.6541 19.0619C17.5394 19.1192 17.3305 19.2052 17.183 19.2543C17.0356 19.3034 16.7407 19.3772 16.5277 19.4222C16.3147 19.4672 15.9911 19.5 15.8109 19.5C15.6307 19.5 15.2989 19.4631 15.0736 19.414C14.8483 19.3649 14.5534 19.2871 14.4183 19.2338C14.2831 19.1847 14.0537 19.0823 13.9063 19.0086C13.7588 18.9349 13.5131 18.7834 13.3574 18.6647C13.2018 18.55 12.9233 18.2961 12.4113 17.7474L10.9572 18.5869C10.1585 19.0455 9.48677 19.4386 9.46219 19.4631C9.44171 19.4836 9.36389 19.5 9.29016 19.5C9.21644 19.5 9.10585 19.4672 9.04031 19.4222C8.97887 19.3813 7.17666 18.3412 5.03859 17.1086C2.89642 15.872 1.11469 14.8237 1.07373 14.7787C1.0041 14.6927 1 14.447 1 10C1 5.55302 1.0041 5.30733 1.07373 5.22134C1.11469 5.17629 2.89642 4.12802 5.03859 2.89547C7.18076 1.65884 8.97478 0.61875 9.03212 0.577802C9.08946 0.536853 9.19596 0.5 9.26559 0.5L9.26968 0.5ZM6.19364 2.99784C6.18135 3.01013 7.68046 4.02565 9.52773 5.26228C11.375 6.49483 12.911 7.49806 12.9396 7.49397C12.9683 7.48578 13.7875 7.02306 14.7623 6.45797C15.7372 5.89698 16.5318 5.42608 16.5318 5.41379C16.5318 5.40151 14.9057 4.4556 12.9192 3.30496C10.9326 2.15841 9.29836 1.2125 9.28607 1.2125C9.27378 1.20841 8.57747 1.6056 7.73781 2.09289C6.90224 2.58017 6.20593 2.98556 6.19364 2.99784ZM2.02398 5.41379C2.02808 5.42608 3.13398 6.06897 4.47745 6.84698C5.82501 7.625 7.45519 8.56681 8.10234 8.94763L9.28197 9.63146C11.6003 8.28427 12.2597 7.87888 12.2433 7.86659C12.2229 7.85022 10.7115 6.84289 8.88057 5.62263C7.05379 4.40647 5.5301 3.40733 5.50143 3.41142C5.47685 3.41142 4.67815 3.85776 3.73199 4.40237C2.78992 4.94698 2.01989 5.40151 2.02398 5.41379ZM1.66764 14.4019C4.75187 16.1791 6.07486 16.9407 6.59504 17.2397C7.11523 17.5427 7.8443 17.9644 8.21703 18.1774C8.58976 18.3944 8.90515 18.5746 8.92153 18.5828C8.94201 18.5909 8.9543 16.7073 8.9543 14.3937V10.1843C3.67464 7.13772 2.03627 6.19181 1.9052 6.1181L1.67173 5.98297L1.66764 14.4019ZM13.2182 8.09591L13.2141 11.1466C13.0584 11.3062 12.9683 11.3513 12.8987 11.3513C12.8372 11.3513 12.7389 11.3185 12.6816 11.2735L12.5792 11.1957L12.5382 8.48901L9.61374 10.1843C9.61374 16.7032 9.62603 18.5909 9.64241 18.5828C9.6588 18.5746 10.2077 18.2593 10.8589 17.8825C11.5143 17.5058 12.059 17.1905 12.0672 17.1823C12.0795 17.17 12.0303 17.0144 11.9566 16.8261C11.8829 16.6418 11.7928 16.3593 11.7559 16.2037C11.7027 15.9989 11.6863 15.7409 11.6863 15.3028C11.6863 14.7664 11.7027 14.6353 11.7969 14.2791C11.8542 14.0539 11.9976 13.6853 12.1082 13.4601C12.2229 13.2226 12.4317 12.9032 12.5915 12.7026C12.7471 12.5101 13.0216 12.2358 13.2018 12.0884C13.3861 11.9409 13.6974 11.7362 13.8981 11.6338C14.0947 11.5274 14.3814 11.4045 14.5248 11.3554C14.6722 11.3103 14.9589 11.2407 15.1596 11.208C15.3644 11.1752 15.6675 11.1466 15.8355 11.1466C16.0075 11.1466 16.2901 11.1752 16.4703 11.208C16.6506 11.2407 16.8226 11.2694 16.8513 11.2694C16.8922 11.2694 16.9004 10.7166 16.9004 8.64871C16.9004 6.57672 16.8922 6.02802 16.8513 6.02802C16.8226 6.02802 15.9952 6.49483 15.0081 7.06401L13.2182 8.09591ZM14.7951 11.9655C14.6354 12.0147 14.3691 12.1252 14.2012 12.2112C14.0292 12.3013 13.767 12.4733 13.6155 12.5961C13.4639 12.7231 13.2386 12.9483 13.1117 13.0998C12.9888 13.2513 12.8168 13.5134 12.7267 13.6853C12.6406 13.8532 12.5178 14.1562 12.4604 14.361C12.4031 14.5616 12.3416 14.8933 12.3293 15.0981C12.3171 15.3028 12.3252 15.6099 12.3498 15.7942C12.3785 15.9744 12.4399 16.2487 12.4932 16.4084C12.5464 16.564 12.6406 16.7933 12.7062 16.9203C12.7676 17.0431 12.8741 17.2274 12.9437 17.3297C13.0134 17.428 13.1608 17.6123 13.2755 17.731C13.3902 17.8539 13.6032 18.0381 13.7506 18.1446C13.894 18.2552 14.1316 18.3985 14.2708 18.4681C14.4142 18.5418 14.6886 18.6483 14.8852 18.7056C15.2047 18.8039 15.3112 18.8162 15.8396 18.8162C16.3679 18.8162 16.4703 18.8039 16.8021 18.7056C17.0028 18.6401 17.3059 18.5213 17.4779 18.4312C17.6459 18.3453 17.908 18.1692 18.0596 18.0463C18.2111 17.9194 18.4405 17.6942 18.5634 17.5427C18.6862 17.3912 18.8624 17.1291 18.9484 16.9612C19.0385 16.7892 19.1614 16.4862 19.2228 16.2856C19.3211 15.9539 19.3334 15.8515 19.3334 15.3233C19.3334 14.795 19.3211 14.6886 19.2228 14.3692C19.1655 14.1726 19.0549 13.886 18.977 13.7345C18.8992 13.583 18.7681 13.3659 18.6862 13.2554C18.6002 13.1407 18.4487 12.9606 18.3422 12.85C18.2398 12.7435 18.0432 12.5756 17.908 12.4774C17.7728 12.3791 17.5517 12.2481 17.4165 12.1784C17.2813 12.1129 17.0479 12.0188 16.9045 11.9696C16.757 11.9246 16.5154 11.8672 16.372 11.8427C16.2246 11.8181 15.9665 11.8017 15.7986 11.8058C15.6266 11.8058 15.3972 11.8263 15.2866 11.8427C15.1719 11.8631 14.9507 11.9164 14.7951 11.9655ZM17.7114 13.4397C17.7892 13.4397 17.8793 13.4724 17.9285 13.5216C17.9776 13.5707 18.0104 13.6567 18.0104 13.7468C18.0104 13.8409 17.9735 13.931 17.8957 14.017C17.8343 14.0907 17.2854 14.8032 16.6792 15.6017C16.0689 16.4043 15.5201 17.0881 15.4586 17.1209C15.3603 17.1782 15.3358 17.1782 15.2334 17.1209C15.1719 17.0881 14.8115 16.6909 14.4347 16.2405C14.0578 15.7901 13.7383 15.3765 13.722 15.3233C13.7056 15.2619 13.722 15.1759 13.7547 15.1185C13.7875 15.0612 13.8653 14.9916 13.9268 14.9629C14.0128 14.922 14.0578 14.922 14.1561 14.9629C14.2217 14.9916 14.5125 15.2946 15.3685 16.2978L15.4504 16.1873C15.4996 16.13 15.9665 15.5075 16.4908 14.8114C17.0192 14.1112 17.4779 13.5175 17.5107 13.4888C17.5476 13.4601 17.6377 13.4397 17.7114 13.4397Z" fill="#373737" stroke="#373737" stroke-width="0.5"/>
</svg>
