<svg width="19" height="18" viewBox="0 0 19 18" fill="none" xmlns="http://www.w3.org/2000/svg">
<path fill-rule="evenodd" clip-rule="evenodd" d="M12.9867 0.504839C13.1602 0.511783 13.3476 0.546503 13.4898 0.598582C13.6147 0.643717 13.809 0.744404 13.92 0.817314C14.0345 0.893697 14.201 1.04299 14.2947 1.14715C14.3849 1.25131 14.5063 1.43185 14.5653 1.54642C14.6208 1.661 14.6902 1.84848 14.7214 1.96306C14.7492 2.07763 14.7735 2.29636 14.7735 2.44913C14.7735 2.60189 14.7492 2.82063 14.718 2.9352C14.6867 3.04977 14.6243 3.22337 14.5757 3.31711C14.5271 3.41433 14.4439 3.54626 14.3884 3.61223C14.3329 3.6782 14.3016 3.74763 14.3155 3.76152C14.3294 3.77541 15.162 3.78583 18 3.78583V8.43823H16.9939V17.5H2.00612V8.43823H1V3.78583H2.83878C3.85184 3.78583 4.67755 3.77541 4.67755 3.76152C4.67755 3.74416 4.63939 3.68861 4.59429 3.62959C4.54918 3.57057 4.4798 3.45599 4.43469 3.36919C4.38959 3.28239 4.32714 3.11227 4.29245 2.98728C4.25082 2.85187 4.22653 2.6505 4.22653 2.48385C4.22653 2.33108 4.25082 2.11235 4.27857 1.99777C4.3098 1.8832 4.38265 1.68877 4.4451 1.56378C4.51102 1.42838 4.64633 1.24784 4.78163 1.10896C4.90653 0.983968 5.09388 0.831202 5.19796 0.772179C5.30204 0.713156 5.52061 0.629829 5.68367 0.588166C5.90571 0.532615 6.03408 0.518727 6.20408 0.532615C6.32898 0.546503 6.54061 0.59511 6.67245 0.647189C6.80429 0.695796 7.05755 0.81037 7.22755 0.897169C7.39755 0.98744 7.7098 1.17492 7.92143 1.31727C8.13306 1.45962 8.4349 1.6853 8.59796 1.82418C8.76102 1.96306 8.97959 2.1679 9.08367 2.279C9.19123 2.39358 9.32306 2.54287 9.48265 2.74771L9.69082 2.49773C9.80531 2.36233 9.99265 2.16096 10.1071 2.05333C10.2216 1.9457 10.4402 1.75821 10.5929 1.63669C10.7455 1.51517 11.0196 1.31727 11.2 1.19923C11.3804 1.08118 11.6718 0.911057 11.8418 0.82773C12.0118 0.740932 12.2478 0.640245 12.3622 0.598582C12.4767 0.560391 12.6016 0.518727 12.6398 0.508311C12.678 0.497896 12.8341 0.497896 12.9867 0.504839ZM5.5449 1.39366C5.45816 1.44574 5.3298 1.55337 5.26041 1.63669C5.19102 1.72002 5.09735 1.86584 5.05225 1.96306C4.98633 2.10888 4.97245 2.1922 4.97245 2.48385C4.97245 2.78938 4.98286 2.85535 5.06612 3.022C5.11469 3.12616 5.22918 3.28587 5.31592 3.37961C5.40265 3.46988 5.55878 3.58098 5.65592 3.62959L5.8398 3.71639C8.70204 3.71639 8.93796 3.70944 9.00735 3.66431C9.05245 3.63306 9.08367 3.57751 9.08367 3.51501C9.08714 3.46293 9.02816 3.331 8.94837 3.21295C8.87551 3.09838 8.64653 2.84493 8.44531 2.64703C8.24408 2.4526 7.91796 2.17484 7.7202 2.02902C7.52592 1.8832 7.22408 1.68183 7.05408 1.57767C6.88408 1.47698 6.63775 1.35199 6.50592 1.30339C6.37755 1.25478 6.20755 1.21659 6.12429 1.22006C6.04449 1.22006 5.91612 1.24089 5.8398 1.26519C5.76347 1.28603 5.63163 1.34505 5.5449 1.39366ZM12.1714 1.44226C12.0673 1.49782 11.8939 1.59503 11.7898 1.661C11.6857 1.72696 11.4914 1.86237 11.3561 1.95958C11.2208 2.0568 11.0022 2.2304 10.8704 2.34497C10.7351 2.45954 10.5165 2.67133 10.3812 2.81368C10.2459 2.95603 10.0829 3.15393 10.0239 3.24767C9.9649 3.34489 9.91633 3.46293 9.91633 3.51849C9.91633 3.57751 9.94408 3.63306 9.99265 3.66431C10.062 3.70944 10.298 3.71639 11.6163 3.71639H13.1602C13.4412 3.58098 13.5904 3.47682 13.6737 3.3935C13.7569 3.31364 13.868 3.15393 13.9235 3.03936C14.0171 2.85187 14.0276 2.79979 14.0276 2.48385C14.0276 2.17137 14.0171 2.11582 13.9235 1.91445C13.8576 1.77904 13.7569 1.63669 13.6529 1.54295C13.5627 1.45962 13.4169 1.35547 13.3233 1.3138C13.2261 1.27214 13.07 1.23742 12.9347 1.23048C12.7786 1.22006 12.6571 1.23742 12.5357 1.28255C12.4386 1.31727 12.2755 1.39018 12.1714 1.44226ZM1.72857 7.77856H7.31429V4.51493H1.72857V7.77856ZM8.04286 16.7709H10.9571V4.51493H8.04286V16.7709ZM11.6857 7.77856H17.2714V4.51493H11.6857V7.77856ZM2.73469 16.7709H7.31429V8.43823H2.73469V16.7709ZM11.6857 16.7709H16.2653V8.43823H11.6857V16.7709Z" fill="#373737" stroke="#373737" stroke-width="0.5"/>
</svg>
