<svg width="19" height="18" viewBox="0 0 19 18" fill="none" xmlns="http://www.w3.org/2000/svg">
<path d="M13.2934 6.5895H18L15.0009 3.69636C14.0353 2.76549 12.8326 2.09608 11.5136 1.75542C10.1946 1.41476 8.80581 1.41486 7.48686 1.75571C6.16791 2.09656 4.96528 2.76614 3.99987 3.69715C3.03445 4.62815 2.34028 5.78777 1.98713 7.05942M1.00094 15.9479V11.4105M1.00094 11.4105H5.7075M1.00094 11.4105L3.99911 14.3036C4.96467 15.2345 6.16741 15.9039 7.48641 16.2446C8.80541 16.5852 10.1942 16.5851 11.5131 16.2443C12.8321 15.9034 14.0347 15.2339 15.0001 14.3029C15.9655 13.3718 16.6597 12.2122 17.0129 10.9406M18 2.05209V6.58768" stroke="#373737" stroke-width="1.5" stroke-linecap="round" stroke-linejoin="round"/>
</svg>
