<svg width="46" height="46" viewBox="0 0 46 46" fill="none" xmlns="http://www.w3.org/2000/svg">
<circle cx="23" cy="23" r="21.4331" stroke="#5D91FE" stroke-width="3.13377"/>
<path d="M10.1661 26.6009L12.5515 26.2066C12.7224 26.9163 13.0969 27.4486 13.6752 27.8035C14.2535 28.1583 14.9895 28.3358 15.8832 28.3358C16.7901 28.3358 17.4998 28.1846 18.0124 27.8823C18.5381 27.5669 18.8009 27.1398 18.8009 26.6009C18.8009 26.1146 18.6498 25.7335 18.3475 25.4575C18.0452 25.1815 17.5392 24.9778 16.8295 24.8463L14.4835 24.4126C13.2612 24.1892 12.3018 23.7883 11.6052 23.2101C10.9218 22.6318 10.5801 21.7446 10.5801 20.5486C10.5801 19.3263 11.0532 18.3669 11.9995 17.6703C12.9589 16.9738 14.2272 16.6255 15.8044 16.6255C17.4341 16.6255 18.6826 16.9672 19.5501 17.6506C20.4175 18.3209 20.9564 19.2278 21.1666 20.3712L18.7812 20.7458C18.6629 20.1938 18.3672 19.7206 17.8941 19.3263C17.4341 18.9189 16.7244 18.7152 15.7649 18.7152C14.8712 18.7152 14.1812 18.8861 13.6949 19.2278C13.2218 19.5563 12.9852 19.9835 12.9852 20.5092C12.9852 20.9955 13.1561 21.3766 13.4978 21.6526C13.8526 21.9155 14.4309 22.1192 15.2326 22.2638L17.7364 22.7566C18.8666 22.9669 19.7275 23.3678 20.3189 23.9592C20.9235 24.5506 21.2258 25.3918 21.2258 26.4826C21.2258 27.7575 20.7395 28.7366 19.7669 29.4201C18.7944 30.0903 17.4735 30.4255 15.8044 30.4255C14.2404 30.4255 12.9721 30.1166 11.9995 29.4989C11.0269 28.8812 10.4158 27.9152 10.1661 26.6009Z" fill="#5D91FE"/>
<path d="M23.734 30.2283V16.8226H29.4708C30.8377 16.8226 31.922 17.1183 32.7237 17.7098C33.5254 18.2881 33.9263 19.2146 33.9263 20.4895C33.9263 21.0941 33.7817 21.6658 33.4925 22.2046C33.2034 22.7435 32.6843 23.1443 31.9351 23.4072C32.7894 23.6175 33.394 23.9921 33.7488 24.5309C34.1037 25.0698 34.2811 25.7335 34.2811 26.5221C34.2811 27.7838 33.854 28.7169 32.9997 29.3215C32.1585 29.9261 30.9954 30.2283 29.5103 30.2283H23.734ZM29.254 18.8729H26.1194V22.4609H29.1357C30.0031 22.4609 30.6143 22.3098 30.9691 22.0075C31.3371 21.7052 31.5211 21.2452 31.5211 20.6275C31.5211 19.9966 31.3503 19.5498 31.0085 19.2869C30.6668 19.0109 30.082 18.8729 29.254 18.8729ZM29.3131 24.4521H26.1194V28.1781H29.392C30.2594 28.1781 30.8837 28.0335 31.2648 27.7443C31.6591 27.4421 31.8563 26.9689 31.8563 26.3249C31.8563 25.6809 31.6591 25.2078 31.2648 24.9055C30.8705 24.6032 30.22 24.4521 29.3131 24.4521Z" fill="#5D91FE"/>
</svg>
