<svg width="17" height="17" viewBox="0 0 17 17" fill="none" xmlns="http://www.w3.org/2000/svg">
<rect width="17" height="17" rx="2" fill="#1EE099"/>
<path fill-rule="evenodd" clip-rule="evenodd" d="M5.9934 11.7756L3.31194 9.07723C2.89604 8.65467 2.89604 7.97668 3.31194 7.55412C3.51263 7.35198 3.78568 7.23825 4.07055 7.23825C4.35543 7.23825 4.62847 7.35198 4.82912 7.55412L6.75155 9.48926L11.8928 4.31586C12.0933 4.11362 12.3662 4 12.6509 4C12.9356 4 13.2086 4.11372 13.4091 4.31586C13.8259 4.73801 13.8259 5.41683 13.4091 5.83898L7.51053 11.7756C7.30989 11.9777 7.03684 12.0914 6.75197 12.0914C6.46709 12.0914 6.19405 11.9777 5.9934 11.7756Z" fill="white"/>
</svg>
