<svg width="24" height="25" viewBox="0 0 24 25" fill="none" xmlns="http://www.w3.org/2000/svg">
<path fill-rule="evenodd" clip-rule="evenodd" d="M12.9633 2.78584C12.903 2.70508 12.8271 2.63729 12.7401 2.58652C12.653 2.53575 12.5566 2.50304 12.4567 2.49035C12.3567 2.47766 12.2552 2.48524 12.1582 2.51264C12.0613 2.54004 11.9708 2.5867 11.8923 2.64984C9.97583 4.18841 8.7117 6.39447 8.35328 8.82584C7.69646 8.34953 7.12073 7.77043 6.64828 7.11084C6.58411 7.02114 6.50095 6.9467 6.40472 6.89281C6.30849 6.83893 6.20156 6.80693 6.09155 6.7991C5.98154 6.79127 5.87116 6.8078 5.76827 6.84751C5.66538 6.88722 5.57251 6.94913 5.49628 7.02883C4.1756 8.41039 3.32903 10.1765 3.07919 12.0714C2.82935 13.9662 3.18922 15.8914 4.10668 17.5681C5.02413 19.2447 6.45152 20.5858 8.18209 21.397C9.91265 22.2082 11.8565 22.4474 13.7321 22.08C15.6077 21.7126 17.3177 20.7576 18.6143 19.3534C19.9108 17.9492 20.7267 16.1687 20.9438 14.2698C21.1608 12.3709 20.7677 10.4522 19.8213 8.79166C18.875 7.13113 17.4246 5.81497 15.6803 5.03384C14.608 4.5124 13.6763 3.74154 12.9633 2.78584ZM15.7503 14.7498C15.7499 15.2923 15.6319 15.8282 15.4043 16.3205C15.1767 16.8129 14.845 17.2501 14.4321 17.6018C14.0192 17.9536 13.5349 18.2116 13.0126 18.358C12.4903 18.5045 11.9425 18.5358 11.4069 18.45C10.8713 18.3642 10.3607 18.1632 9.9103 17.8608C9.45992 17.5585 9.08049 17.1621 8.79818 16.6989C8.51588 16.2358 8.33741 15.7168 8.2751 15.178C8.2128 14.6392 8.26813 14.0932 8.43728 13.5778C9.06528 14.0428 9.78728 14.3878 10.5703 14.5778C10.7826 13.2088 11.4629 11.9557 12.4953 11.0318C13.3963 11.1518 14.223 11.595 14.8218 12.2789C15.4205 12.9628 15.7505 13.8409 15.7503 14.7498Z" fill="#A200FF"/>
</svg>
