<svg width="22" height="22" viewBox="0 0 22 22" fill="none" xmlns="http://www.w3.org/2000/svg">
<path fill-rule="evenodd" clip-rule="evenodd" d="M0 10.1538V5.07692C0 3.67497 0.495665 2.47833 1.487 1.487C2.47833 0.495665 3.67497 0 5.07692 0H16.9231C18.325 0 19.5217 0.495665 20.513 1.487C21.5043 2.47833 22 3.67497 22 5.07692V16.9231C22 18.325 21.5043 19.5217 20.513 20.513C19.5217 21.5043 18.325 22 16.9231 22H5.07692C3.67497 22 2.47833 21.5043 1.487 20.513C0.495665 19.5217 0 18.325 0 16.9231V10.1538Z" fill="#5D91FE"/>
<path fill-rule="evenodd" clip-rule="evenodd" d="M8.62426 14.7231L5.9428 12.0247C5.5269 11.6022 5.5269 10.9242 5.9428 10.5016C6.14349 10.2995 6.41654 10.1858 6.70141 10.1858C6.98629 10.1858 7.25933 10.2995 7.45998 10.5016L9.38241 12.4368L14.5236 7.26337C14.7241 7.06113 14.9971 6.94751 15.2818 6.94751C15.5665 6.94751 15.8394 7.06123 16.0399 7.26337C16.4568 7.68552 16.4568 8.36434 16.0399 8.78649L10.1414 14.7231C9.94075 14.9252 9.6677 15.039 9.38283 15.039C9.09795 15.039 8.8249 14.9252 8.62426 14.7231Z" fill="white"/>
</svg>
