<svg width="196" height="26" viewBox="0 0 196 26" fill="none" xmlns="http://www.w3.org/2000/svg">
<path d="M39.0926 2.67041C34.838 2.67041 31.0179 4.95276 31.0179 9.141C31.0179 13.9645 37.7659 14.2939 37.7659 16.6939C37.7659 17.7057 36.6222 18.6234 34.7007 18.6234C31.9558 18.6234 29.8971 17.3528 29.8971 17.3528L29.0278 21.5881C29.0278 21.5881 31.3839 22.6704 34.5406 22.6704C39.207 22.6704 42.8669 20.2939 42.8669 16.0116C42.8669 10.9292 36.0961 10.5998 36.0961 8.36453C36.0961 7.56453 37.0339 6.69394 38.9554 6.69394C41.1285 6.69394 42.9127 7.61159 42.9127 7.61159L43.7819 3.51747C43.7591 3.51747 41.8147 2.67041 39.0926 2.67041ZM0.114373 2.97629L0 3.58806C0 3.58806 1.78422 3.91747 3.40831 4.59982C5.4899 5.37629 5.62715 5.82335 5.99314 7.21159L9.81319 22.341H14.9371L22.7831 2.97629H17.682L12.6268 16.1528L10.5681 4.97629C10.3851 3.7057 9.42432 2.97629 8.23485 2.97629H0.114373ZM24.8418 2.97629L20.8387 22.341H25.711L29.6912 2.97629H24.8418ZM51.971 2.97629C50.8044 2.97629 50.1868 3.61159 49.7293 4.741L42.5925 22.341H47.6935L48.6771 19.3998H54.899L55.4937 22.341H60L56.0885 2.97629H51.971ZM52.6344 8.22335L54.1441 15.4939H50.0953L52.6344 8.22335Z" fill="#C6C7D3"/>
<path d="M101.067 2.71191H89.9722V22.6235H101.067V2.71191Z" fill="#C6C7D3"/>
<path d="M90.6766 12.6676C90.6766 8.79782 92.473 5.10396 95.502 2.71175C90.0074 -1.61533 82.0473 -0.665483 77.715 4.85771C73.3827 10.3457 74.3337 18.2963 79.8635 22.6234C84.4776 26.2469 90.9232 26.2469 95.5373 22.6234C92.473 20.2312 90.6766 16.5373 90.6766 12.6676Z" fill="#C6C7D3"/>
<path d="M116.036 12.6676C116.036 19.6683 110.366 25.3322 103.357 25.3322C100.504 25.3322 97.7563 24.3824 95.5374 22.6234C101.032 18.2963 101.983 10.3457 97.6507 4.82253C97.0167 4.04858 96.3122 3.30981 95.5374 2.71175C101.032 -1.61533 109.027 -0.665483 113.324 4.85771C115.085 7.07402 116.036 9.81802 116.036 12.6676Z" fill="#E2E3E9"/>
<path d="M177.45 11.7964V21.7837H182.998V15.8653H189.287C191.931 15.8468 194.178 14.1545 195.029 11.7964H177.45Z" fill="#C6C7D3"/>
<path d="M176.71 3.56641C177.033 7.64457 180.899 10.872 185.615 10.872C185.634 10.872 195.26 10.872 195.26 10.872C195.334 10.5021 195.371 10.1137 195.371 9.71601C195.371 6.33142 192.643 3.59415 189.268 3.56641H176.71Z" fill="#E2E3E9"/>
<path d="M168.498 10.7702C168.563 10.6593 168.665 10.5945 168.794 10.5945C168.979 10.5945 169.118 10.7425 169.127 10.9182V21.6916H174.676V3.56641H169.127C168.424 3.59415 167.629 4.10276 167.333 4.74084L162.922 14.2103C162.913 14.2473 162.894 14.2843 162.876 14.3213C162.811 14.4138 162.7 14.4785 162.571 14.4785C162.367 14.4785 162.201 14.312 162.201 14.1086V3.56641H156.652V21.6916H162.201C162.894 21.6546 163.671 21.146 163.967 20.5171L168.498 10.798C168.489 10.7887 168.498 10.7795 168.498 10.7702Z" fill="#C6C7D3"/>
<path d="M147.784 11.0846L144.538 21.6915H140.543L137.306 11.0754C137.278 10.9089 137.13 10.7794 136.946 10.7794C136.742 10.7794 136.585 10.9459 136.585 11.1401V21.6823H131.036V3.55713H135.799H137.214C138.231 3.55713 139.304 4.35242 139.6 5.32341L142.3 14.1548C142.439 14.5987 142.651 14.5894 142.79 14.1548L145.49 5.32341C145.786 4.34317 146.859 3.55713 147.876 3.55713H149.291H154.053V21.6823H148.505V11.1401C148.505 11.1401 148.505 11.1401 148.505 11.1309C148.505 10.9274 148.339 10.7702 148.144 10.7702C147.959 10.7794 147.811 10.9089 147.784 11.0846Z" fill="#C6C7D3"/>
</svg>
