<svg width="63" height="14" viewBox="0 0 63 14" fill="none" xmlns="http://www.w3.org/2000/svg">
<path d="M16.2935 7.99759V0.592285H18.9528V7.9049C18.9528 9.62315 19.951 10.8043 21.8534 10.8043C23.7558 10.8043 24.7337 9.62196 24.7337 7.9049V0.592285H27.4121V7.97977C27.4121 11.0455 25.6012 13.1321 21.8534 13.1321C18.1032 13.1321 16.2935 11.0265 16.2935 7.99759Z" fill="#000"/>
<path d="M33.7314 11.1732L35.1526 9.17926C36.0212 10.0847 37.3687 10.8405 39.068 10.8405C40.5093 10.8405 41.2104 10.1762 41.2104 9.47395C41.2104 7.29466 34.1188 8.79069 34.1188 4.15525C34.1188 2.10548 35.8917 0.40625 38.7911 0.40625C40.7494 0.40625 42.3737 0.996821 43.5929 2.12449L42.1337 4.04474C41.1379 3.12145 39.8071 2.69724 38.5511 2.69724C37.4246 2.69724 36.7972 3.19512 36.7972 3.93423C36.7972 5.89131 43.8698 4.58065 43.8698 9.17926C43.8698 11.4322 42.2632 13.1314 38.9396 13.1314C36.5762 13.1314 34.8769 12.3365 33.7314 11.1732Z" fill="#000"/>
<path d="M50.0225 6.71041C50.0225 2.96736 52.759 0.286621 56.5021 0.286621C60.263 0.286621 62.9996 2.96736 62.9996 6.71041C62.9996 10.4523 60.263 13.133 56.5021 13.133C52.759 13.133 50.0225 10.4523 50.0225 6.71041ZM60.2808 6.71041C60.2808 4.38378 58.7919 2.63346 56.5021 2.63346C54.2123 2.63346 52.7412 4.38378 52.7412 6.71041C52.7412 9.01923 54.2123 10.7874 56.5021 10.7874C58.7919 10.7874 60.2808 9.01923 60.2808 6.71041Z" fill="#000"/>
<path d="M7.2033 8.21861C8.53297 7.90491 9.90067 6.74159 9.90067 4.5623C9.90067 2.2725 8.33097 0.592285 5.76311 0.592285H0V2.89991H2.62251H2.81739H5.37574C6.42855 2.89991 7.22231 3.52731 7.22231 4.5623C7.22231 5.59609 6.42736 6.22469 5.37574 6.22469H2.81739H2.62251H0.00118807V12.9099H2.6237V8.5335H4.54514L6.96327 12.9111H9.97435L7.2033 8.21861Z" fill="#000"/>
</svg>
