<svg width="461" height="94" viewBox="0 0 461 94" fill="none" xmlns="http://www.w3.org/2000/svg">
<path d="M-1.02145 42.1037L-35.8448 84.2072C-40.7099 90.089 -47.9406 93.491 -55.564 93.491H-55.5729C-77.2739 93.491 -89.1465 68.1376 -75.2922 51.3874L-40.4599 9.28375C-35.5948 3.40195 -28.3642 0 -20.7407 0H-20.7318C0.960289 0 12.8418 25.3535 -1.01253 42.1037H-1.02145ZM-31.4974 93.491C-39.1209 93.491 -46.3516 96.8929 -51.2167 102.784L-86.0489 144.896C-99.9033 161.646 -88.0218 187 -66.3297 187C-58.7062 187 -51.4756 183.598 -46.6105 177.707L-11.7782 135.595C2.07613 118.845 -9.8054 93.4999 -31.4974 93.4999V93.491ZM55.2708 0H55.2618C47.6384 0 40.4077 3.40195 35.5426 9.28375L0.719261 51.3874C-13.1351 68.1376 -1.26248 93.491 20.4385 93.491H20.4474C28.0709 93.491 35.3016 90.089 40.1667 84.2072L74.9989 42.1037C88.8533 25.3535 76.9807 0 55.2797 0H55.2708ZM44.514 93.491C36.8905 93.491 29.6599 96.8929 24.7948 102.784L-10.0375 144.896C-23.8918 161.646 -12.0103 187 9.68175 187C17.3052 187 24.5359 183.598 29.401 177.707L64.2332 135.595C78.0876 118.845 66.2061 93.4999 44.514 93.4999V93.491ZM131.282 0H131.273C123.65 0 116.419 3.40195 111.554 9.28375L76.7307 51.3874C62.8764 68.1376 74.749 93.491 96.45 93.491H96.4589C104.082 93.491 111.313 90.089 116.178 84.2072L151.001 42.1037C164.856 25.3535 152.983 0 131.282 0ZM120.525 93.491C112.902 93.491 105.671 96.8929 100.806 102.784L65.974 144.896C52.1196 161.646 64.0011 187 85.6932 187C93.3167 187 100.547 183.598 105.412 177.707L140.245 135.595C154.099 118.845 142.218 93.4999 120.525 93.4999V93.491ZM207.294 0H207.285C199.661 0 192.431 3.40195 187.566 9.28375L152.742 51.3874C138.888 68.1376 150.76 93.491 172.461 93.491H172.47C180.094 93.491 187.324 90.089 192.19 84.2072L227.013 42.1037C240.867 25.3535 228.995 0 207.294 0ZM196.537 93.491C188.913 93.491 181.683 96.8929 176.818 102.784L141.985 144.896C128.131 161.646 140.013 187 161.705 187C169.328 187 176.559 183.598 181.424 177.707L216.256 135.595C230.111 118.845 218.229 93.4999 196.537 93.4999V93.491ZM283.305 0C275.682 0 268.451 3.40195 263.586 9.28375L228.763 51.3874C214.908 68.1376 226.781 93.491 248.482 93.491H248.491C256.114 93.491 263.345 90.089 268.21 84.2072L303.033 42.1037C316.888 25.3535 305.015 0 283.314 0H283.305ZM272.548 93.491C264.925 93.491 257.694 96.8929 252.829 102.784L217.997 144.896C204.143 161.646 216.015 187 237.716 187C245.34 187 252.57 183.598 257.435 177.707L292.268 135.595C306.122 118.845 294.24 93.4999 272.548 93.4999V93.491ZM359.317 0H359.308C351.684 0 344.453 3.40195 339.588 9.28375L304.765 51.3874C290.911 68.1376 302.783 93.491 324.484 93.491H324.493C332.117 93.491 339.347 90.089 344.212 84.2072L379.036 42.1037C392.89 25.3535 381.018 0 359.317 0ZM348.56 93.491C340.936 93.491 333.706 96.8929 328.841 102.784L294.008 144.896C280.154 161.646 292.035 187 313.728 187C321.351 187 328.582 183.598 333.447 177.707L368.279 135.595C382.133 118.845 370.261 93.4999 348.56 93.4999V93.491ZM435.328 0H435.319C427.696 0 420.465 3.40195 415.6 9.28375L380.777 51.3874C366.922 68.1376 378.795 93.491 400.496 93.491H400.505C408.128 93.491 415.359 90.089 420.224 84.2072L455.047 42.1037C468.902 25.3535 457.029 0 435.328 0ZM424.571 93.491C416.948 93.491 409.717 96.8929 404.852 102.784L370.02 144.896C356.165 161.646 368.047 187 389.739 187C397.362 187 404.593 183.598 409.458 177.707L444.291 135.595C458.145 118.845 446.263 93.4999 424.571 93.4999V93.491Z" fill="#F9F9F9"/>
</svg>
