<svg width="552" height="187" viewBox="0 0 552 187" fill="none" xmlns="http://www.w3.org/2000/svg">
<path d="M90.814 42.1037L56.0537 84.2072C51.1974 90.089 43.9798 93.491 36.3701 93.491H36.3612C14.6994 93.491 2.84831 68.1376 16.6776 51.3874L51.4469 9.28375C56.3032 3.40195 63.5208 0 71.1304 0H71.1394C92.7922 0 104.652 25.3535 90.8229 42.1037H90.814ZM60.3931 93.491C52.7835 93.491 45.5659 96.8929 40.7096 102.784L5.9403 144.896C-7.889 161.646 3.97105 187 25.6239 187C33.2336 187 40.4512 183.598 45.3075 177.707L80.0767 135.595C93.906 118.845 82.046 93.4999 60.3931 93.4999V93.491ZM147.004 0H146.996C139.386 0 132.168 3.40195 127.312 9.28375L92.5516 51.3874C78.7223 68.1376 90.5734 93.491 112.235 93.491H112.244C119.854 93.491 127.071 90.089 131.928 84.2072L166.697 42.1037C180.526 25.3535 168.675 0 147.013 0H147.004ZM136.267 93.491C128.657 93.491 121.44 96.8929 116.584 102.784L81.8143 144.896C67.985 161.646 79.8451 187 101.498 187C109.108 187 116.325 183.598 121.181 177.707L155.951 135.595C169.78 118.845 157.92 93.4999 136.267 93.4999V93.491ZM222.878 0H222.87C215.26 0 208.042 3.40195 203.186 9.28375L168.426 51.3874C154.596 68.1376 166.447 93.491 188.109 93.491H188.118C195.728 93.491 202.945 90.089 207.802 84.2072L242.562 42.1037C256.391 25.3535 244.54 0 222.878 0ZM212.141 93.491C204.531 93.491 197.314 96.8929 192.458 102.784L157.688 144.896C143.859 161.646 155.719 187 177.372 187C184.982 187 192.199 183.598 197.055 177.707L231.825 135.595C245.654 118.845 233.794 93.4999 212.141 93.4999V93.491ZM298.752 0H298.744C291.134 0 283.916 3.40195 279.06 9.28375L244.3 51.3874C230.47 68.1376 242.321 93.491 263.983 93.491H263.992C271.602 93.491 278.819 90.089 283.676 84.2072L318.436 42.1037C332.265 25.3535 320.414 0 298.752 0ZM288.015 93.491C280.405 93.491 273.188 96.8929 268.332 102.784L233.562 144.896C219.733 161.646 231.593 187 253.246 187C260.856 187 268.073 183.598 272.929 177.707L307.699 135.595C321.528 118.845 309.668 93.4999 288.015 93.4999V93.491ZM374.626 0C367.017 0 359.799 3.40195 354.943 9.28375L320.183 51.3874C306.353 68.1376 318.204 93.491 339.866 93.491H339.875C347.485 93.491 354.702 90.089 359.559 84.2072L394.319 42.1037C408.148 25.3535 396.297 0 374.635 0H374.626ZM363.889 93.491C356.279 93.491 349.062 96.8929 344.206 102.784L309.436 144.896C295.607 161.646 307.458 187 329.12 187C336.73 187 343.947 183.598 348.803 177.707L383.573 135.595C397.402 118.845 385.542 93.4999 363.889 93.4999V93.491ZM450.5 0H450.492C442.882 0 435.664 3.40195 430.808 9.28375L396.048 51.3874C382.218 68.1376 394.069 93.491 415.731 93.491H415.74C423.35 93.491 430.567 90.089 435.424 84.2072L470.184 42.1037C484.013 25.3535 472.162 0 450.5 0ZM439.763 93.491C432.153 93.491 424.936 96.8929 420.08 102.784L385.31 144.896C371.481 161.646 383.341 187 404.994 187C412.604 187 419.821 183.598 424.677 177.707L459.447 135.595C473.276 118.845 461.425 93.4999 439.763 93.4999V93.491ZM526.374 0H526.366C518.756 0 511.538 3.40195 506.682 9.28375L471.922 51.3874C458.092 68.1376 469.943 93.491 491.605 93.491H491.614C499.224 93.491 506.441 90.089 511.298 84.2072L546.058 42.1037C559.887 25.3535 548.036 0 526.374 0ZM515.637 93.491C508.027 93.491 500.81 96.8929 495.954 102.784L461.184 144.896C447.355 161.646 459.215 187 480.868 187C488.478 187 495.695 183.598 500.551 177.707L535.321 135.595C549.15 118.845 537.29 93.4999 515.637 93.4999V93.491Z" fill="#F9F9F9"/>
</svg>
