<svg width="44" height="45" viewBox="0 0 44 45" fill="none" xmlns="http://www.w3.org/2000/svg">
<path d="M39.6867 5.12429C39.672 5.05377 39.6376 4.98888 39.5874 4.93727C39.5371 4.88566 39.4732 4.84947 39.4031 4.83296C34.7298 3.69 23.9343 7.76257 18.0794 13.6132C17.0359 14.6481 16.0844 15.7718 15.2357 16.9716C13.431 16.8084 11.6263 16.9459 10.0898 17.6162C5.7508 19.524 4.48838 24.5066 4.13604 26.6456C4.11695 26.7628 4.1251 26.8829 4.15987 26.9964C4.19463 27.1099 4.25508 27.214 4.33651 27.3004C4.41795 27.3868 4.5182 27.4533 4.62948 27.4948C4.74076 27.5362 4.86009 27.5515 4.97822 27.5394L11.9452 26.7745C11.95 27.3 11.9815 27.8249 12.0397 28.3472C12.0761 28.7082 12.2371 29.0452 12.4952 29.3002L15.1928 31.9978C15.448 32.256 15.7854 32.4171 16.1467 32.4533C16.6658 32.5112 17.1875 32.5427 17.7099 32.5478L16.9459 39.5087C16.934 39.6267 16.9493 39.7459 16.9908 39.857C17.0322 39.9681 17.0987 40.0681 17.185 40.1495C17.2713 40.2308 17.3751 40.2912 17.4885 40.3259C17.6019 40.3607 17.7217 40.369 17.8388 40.3501C19.9786 40.0063 24.9716 38.7439 26.8682 34.4058C27.5385 32.8675 27.676 31.0723 27.5213 29.2762C28.7247 28.4282 29.8516 27.4767 30.8892 26.4325C36.7656 20.5887 40.8124 10.0305 39.6867 5.12429ZM25.666 18.8623C25.1527 18.3491 24.8031 17.6953 24.6615 16.9834C24.5198 16.2716 24.5924 15.5337 24.8701 14.8631C25.1478 14.1926 25.6182 13.6194 26.2216 13.2162C26.8251 12.8129 27.5346 12.5977 28.2604 12.5977C28.9862 12.5977 29.6957 12.8129 30.2992 13.2162C30.9026 13.6194 31.373 14.1926 31.6507 14.8631C31.9284 15.5337 32.001 16.2716 31.8594 16.9834C31.7177 17.6953 31.3681 18.3491 30.8549 18.8623C30.5144 19.2034 30.11 19.4741 29.6648 19.6588C29.2196 19.8435 28.7424 19.9385 28.2604 19.9385C27.7784 19.9385 27.3012 19.8435 26.856 19.6588C26.4108 19.4741 26.0064 19.2034 25.666 18.8623Z" stroke="#5D91FE" stroke-width="2.75" stroke-linecap="round" stroke-linejoin="round"/>
<path d="M9.42219 30.75C8.56549 30.8552 7.76848 31.2435 7.15773 31.8534C5.64352 33.3728 5.5 39 5.5 39C5.5 39 11.1306 38.8565 12.6457 37.3405C13.2581 36.7308 13.6471 35.9324 13.75 35.0744" stroke="#5D91FE" stroke-width="2.75" stroke-linecap="round" stroke-linejoin="round"/>
</svg>
