<svg width="24" height="25" viewBox="0 0 24 25" fill="none" xmlns="http://www.w3.org/2000/svg">
<path d="M2.25 7.625C2.25 7.004 2.754 6.5 3.375 6.5H9.375C9.996 6.5 10.5 7.004 10.5 7.625V11.375C10.5 11.996 9.996 12.5 9.375 12.5H3.375C3.07663 12.5 2.79048 12.3815 2.5795 12.1705C2.36853 11.9595 2.25 11.6734 2.25 11.375V7.625ZM14.25 9.125C14.25 8.504 14.754 8 15.375 8H20.625C21.246 8 21.75 8.504 21.75 9.125V17.375C21.75 17.996 21.246 18.5 20.625 18.5H15.375C15.0766 18.5 14.7905 18.3815 14.5795 18.1705C14.3685 17.9595 14.25 17.6734 14.25 17.375V9.125ZM3.75 16.625C3.75 16.004 4.254 15.5 4.875 15.5H10.125C10.746 15.5 11.25 16.004 11.25 16.625V18.875C11.25 19.496 10.746 20 10.125 20H4.875C4.57663 20 4.29048 19.8815 4.0795 19.6705C3.86853 19.4595 3.75 19.1734 3.75 18.875V16.625Z" stroke="black" stroke-width="1.5" stroke-linecap="round" stroke-linejoin="round"/>
</svg>
