<svg width="553" height="187" viewBox="0 0 553 187" fill="none" xmlns="http://www.w3.org/2000/svg">
<path d="M90.9785 42.1037L56.1552 84.2072C51.2901 90.089 44.0594 93.491 36.436 93.491H36.4271C14.7261 93.491 2.85347 68.1376 16.7078 51.3874L51.5401 9.28375C56.4052 3.40195 63.6358 0 71.2593 0H71.2682C92.9603 0 104.842 25.3535 90.9875 42.1037H90.9785ZM60.5026 93.491C52.8791 93.491 45.6484 96.8929 40.7833 102.784L5.95106 144.896C-7.90329 161.646 3.97824 187 25.6703 187C33.2938 187 40.5244 183.598 45.3895 177.707L80.2218 135.595C94.0761 118.845 82.1946 93.4999 60.5026 93.4999V93.491ZM147.271 0H147.262C139.638 0 132.408 3.40195 127.543 9.28375L92.7193 51.3874C78.8649 68.1376 90.7375 93.491 112.438 93.491H112.447C120.071 93.491 127.302 90.089 132.167 84.2072L166.999 42.1037C180.853 25.3535 168.981 0 147.28 0H147.271ZM136.514 93.491C128.891 93.491 121.66 96.8929 116.795 102.784L81.9625 144.896C68.1082 161.646 79.9897 187 101.682 187C109.305 187 116.536 183.598 121.401 177.707L156.233 135.595C170.088 118.845 158.206 93.4999 136.514 93.4999V93.491ZM223.282 0H223.273C215.65 0 208.419 3.40195 203.554 9.28375L168.731 51.3874C154.876 68.1376 166.749 93.491 188.45 93.491H188.459C196.082 93.491 203.313 90.089 208.178 84.2072L243.001 42.1037C256.856 25.3535 244.983 0 223.282 0ZM212.525 93.491C204.902 93.491 197.671 96.8929 192.806 102.784L157.974 144.896C144.12 161.646 156.001 187 177.693 187C185.317 187 192.547 183.598 197.412 177.707L232.245 135.595C246.099 118.845 234.218 93.4999 212.525 93.4999V93.491ZM299.294 0H299.285C291.661 0 284.431 3.40195 279.566 9.28375L244.742 51.3874C230.888 68.1376 242.76 93.491 264.461 93.491H264.47C272.094 93.491 279.324 90.089 284.19 84.2072L319.013 42.1037C332.867 25.3535 320.995 0 299.294 0ZM288.537 93.491C280.913 93.491 273.683 96.8929 268.818 102.784L233.985 144.896C220.131 161.646 232.013 187 253.705 187C261.328 187 268.559 183.598 273.424 177.707L308.256 135.595C322.111 118.845 310.229 93.4999 288.537 93.4999V93.491ZM375.305 0C367.682 0 360.451 3.40195 355.586 9.28375L320.763 51.3874C306.908 68.1376 318.781 93.491 340.482 93.491H340.491C348.114 93.491 355.345 90.089 360.21 84.2072L395.033 42.1037C408.888 25.3535 397.015 0 375.314 0H375.305ZM364.548 93.491C356.925 93.491 349.694 96.8929 344.829 102.784L309.997 144.896C296.143 161.646 308.015 187 329.716 187C337.34 187 344.57 183.598 349.435 177.707L384.268 135.595C398.122 118.845 386.24 93.4999 364.548 93.4999V93.491ZM451.317 0H451.308C443.684 0 436.453 3.40195 431.588 9.28375L396.765 51.3874C382.911 68.1376 394.783 93.491 416.484 93.491H416.493C424.117 93.491 431.347 90.089 436.212 84.2072L471.036 42.1037C484.89 25.3535 473.018 0 451.317 0ZM440.56 93.491C432.936 93.491 425.706 96.8929 420.841 102.784L386.008 144.896C372.154 161.646 384.035 187 405.728 187C413.351 187 420.582 183.598 425.447 177.707L460.279 135.595C474.133 118.845 462.261 93.4999 440.56 93.4999V93.491ZM527.328 0H527.319C519.696 0 512.465 3.40195 507.6 9.28375L472.777 51.3874C458.922 68.1376 470.795 93.491 492.496 93.491H492.505C500.128 93.491 507.359 90.089 512.224 84.2072L547.047 42.1037C560.902 25.3535 549.029 0 527.328 0ZM516.571 93.491C508.948 93.491 501.717 96.8929 496.852 102.784L462.02 144.896C448.165 161.646 460.047 187 481.739 187C489.362 187 496.593 183.598 501.458 177.707L536.291 135.595C550.145 118.845 538.263 93.4999 516.571 93.4999V93.491Z" fill="#F9F9F9"/>
</svg>
