<?xml version="1.0" encoding="utf-8"?><svg xmlns="http://www.w3.org/2000/svg" xmlns:xlink="http://www.w3.org/1999/xlink"><symbol fill="none" viewBox="0 0 24 24" id="address" xmlns="http://www.w3.org/2000/svg"><path d="M9 6.75V15m6-6v8.25m.503 3.497 4.875-2.436c.381-.19.622-.58.622-1.006V4.82c0-.836-.88-1.38-1.628-1.006l-3.869 1.934a1.12 1.12 0 0 1-1.006 0L9.503 3.252a1.125 1.125 0 0 0-1.006 0L3.622 5.689A1.125 1.125 0 0 0 3 6.695V19.18c0 .835.88 1.38 1.628 1.006l3.869-1.934a1.12 1.12 0 0 1 1.006 0l4.994 2.497c.317.158.69.158 1.006 0v-.002Z" stroke="currentColor" stroke-width="1.5" stroke-linecap="round" stroke-linejoin="round"/></symbol><symbol fill="none" viewBox="0 0 11 6" id="arrow-bottom" xmlns="http://www.w3.org/2000/svg"><path d="M10 1 5.5 5 1 1" stroke="currentColor" stroke-width="1.5" stroke-linecap="round" stroke-linejoin="round"/></symbol><symbol fill="none" viewBox="0 0 10 6" id="arrow-bottom-bold" xmlns="http://www.w3.org/2000/svg"><path d="M9 1 5 5 1 1" stroke="currentColor" stroke-width="2" stroke-linecap="round" stroke-linejoin="round"/></symbol><symbol fill="none" viewBox="0 0 14 12" id="arrow-right" xmlns="http://www.w3.org/2000/svg"><path d="M1 6h12m0 0L7.857 1M13 6l-5.143 5" stroke="currentColor" stroke-width="1.5" stroke-linecap="round" stroke-linejoin="round"/></symbol><symbol fill="none" viewBox="0 0 34 38" id="auth" xmlns="http://www.w3.org/2000/svg"><path clip-rule="evenodd" d="M14.668 1c.679-.006 1.096.029 1.59.134.368.078.912.218 1.202.317.29.098.784.302 1.095.464.311.155.77.436 1.025.612.255.183.679.534.947.788.269.253.686.724.933 1.054.248.33.594.88.764 1.231.176.352.395.872.487 1.16.1.289.227.83.29 1.196.064.366.113.984.113 1.371s-.05.992-.106 1.337c-.063.344-.162.808-.226 1.02-.056.21-.226.653-.367.984-.142.33-.446.886-.672 1.23-.24.373-.693.908-1.095 1.308-.375.373-.933.844-1.244 1.048-.311.211-.82.5-1.131.64a8.602 8.602 0 0 1-2.319.69c-.296.042-.855.077-1.23.077-.381 0-.989-.05-1.35-.106a9.773 9.773 0 0 1-1.3-.323c-.36-.12-.813-.303-1.01-.394a16.09 16.09 0 0 1-.955-.563 9.542 9.542 0 0 1-1.28-1.069c-.395-.393-.854-.935-1.095-1.308a9.896 9.896 0 0 1-.678-1.251 9.516 9.516 0 0 1-.41-1.154 11.36 11.36 0 0 1-.22-1.146c-.049-.345-.063-.956-.042-1.442a8.386 8.386 0 0 1 .212-1.512c.1-.365.276-.92.403-1.23.12-.31.347-.767.495-1.02.141-.253.452-.696.686-.985.233-.288.593-.689.805-.886.212-.197.587-.506.841-.689.255-.19.728-.471 1.06-.64.333-.162.842-.387 1.132-.485.29-.106.798-.246 1.13-.316.396-.085.912-.134 1.52-.141ZM26.083 22.69a7.27 7.27 0 0 1 1.484.204c.368.091.912.274 1.202.408.29.133.777.408 1.081.605.297.204.756.583 1.025.844.261.26.65.73.862 1.033.212.31.495.802.622 1.09.134.289.325.83.417 1.196.1.373.191.991.212 1.406a6.47 6.47 0 0 1-.078 1.477 9.424 9.424 0 0 1-.346 1.336 9.16 9.16 0 0 1-.53 1.125c-.162.289-.516.781-.777 1.09a8.01 8.01 0 0 1-1.04.985 9.07 9.07 0 0 1-1.13.71 7.43 7.43 0 0 1-1.025.436c-.255.078-.679.19-.954.254-.304.07-.813.112-1.33.112-.678 0-.967-.035-1.618-.204-.438-.112-1.039-.31-1.329-.443a8.687 8.687 0 0 1-1.088-.619c-.31-.21-.77-.59-1.025-.844a8.155 8.155 0 0 1-.87-1.055 9.032 9.032 0 0 1-.621-1.09 7.755 7.755 0 0 1-.389-1.125 8.753 8.753 0 0 1-.212-1.3 6.637 6.637 0 0 1 .028-1.302c.05-.344.135-.823.198-1.055.064-.232.212-.66.332-.95.128-.287.403-.794.622-1.124.24-.359.658-.851 1.06-1.231.368-.352.92-.78 1.23-.963.304-.19.877-.45 1.266-.591.388-.134.975-.296 1.307-.345a7.323 7.323 0 0 1 1.414-.07Zm-1.195 3.08a1.628 1.628 0 0 0-.297.436c-.106.232-.134.457-.134 1.287v.999c-1.823 0-2.07.028-2.297.133a1.547 1.547 0 0 0-.474.345 1.466 1.466 0 0 0-.268.492c-.035.14-.07.31-.07.366 0 .056.035.225.07.373.042.14.155.358.268.485.107.12.319.281.474.344.226.106.474.134 1.293.134h1.004c0 1.829.028 2.054.134 2.286.071.154.205.351.297.436.092.084.29.204.438.26.142.063.361.112.474.112.113 0 .332-.049.48-.112.142-.056.34-.176.432-.26.092-.085.226-.282.297-.436.106-.232.134-.457.134-1.28v-1.006c1.838 0 2.064-.028 2.297-.134.156-.07.354-.203.438-.295.085-.091.205-.288.262-.429.063-.148.113-.373.113-.492 0-.127-.064-.359-.134-.514a1.627 1.627 0 0 0-.297-.436 1.71 1.71 0 0 0-.431-.26c-.198-.084-.523-.112-1.258-.112h-.99c0-1.815-.028-2.06-.134-2.286a1.54 1.54 0 0 0-.347-.471 1.52 1.52 0 0 0-.487-.267 2.493 2.493 0 0 0-.41-.07c-.078.007-.269.049-.424.105-.156.056-.36.176-.453.267Zm-8.736-6.034c2.764.014 5.556.064 6.22.099.665.042 1.456.105 1.767.148.311.035.785.14 1.06.232.276.091.608.225.99.428l-.778.057c-.43.028-1.032.105-1.343.168-.31.057-.855.204-1.201.317-.347.12-.94.373-1.308.563-.367.19-.94.541-1.272.794-.332.246-.827.682-1.095.964-.276.288-.672.76-.877 1.048-.205.288-.516.801-.686 1.146-.17.337-.402.886-.516 1.23-.113.338-.261.866-.332 1.175-.084.408-.12.886-.12 1.723 0 .83.035 1.322.12 1.723.064.31.205.816.304 1.125.1.31.325.851.495 1.196.177.351.445.815.594 1.04.198.282.247.415.184.443-.043.029-1.089.064-2.312.085-1.3.02-2.841 0-3.71-.05a95.283 95.283 0 0 1-3.04-.225 65.481 65.481 0 0 1-2.473-.274 16.209 16.209 0 0 1-1.435-.281 6.44 6.44 0 0 1-.983-.38 6.221 6.221 0 0 1-.904-.555 6.99 6.99 0 0 1-.806-.725 8.851 8.851 0 0 1-.686-.872 6.915 6.915 0 0 1-.855-2.04c-.078-.323-.12-1.068-.141-2.496-.029-1.35-.007-2.285.042-2.777.05-.436.17-.985.297-1.337.113-.33.31-.766.431-.97.127-.211.41-.57.622-.802.212-.239.58-.562.813-.724.233-.169.594-.38.799-.485.197-.099.6-.247.883-.324.29-.077.961-.176 1.57-.218.586-.042 1.872-.098 2.862-.134.99-.028 4.057-.049 6.82-.035Z" stroke="currentColor" stroke-width="1.5"/></symbol><symbol fill="none" viewBox="0 0 28 29" id="bonus" xmlns="http://www.w3.org/2000/svg"><circle cx="13.784" cy="14.5" r="13.034" stroke="currentColor" stroke-width="1.5"/><path d="m6.092 16.658 1.43-.236c.102.425.327.744.673.957.347.212.788.319 1.323.319.544 0 .97-.09 1.276-.272.316-.189.473-.445.473-.768 0-.291-.09-.52-.272-.685-.18-.166-.484-.288-.91-.366l-1.405-.26c-.733-.134-1.308-.374-1.725-.721-.41-.347-.615-.878-.615-1.595 0-.732.284-1.308.851-1.725.575-.417 1.335-.626 2.28-.626.977 0 1.725.205 2.245.614.52.402.843.945.969 1.63l-1.43.225a1.498 1.498 0 0 0-.531-.85c-.276-.245-.701-.367-1.276-.367-.536 0-.95.103-1.24.307-.284.197-.426.453-.426.768 0 .292.102.52.307.686.213.157.56.28 1.04.366l1.5.295c.677.126 1.193.367 1.548.72.362.355.543.86.543 1.513 0 .764-.291 1.351-.874 1.76-.583.402-1.374.603-2.375.603-.937 0-1.697-.185-2.28-.555-.583-.37-.95-.95-1.099-1.737ZM14.223 18.832v-8.034h3.438c.82 0 1.47.177 1.95.532.48.346.72.902.72 1.666 0 .362-.086.704-.26 1.027-.173.323-.484.564-.933.721.512.126.874.35 1.087.674.213.323.32.72.32 1.193 0 .756-.257 1.315-.769 1.677-.504.363-1.201.544-2.091.544h-3.462Zm3.308-6.805h-1.878v2.15h1.807c.52 0 .887-.09 1.1-.272.22-.18.33-.457.33-.827 0-.378-.102-.646-.307-.803-.205-.165-.555-.248-1.052-.248Zm.036 3.343h-1.914v2.233h1.961c.52 0 .894-.086 1.122-.26.237-.18.355-.464.355-.85 0-.386-.118-.67-.355-.851-.236-.181-.626-.272-1.17-.272Z" fill="currentColor"/></symbol><symbol fill="none" viewBox="0 0 12 12" id="btn-arrow" xmlns="http://www.w3.org/2000/svg"><path d="M1 11 11 1m0 0H3m8 0v8" stroke="currentColor" stroke-width="2" stroke-linecap="round" stroke-linejoin="round"/></symbol><symbol fill="none" viewBox="0 0 20 13" id="btn-arrow-right" xmlns="http://www.w3.org/2000/svg"><path d="m19 6.5-5-5m5 5-5 5m5-5H1" stroke="currentColor" stroke-width="2" stroke-linecap="round" stroke-linejoin="round"/></symbol><symbol fill="none" viewBox="0 0 20 20" id="btn-clear" xmlns="http://www.w3.org/2000/svg"><path d="m12.283 7.5-.288 7.5m-3.99 0-.288-7.5m8.306-2.675c.285.043.569.09.852.138m-.852-.138-.89 11.57a1.875 1.875 0 0 1-1.87 1.73H6.737a1.875 1.875 0 0 1-1.87-1.73l-.89-11.57m12.046 0a40.08 40.08 0 0 0-2.898-.33m-9.148.33c-.285.042-.569.088-.852.137m.852-.137a40.091 40.091 0 0 1 2.898-.33m6.25 0V3.73c0-.984-.758-1.804-1.742-1.834a43.3 43.3 0 0 0-2.766 0c-.984.03-1.742.851-1.742 1.834v.763m6.25 0c-2.08-.16-4.17-.16-6.25 0" stroke="currentColor" stroke-width="1.5" stroke-linecap="round" stroke-linejoin="round"/></symbol><symbol fill="none" viewBox="0 0 19 18" id="btn-filter" xmlns="http://www.w3.org/2000/svg"><path d="M9.5 2.25c2.066 0 4.091.174 6.062.509a.83.83 0 0 1 .688.821v.784a1.688 1.688 0 0 1-.494 1.193L11.682 9.63a1.69 1.69 0 0 0-.495 1.193v2.195a1.687 1.687 0 0 1-.932 1.51L7.812 15.75v-4.926a1.688 1.688 0 0 0-.494-1.193L3.244 5.557a1.687 1.687 0 0 1-.494-1.194V3.58a.83.83 0 0 1 .688-.821A36.24 36.24 0 0 1 9.5 2.25Z" stroke="currentColor" stroke-width="1.5" stroke-linecap="round" stroke-linejoin="round"/></symbol><symbol fill="none" viewBox="0 0 25 26" id="btn-gen" xmlns="http://www.w3.org/2000/svg"><path d="M10.774 4.604c.094-.564.583-.979 1.156-.979h1.139c.573 0 1.062.415 1.156.98l.155.93c.073.442.4.796.813.97.414.17.89.147 1.255-.113l.768-.55a1.172 1.172 0 0 1 1.51.126l.805.806a1.17 1.17 0 0 1 .125 1.51l-.549.768c-.26.365-.283.84-.111 1.254.172.414.526.74.969.813l.93.156c.566.094.979.582.979 1.155v1.14c0 .573-.413 1.062-.98 1.156l-.93.155c-.442.073-.796.4-.968.813-.172.414-.15.89.111 1.254l.55.769c.333.465.28 1.104-.126 1.51l-.806.805a1.173 1.173 0 0 1-1.51.125l-.768-.549c-.365-.26-.84-.283-1.253-.111-.415.172-.74.526-.814.968l-.155.93c-.094.565-.583.98-1.156.98h-1.14a1.173 1.173 0 0 1-1.156-.98l-.154-.93c-.074-.442-.4-.796-.814-.97-.414-.17-.89-.147-1.254.113l-.769.55a1.172 1.172 0 0 1-1.51-.126l-.805-.806a1.171 1.171 0 0 1-.125-1.51l.549-.768c.26-.365.283-.84.112-1.254-.172-.414-.527-.74-.969-.813l-.93-.156a1.172 1.172 0 0 1-.98-1.155v-1.14c0-.573.415-1.062.98-1.156l.93-.155c.442-.073.797-.4.97-.813.171-.414.148-.89-.113-1.254l-.548-.769a1.172 1.172 0 0 1 .125-1.51l.805-.805a1.172 1.172 0 0 1 1.51-.125l.768.549c.365.26.84.283 1.254.111.414-.172.74-.526.813-.968l.156-.93Z" stroke="currentColor" stroke-width="1.5" stroke-linecap="round" stroke-linejoin="round"/><path d="M15.625 13a3.125 3.125 0 1 1-6.25 0 3.125 3.125 0 0 1 6.25 0Z" stroke="currentColor" stroke-width="1.5" stroke-linecap="round" stroke-linejoin="round"/></symbol><symbol fill="none" viewBox="0 0 27 27" id="btn-pdf" xmlns="http://www.w3.org/2000/svg"><path d="M17.75 19.25v3.375c0 .621-.504 1.125-1.125 1.125h-9.75a1.125 1.125 0 0 1-1.125-1.125V9.875c0-.621.504-1.125 1.125-1.125H8.75a9.06 9.06 0 0 1 1.5.124m7.5 10.376h3.375c.621 0 1.125-.504 1.125-1.125V13.25c0-4.46-3.243-8.161-7.5-8.876a9.06 9.06 0 0 0-1.5-.124h-1.875c-.621 0-1.125.504-1.125 1.125v3.499m7.5 10.376h-6.375a1.125 1.125 0 0 1-1.125-1.125V8.874m12 6.626v-1.875a3.375 3.375 0 0 0-3.375-3.375h-1.5a1.125 1.125 0 0 1-1.125-1.125v-1.5a3.375 3.375 0 0 0-3.375-3.375H11.75" stroke="currentColor" stroke-width="1.5" stroke-linecap="round" stroke-linejoin="round"/></symbol><symbol fill="none" viewBox="0 0 26 27" id="btn-share" xmlns="http://www.w3.org/2000/svg"><path d="M10 11V8.2c0-1.12 0-1.68.218-2.108.192-.377.498-.682.874-.874C11.52 5 12.08 5 13.2 5h5.6c1.12 0 1.68 0 2.108.218a2 2 0 0 1 .874.874C22 6.52 22 7.08 22 8.2v5.6c0 1.12 0 1.68-.218 2.108a2.002 2.002 0 0 1-.874.874C20.48 17 19.92 17 18.803 17H16m-6-6H7.2c-1.12 0-1.68 0-2.108.218a1.999 1.999 0 0 0-.874.874C4 12.52 4 13.08 4 14.2v5.6c0 1.12 0 1.68.218 2.108a2 2 0 0 0 .874.874c.427.218.987.218 2.105.218h5.607c1.117 0 1.676 0 2.104-.218.376-.192.683-.498.874-.874.218-.428.218-.987.218-2.105V17m-6-6h2.8c1.12 0 1.68 0 2.108.218a2 2 0 0 1 .874.874c.218.427.218.987.218 2.105V17" stroke="currentColor" stroke-width="2" stroke-linecap="round" stroke-linejoin="round"/></symbol><symbol fill="none" viewBox="0 0 24 24" id="cart" xmlns="http://www.w3.org/2000/svg"><path d="M4.75 13.97A2.796 2.796 0 0 0 7.54 17h10.65c1.44 0 2.7-1.18 2.81-2.61l.54-7.5c.12-1.66-1.14-3.01-2.81-3.01H5.82M2 2h1.74c1.08 0 1.93.93 1.84 2l-.5 6.05M16.25 22a1.25 1.25 0 1 0 0-2.5 1.25 1.25 0 0 0 0 2.5ZM8.25 22a1.25 1.25 0 1 0 0-2.5 1.25 1.25 0 0 0 0 2.5ZM9 8h12" stroke="currentColor" stroke-width="1.5" stroke-miterlimit="10" stroke-linecap="round" stroke-linejoin="round"/></symbol><symbol fill="none" viewBox="0 0 18 23" id="comp" xmlns="http://www.w3.org/2000/svg"><path d="M1.5 8.46V21M9 2v19m7.5-6v6" stroke="currentColor" stroke-width="2.5" stroke-linecap="round" stroke-linejoin="round"/></symbol><symbol fill="none" viewBox="0 0 20 21" id="copy" xmlns="http://www.w3.org/2000/svg"><path d="M7 7.5V4.7c0-1.12 0-1.68.218-2.108.192-.377.497-.682.874-.874C8.52 1.5 9.08 1.5 10.2 1.5h5.6c1.12 0 1.68 0 2.108.218a2 2 0 0 1 .874.874C19 3.02 19 3.58 19 4.7v5.6c0 1.12 0 1.68-.218 2.108a2.002 2.002 0 0 1-.874.874c-.428.218-.987.218-2.105.218H13m-6-6H4.2c-1.12 0-1.68 0-2.108.218a1.999 1.999 0 0 0-.874.874C1 9.02 1 9.58 1 10.7v5.6c0 1.12 0 1.68.218 2.108a2 2 0 0 0 .874.874c.427.218.987.218 2.105.218h5.607c1.117 0 1.676 0 2.104-.218.376-.192.683-.498.874-.874.218-.428.218-.987.218-2.105V13.5m-6-6h2.8c1.12 0 1.68 0 2.108.218a2 2 0 0 1 .874.874c.218.427.218.987.218 2.105V13.5" stroke="currentColor" stroke-width="2" stroke-linecap="round" stroke-linejoin="round"/></symbol><symbol fill="none" viewBox="0 0 25 25" id="dashboard" xmlns="http://www.w3.org/2000/svg"><path d="m2.344 12.5 9.327-9.328a1.173 1.173 0 0 1 1.657 0l9.328 9.328M4.688 10.156v10.547c0 .647.525 1.172 1.171 1.172h4.297v-5.078c0-.647.525-1.172 1.172-1.172h2.344c.647 0 1.172.525 1.172 1.172v5.078h4.297c.647 0 1.172-.525 1.172-1.172V10.156M8.592 21.875h8.595" stroke="currentColor" stroke-width="1.8" stroke-linecap="round" stroke-linejoin="round"/></symbol><symbol fill="none" viewBox="0 0 21 20" id="delivery" xmlns="http://www.w3.org/2000/svg"><path fill-rule="evenodd" clip-rule="evenodd" d="M9.27.5c.07 0 .2.045.282.098.086.054 1.889 1.098 4.006 2.318 2.118 1.22 3.883 2.256 3.924 2.305.07.086.074.27.07 6.294l.233.119c.131.065.385.225.565.36.18.135.43.365.557.508.127.143.316.389.422.549.107.16.25.425.32.593.07.168.164.434.205.594.04.16.094.463.118.676a2.9 2.9 0 0 1 0 .798 5.132 5.132 0 0 1-.13.717 4.507 4.507 0 0 1-.57 1.228 4.96 4.96 0 0 1-.508.598 4.301 4.301 0 0 1-.618.516c-.16.102-.381.233-.492.29a4.314 4.314 0 0 1-.471.193c-.147.05-.442.123-.655.168a4.208 4.208 0 0 1-.717.078c-.18 0-.512-.037-.737-.086a5.461 5.461 0 0 1-.656-.18 5.922 5.922 0 0 1-.512-.225 4.141 4.141 0 0 1-.549-.344c-.155-.115-.434-.369-.946-.918l-1.454.84c-.799.459-1.47.852-1.495.876-.02.02-.098.037-.172.037a.511.511 0 0 1-.25-.078A784.29 784.29 0 0 0 5.04 17.11c-2.143-1.237-3.924-2.285-3.965-2.33C1.004 14.693 1 14.447 1 10s.004-4.693.074-4.779c.04-.045 1.822-1.093 3.965-2.326A488.365 488.365 0 0 0 9.032.578.48.48 0 0 1 9.266.5h.004ZM6.194 2.998C6.18 3.01 7.68 4.026 9.528 5.262c1.847 1.233 3.383 2.236 3.412 2.232.028-.008.848-.47 1.822-1.036.975-.561 1.77-1.032 1.77-1.044 0-.012-1.626-.958-3.613-2.109-1.986-1.147-3.62-2.093-3.633-2.093-.012-.004-.709.394-1.548.88-.836.488-1.532.894-1.544.906Zm-4.17 2.416c.004.012 1.11.655 2.453 1.433 1.348.778 2.978 1.72 3.625 2.1l1.18.684C11.6 8.284 12.26 7.88 12.243 7.867c-.02-.017-1.532-1.024-3.362-2.244C7.054 4.406 5.53 3.407 5.5 3.41c-.024 0-.823.447-1.769.991-.942.545-1.712 1-1.708 1.012Zm-.356 8.988 4.927 2.838c.52.303 1.25.724 1.622.937.373.217.688.398.705.406.02.008.032-1.876.032-4.19v-4.209c-5.28-3.046-6.918-3.992-7.049-4.066l-.233-.135-.004 8.419Zm11.55-6.306-.004 3.05c-.156.16-.246.205-.315.205a.413.413 0 0 1-.217-.078l-.103-.077-.04-2.707-2.925 1.695c0 6.52.012 8.407.028 8.399.017-.008.566-.324 1.217-.7.655-.377 1.2-.692 1.208-.7.012-.013-.037-.169-.11-.357a5.432 5.432 0 0 1-.201-.622c-.053-.205-.07-.463-.07-.901 0-.537.017-.668.11-1.024.058-.225.202-.594.312-.819.115-.237.324-.557.483-.757.156-.193.43-.467.61-.615a4.94 4.94 0 0 1 .697-.454 5.07 5.07 0 0 1 .627-.279c.147-.045.434-.114.635-.147a5.23 5.23 0 0 1 .675-.061c.172 0 .455.028.635.061s.353.061.381.061c.041 0 .05-.552.05-2.62 0-2.072-.009-2.621-.05-2.621-.028 0-.856.467-1.843 1.036l-1.79 1.032Zm1.577 3.87c-.16.049-.426.16-.594.245a4.25 4.25 0 0 0-.585.385 4.87 4.87 0 0 0-.504.504 4.246 4.246 0 0 0-.385.585c-.086.168-.21.471-.267.676-.057.2-.118.532-.13.737a4.33 4.33 0 0 0 .02.696c.029.18.09.455.143.614.053.156.148.385.213.512.062.123.168.307.238.41.07.098.217.282.331.401a3.914 3.914 0 0 0 .996.737c.143.074.418.18.614.238.32.098.426.11.955.11.528 0 .63-.012.962-.11.2-.066.504-.185.676-.275.168-.086.43-.262.582-.385.151-.127.38-.352.503-.503.123-.152.3-.414.385-.582a4.75 4.75 0 0 0 .275-.675c.098-.332.11-.435.11-.963s-.012-.634-.11-.954a4.35 4.35 0 0 0-.246-.634 4.222 4.222 0 0 0-.29-.48 5.156 5.156 0 0 0-.345-.405 3.948 3.948 0 0 0-.434-.373 4.518 4.518 0 0 0-.492-.299 5.606 5.606 0 0 0-.512-.208 5.262 5.262 0 0 0-.532-.127 3.677 3.677 0 0 0-.573-.037 4.2 4.2 0 0 0-.512.037c-.115.02-.336.073-.492.123Zm2.916 1.474a.33.33 0 0 1 .218.082c.049.049.081.135.081.225a.397.397 0 0 1-.114.27c-.062.074-.61.786-1.217 1.585-.61.802-1.159 1.486-1.22 1.519-.099.057-.123.057-.226 0-.061-.033-.421-.43-.798-.88-.377-.45-.697-.864-.713-.918a.301.301 0 0 1 .033-.205.451.451 0 0 1 .172-.155c.086-.041.13-.041.23 0 .065.029.355.332 1.211 1.335l.082-.11c.05-.058.517-.68 1.04-1.377.53-.7.988-1.293 1.02-1.322a.391.391 0 0 1 .201-.05Z" fill="currentColor" stroke="currentColor" stroke-width=".5"/></symbol><symbol fill="none" viewBox="0 0 24 25" id="download" xmlns="http://www.w3.org/2000/svg"><path d="M6.6 7.143h-.9c-.716 0-1.403.282-1.91.784A2.668 2.668 0 0 0 3 9.821v8.929c0 .71.284 1.392.79 1.894a2.71 2.71 0 0 0 1.91.785h9a2.71 2.71 0 0 0 1.91-.785c.506-.502.79-1.184.79-1.894V9.821c0-.71-.284-1.391-.79-1.894a2.711 2.711 0 0 0-1.91-.784h-.9m-7.2 4.464 3.6 3.572m0 0 3.6-3.572m-3.6 3.572V0m7.2 10.714h.9c.716 0 1.403.282 1.91.785.505.502.79 1.183.79 1.894v8.928c0 .71-.285 1.392-.79 1.894A2.711 2.711 0 0 1 18.3 25h-9a2.711 2.711 0 0 1-1.91-.785 2.668 2.668 0 0 1-.79-1.894v-.892" stroke="currentColor" stroke-width="1.5" stroke-linecap="round" stroke-linejoin="round"/></symbol><symbol fill="none" viewBox="0 0 22 20" id="fav" xmlns="http://www.w3.org/2000/svg"><path d="M6.135 1h.005a5.287 5.287 0 0 1 2.267.498 5.194 5.194 0 0 1 1.819 1.415L11 3.86l.774-.947c.49-.599 1.111-1.083 1.819-1.415A5.286 5.286 0 0 1 15.86 1h.005C18.723 1 21 3.187 21 5.834c0 3.934-2.491 7.222-5.02 9.545a27.378 27.378 0 0 1-4.618 3.397c-.12.07-.241.138-.363.204a16.378 16.378 0 0 1-.361-.203 27.376 27.376 0 0 1-4.616-3.394h.001C3.493 13.058 1 9.768 1 5.834 1 3.187 3.277 1 6.135 1Z" stroke="currentColor" stroke-width="2"/></symbol><symbol fill="none" viewBox="0 0 25 25" id="flame" xmlns="http://www.w3.org/2000/svg"><path fill-rule="evenodd" clip-rule="evenodd" d="M13.463 2.786a.748.748 0 0 0-1.071-.136 9.742 9.742 0 0 0-3.539 6.176 7.547 7.547 0 0 1-1.705-1.715.75.75 0 0 0-1.152-.082A9 9 0 1 0 16.18 5.034a7.46 7.46 0 0 1-2.717-2.248ZM16.25 14.75a3.749 3.749 0 0 1-6.952 1.95 3.75 3.75 0 0 1-.361-3.122c.628.465 1.35.81 2.133 1a5.99 5.99 0 0 1 1.925-3.546 3.75 3.75 0 0 1 3.255 3.718Z" fill="currentColor"/></symbol><symbol fill="none" viewBox="0 0 19 18" id="gift" xmlns="http://www.w3.org/2000/svg"><path fill-rule="evenodd" clip-rule="evenodd" d="M12.987.505c.173.007.36.042.503.094.125.045.319.145.43.218.114.077.281.226.375.33.09.104.211.285.27.4.056.114.125.301.156.416.028.115.053.333.053.486 0 .153-.025.372-.056.486a1.804 1.804 0 0 1-.33.677c-.055.066-.086.136-.072.15.013.013.846.024 3.684.024v4.652h-1.006V17.5H2.006V8.438H1V3.786h1.839c1.013 0 1.839-.01 1.839-.024a.472.472 0 0 0-.084-.132 2.137 2.137 0 0 1-.16-.26 2.394 2.394 0 0 1-.142-.383 1.901 1.901 0 0 1-.065-.503c0-.153.024-.372.052-.486.03-.115.104-.31.166-.434a1.99 1.99 0 0 1 .337-.455c.125-.125.312-.278.416-.337.104-.059.323-.142.486-.184.222-.055.35-.07.52-.055.125.014.337.062.468.114.132.049.386.163.556.25.17.09.482.278.693.42.212.143.514.368.677.507.163.14.382.344.486.455.107.115.24.264.399.469l.208-.25a6.52 6.52 0 0 1 .416-.445c.115-.107.333-.295.486-.416a7.378 7.378 0 0 1 1.249-.809c.17-.087.406-.188.52-.23.115-.038.24-.08.278-.09.038-.01.194-.01.347-.003Zm-7.442.889c-.087.052-.215.16-.285.243-.069.083-.163.229-.208.326-.066.146-.08.23-.08.52 0 .306.01.372.094.539.049.104.163.264.25.358a1.5 1.5 0 0 0 .34.25l.184.086c2.862 0 3.098-.007 3.167-.052a.182.182 0 0 0 .077-.149c.003-.052-.056-.184-.136-.302-.072-.115-.301-.368-.503-.566a8.709 8.709 0 0 0-.725-.618 10.328 10.328 0 0 0-.666-.451 4.23 4.23 0 0 0-.548-.275 1.227 1.227 0 0 0-.382-.083c-.08 0-.208.02-.284.045a1.62 1.62 0 0 0-.295.129Zm6.626.048a7.142 7.142 0 0 0-.381.219 8.13 8.13 0 0 0-.92.684 7.628 7.628 0 0 0-.489.469c-.135.142-.298.34-.357.434a.708.708 0 0 0-.108.27c0 .06.028.115.077.146.069.045.305.052 1.623.052h1.544c.281-.135.43-.24.514-.323.083-.08.194-.24.25-.354.093-.187.104-.24.104-.555 0-.313-.01-.368-.104-.57a1.283 1.283 0 0 0-.6-.6 1.26 1.26 0 0 0-.39-.084.915.915 0 0 0-.398.053 4.03 4.03 0 0 0-.365.16ZM1.73 7.78h5.585V4.515H1.73v3.264Zm6.314 8.992h2.914V4.515H8.043V16.77Zm3.643-8.992h5.585V4.515h-5.585v3.264ZM2.735 16.77h4.58V8.438h-4.58v8.333Zm8.95 0h4.58V8.438h-4.58v8.333Z" fill="currentColor" stroke="currentColor" stroke-width=".5"/></symbol><symbol fill="none" viewBox="0 0 35 27" id="input-file-decor" xmlns="http://www.w3.org/2000/svg"><path d="M17.509 21.01V9.783m0 0 4.923 4.99m-4.923-4.99-4.924 4.99M8.893 26a7.327 7.327 0 0 1-4.795-1.785 7.51 7.51 0 0 1-2.504-4.512 7.569 7.569 0 0 1 .983-5.08 7.403 7.403 0 0 1 4.002-3.218 8.83 8.83 0 0 1 1.236-6.437 8.617 8.617 0 0 1 5.308-3.75 8.518 8.518 0 0 1 6.386 1.051 8.722 8.722 0 0 1 3.863 5.26 4.86 4.86 0 0 1 2.7-.1 4.908 4.908 0 0 1 2.345 1.36 5.01 5.01 0 0 1 1.285 2.408 5.055 5.055 0 0 1-.162 2.733 6.182 6.182 0 0 1 3.17 2.77 6.314 6.314 0 0 1 .689 4.185 6.26 6.26 0 0 1-2.11 3.665A6.108 6.108 0 0 1 27.355 26H8.893Z" stroke="currentColor" stroke-width="2" stroke-linecap="round" stroke-linejoin="round"/></symbol><symbol fill="none" viewBox="0 0 19 21" id="inst" xmlns="http://www.w3.org/2000/svg"><path d="M5.566.57c-1.011.05-1.702.22-2.305.47-.625.256-1.154.6-1.68 1.156A4.933 4.933 0 0 0 .487 3.968C.254 4.605.095 5.332.05 6.397.006 7.46-.004 7.804 0 10.519c.005 2.716.016 3.056.066 4.123.048 1.064.209 1.79.446 2.426.243.657.57 1.214 1.098 1.769a4.631 4.631 0 0 0 1.686 1.15c.604.245 1.295.413 2.306.46 1.011.046 1.337.057 3.916.052 2.579-.005 2.903-.017 3.917-.068 1.013-.05 1.7-.221 2.303-.47a4.641 4.641 0 0 0 1.681-1.156 4.936 4.936 0 0 0 1.092-1.774c.234-.636.393-1.363.437-2.427.044-1.067.055-1.408.05-4.123-.005-2.715-.017-3.056-.065-4.122-.048-1.067-.209-1.79-.446-2.427a4.942 4.942 0 0 0-1.098-1.769 4.618 4.618 0 0 0-1.685-1.15C15.1.769 14.41.6 13.399.554 12.387.509 12.062.497 9.482.502 6.902.506 6.579.518 5.566.57Zm.11 18.078c-.926-.043-1.429-.205-1.764-.34a2.947 2.947 0 0 1-1.094-.746 3.1 3.1 0 0 1-.712-1.149c-.13-.352-.287-.881-.33-1.856-.048-1.054-.058-1.37-.063-4.04-.006-2.67.004-2.986.048-4.04.04-.974.194-1.504.323-1.857.171-.468.377-.8.708-1.151a2.924 2.924 0 0 1 1.092-.75c.334-.138.837-.302 1.763-.348 1.002-.05 1.302-.06 3.838-.066 2.536-.006 2.837.004 3.839.05.925.043 1.43.204 1.764.34.444.18.76.397 1.094.746.333.35.54.682.712 1.15.131.35.287.88.33 1.855.048 1.054.059 1.37.064 4.04.004 2.669-.005 2.986-.049 4.04-.04.975-.194 1.504-.323 1.857a3.12 3.12 0 0 1-.709 1.152 2.926 2.926 0 0 1-1.09.75c-.335.137-.838.301-1.763.347-1.002.05-1.302.06-3.84.066-2.536.006-2.835-.005-3.837-.05M13.42 5.155c0 .238.068.47.193.667.126.197.304.35.513.44.208.091.438.115.659.068.22-.047.424-.162.583-.33.159-.168.267-.382.31-.615.044-.233.021-.474-.065-.693a1.189 1.189 0 0 0-.421-.538 1.1 1.1 0 0 0-.634-.2c-.302 0-.592.127-.805.352-.214.226-.333.531-.333.85ZM4.622 10.51c.006 2.836 2.194 5.13 4.887 5.124 2.694-.005 4.874-2.308 4.87-5.144-.006-2.836-2.194-5.13-4.888-5.125-2.694.006-4.874 2.31-4.869 5.145Zm1.711-.004a3.46 3.46 0 0 1 .53-1.853c.347-.549.841-.977 1.42-1.23a3.02 3.02 0 0 1 1.829-.194 3.12 3.12 0 0 1 1.623.909 3.39 3.39 0 0 1 .87 1.705 3.497 3.497 0 0 1-.177 1.926 3.303 3.303 0 0 1-1.163 1.499 3.03 3.03 0 0 1-2.97.314 3.16 3.16 0 0 1-1.03-.72 3.349 3.349 0 0 1-.688-1.08 3.486 3.486 0 0 1-.244-1.276Z" fill="currentColor"/></symbol><symbol fill="none" viewBox="0 0 24 24" id="like" xmlns="http://www.w3.org/2000/svg"><path d="M6.633 10.25c.806 0 1.533-.446 2.031-1.08a9.041 9.041 0 0 1 2.861-2.4c.723-.384 1.35-.956 1.653-1.715.213-.532.322-1.1.322-1.672V2.75a.75.75 0 0 1 .75-.75 2.25 2.25 0 0 1 2.25 2.25c0 1.152-.26 2.243-.723 3.218-.266.558.107 1.282.725 1.282m0 0h3.126c1.026 0 1.945.694 2.054 1.715.045.422.068.85.068 1.285a11.95 11.95 0 0 1-2.649 7.521c-.388.482-.987.729-1.605.729H13.48a4.53 4.53 0 0 1-1.423-.23l-3.114-1.04a4.5 4.5 0 0 0-1.423-.23H5.904m10.598-9.75H14.25M5.904 18.5c.083.205.173.405.27.602.197.4-.078.898-.523.898h-.908c-.889 0-1.713-.518-1.972-1.368a12 12 0 0 1-.521-3.507c0-1.553.295-3.036.831-4.398C3.387 9.953 4.167 9.5 5 9.5h1.053c.472 0 .745.556.5.96a8.958 8.958 0 0 0-1.302 4.665 8.97 8.97 0 0 0 .654 3.375h-.001Z" stroke="currentColor" stroke-width="1.5" stroke-linecap="round" stroke-linejoin="round"/></symbol><symbol fill="none" viewBox="0 0 24 24" id="mail" xmlns="http://www.w3.org/2000/svg"><path d="M21.75 9v.906a2.25 2.25 0 0 1-1.183 1.981l-6.478 3.488M2.25 9v.906a2.25 2.25 0 0 0 1.183 1.981l6.478 3.488m0 0 1.022-.55a2.25 2.25 0 0 1 2.134 0l1.023.55 4.66 2.51m-8.839-2.51-4.661 2.51m16.5 1.615a2.25 2.25 0 0 1-2.25 2.25h-15a2.25 2.25 0 0 1-2.25-2.25V8.844a2.25 2.25 0 0 1 1.183-1.981l7.5-4.039a2.25 2.25 0 0 1 2.134 0l7.5 4.039a2.25 2.25 0 0 1 1.183 1.98V19.5Z" stroke="currentColor" stroke-width="1.5" stroke-linecap="round" stroke-linejoin="round"/></symbol><symbol fill="none" viewBox="0 0 22 22" id="pass-view" xmlns="http://www.w3.org/2000/svg"><path d="M3.648 7.538A9.604 9.604 0 0 0 1.772 11C2.957 14.976 6.64 17.875 11 17.875c.91 0 1.79-.127 2.624-.362M5.709 5.709a9.58 9.58 0 0 1 5.29-1.584c4.36 0 8.042 2.899 9.227 6.873a9.645 9.645 0 0 1-3.935 5.293M5.709 5.709 2.749 2.75m2.96 2.959 3.345 3.346m7.237 7.236 2.959 2.959m-2.96-2.959-3.345-3.346a2.75 2.75 0 1 0-3.89-3.89m3.889 3.89L9.056 9.056" stroke="currentColor" stroke-width="1.5" stroke-linecap="round" stroke-linejoin="round"/></symbol><symbol fill="none" viewBox="0 0 26 27" id="repeat-payment" xmlns="http://www.w3.org/2000/svg"><path d="M2.438 20.813c5.78-.005 11.535.76 17.113 2.276.788.214 1.574-.37 1.574-1.188v-1.088M4.062 5.374v.813A.812.812 0 0 1 3.25 7h-.813m0 0v-.406a1.22 1.22 0 0 1 1.22-1.219h18.28M2.438 7v9.75m19.5-11.375v.813c0 .448.364.812.813.812h.813m-1.625-1.625h.406a1.22 1.22 0 0 1 1.218 1.219v10.562a1.22 1.22 0 0 1-1.218 1.219h-.407m-19.5-1.625v.406a1.219 1.219 0 0 0 1.22 1.219h.405M2.438 16.75h.813a.812.812 0 0 1 .813.813v.812m17.875 0v-.813a.812.812 0 0 1 .812-.812h.813m-1.625 1.625H4.063m12.187-6.5a3.25 3.25 0 1 1-6.5 0 3.25 3.25 0 0 1 6.5 0Zm3.25 0h.009v.009H19.5v-.009Zm-13 0h.009v.009H6.5v-.009Z" stroke="currentColor" stroke-width="1.5" stroke-linecap="round" stroke-linejoin="round"/></symbol><symbol fill="none" viewBox="0 0 19 18" id="return" xmlns="http://www.w3.org/2000/svg"><path d="M13.293 6.59H18l-3-2.894a7.85 7.85 0 0 0-3.486-1.94 8.059 8.059 0 0 0-4.027 0A7.85 7.85 0 0 0 4 3.697 7.44 7.44 0 0 0 1.987 7.06m-.986 8.889V11.41m0 0h4.707M1 11.41l2.998 2.893a7.85 7.85 0 0 0 3.487 1.94 8.06 8.06 0 0 0 4.027 0A7.85 7.85 0 0 0 15 14.303a7.442 7.442 0 0 0 2.013-3.362M18 2.052v4.536" stroke="currentColor" stroke-width="1.5" stroke-linecap="round" stroke-linejoin="round"/></symbol><symbol fill="none" viewBox="0 0 24 25" id="returns" xmlns="http://www.w3.org/2000/svg"><path d="M16.023 9.848h4.992l-3.181-3.183a8.25 8.25 0 0 0-13.803 3.7m-1.046 9.779v-4.992m0 0h4.992m-4.992 0 3.18 3.183a8.25 8.25 0 0 0 13.803-3.7m1.047-9.78v4.99" stroke="currentColor" stroke-width="1.5" stroke-linecap="round" stroke-linejoin="round"/></symbol><symbol fill="none" viewBox="0 0 20 22" id="share" xmlns="http://www.w3.org/2000/svg"><path fill-rule="evenodd" clip-rule="evenodd" d="M13.5 3.5a3 3 0 1 1 .825 2.065l-8.42 4.68a3.002 3.002 0 0 1 0 1.51l8.42 4.678a3 3 0 1 1-.729 1.31l-8.42-4.678a3 3 0 1 1 0-4.132l8.42-4.679A3.005 3.005 0 0 1 13.5 3.5Z" fill="currentColor"/></symbol><symbol fill="none" viewBox="0 0 19 20" id="sign-in" xmlns="http://www.w3.org/2000/svg"><path fill-rule="evenodd" clip-rule="evenodd" d="M15.5 1.75a1.5 1.5 0 0 1 1.5 1.5v13.5a1.5 1.5 0 0 1-1.5 1.5h-6a1.5 1.5 0 0 1-1.5-1.5V13a.75.75 0 1 0-1.5 0v3.75a3 3 0 0 0 3 3h6a3 3 0 0 0 3-3V3.25a3 3 0 0 0-3-3h-6a3 3 0 0 0-3 3V7A.75.75 0 0 0 8 7V3.25a1.5 1.5 0 0 1 1.5-1.5h6Zm-5.03 4.72a.75.75 0 0 0 0 1.06l1.72 1.72H1.25a.75.75 0 0 0 0 1.5h10.94l-1.72 1.72a.75.75 0 1 0 1.06 1.06l3-3a.75.75 0 0 0 0-1.06l-3-3a.75.75 0 0 0-1.06 0Z" fill="currentColor"/></symbol><symbol fill="none" viewBox="0 0 18 22" id="sign-up" xmlns="http://www.w3.org/2000/svg"><path d="M9 11.732a7.68 7.68 0 0 1 5.434 2.265 7.963 7.963 0 0 1 2.316 5.505v.002c0 .01-.003.018-.007.024l-.01.011A18.235 18.235 0 0 1 9 21.25H9c-2.759 0-5.378-.612-7.732-1.71a.028.028 0 0 1-.011-.012.045.045 0 0 1-.007-.024v-.002a7.963 7.963 0 0 1 2.316-5.505A7.68 7.68 0 0 1 9 11.732ZM9 .75c1.027 0 2.014.414 2.744 1.156a4.005 4.005 0 0 1 1.143 2.808 4.005 4.005 0 0 1-1.143 2.807A3.85 3.85 0 0 1 9 8.68 3.85 3.85 0 0 1 6.256 7.52a4.005 4.005 0 0 1-1.143-2.807c0-1.055.413-2.065 1.143-2.808A3.849 3.849 0 0 1 9 .75Z" stroke="currentColor" stroke-width="1.5"/></symbol><symbol fill="none" viewBox="0 0 24 24" id="tel" xmlns="http://www.w3.org/2000/svg"><path d="M2.25 6.75c0 8.284 6.716 15 15 15h2.25a2.25 2.25 0 0 0 2.25-2.25v-1.372c0-.516-.351-.966-.852-1.091l-4.423-1.106c-.44-.11-.902.055-1.173.417l-.97 1.293c-.282.376-.769.542-1.21.38a12.035 12.035 0 0 1-7.143-7.143c-.162-.441.004-.928.38-1.21l1.293-.97c.363-.271.527-.734.417-1.173L6.963 3.102a1.125 1.125 0 0 0-1.091-.852H4.5A2.25 2.25 0 0 0 2.25 4.5v2.25Z" stroke="currentColor" stroke-width="1.5" stroke-linecap="round" stroke-linejoin="round"/></symbol><symbol fill="none" viewBox="0 0 21 19" id="tg" xmlns="http://www.w3.org/2000/svg"><path fill-rule="evenodd" clip-rule="evenodd" d="M1.45 8.278c5.63-2.561 9.393-4.217 11.29-5.03C18.097.939 19.211.532 19.933.5c.15 0 .512.031.752.219.181.156.241.375.271.53.03.157.06.5.03.782-.3 3.155-1.535 10.87-2.197 14.4-.27 1.5-.813 2-1.325 2.062-1.113.094-1.986-.78-3.07-1.5-1.686-1.155-2.649-1.874-4.305-2.998-1.896-1.312-.662-2.03.422-3.186.27-.313 5.238-4.967 5.328-5.405 0-.062.03-.25-.09-.343-.12-.094-.271-.063-.392-.032-.18.032-2.89 1.906-8.158 5.592-.782.562-1.475.812-2.107.812-.692 0-2.017-.406-3.01-.75C.879 10.279-.084 10.06.006 9.373c.06-.344.542-.719 1.445-1.094Z" fill="currentColor"/></symbol><symbol fill="none" viewBox="0 0 24 21" id="time" xmlns="http://www.w3.org/2000/svg"><path d="M11.5 3.833V9.5h4.25m4.25 0a8.501 8.501 0 0 1-14.51 6.01A8.5 8.5 0 1 1 20 9.5Z" stroke="currentColor" stroke-width="1.5" stroke-linecap="round" stroke-linejoin="round"/></symbol><symbol fill="none" viewBox="0 0 15 21" id="user" xmlns="http://www.w3.org/2000/svg"><path d="M7.5 11.384c1.704 0 3.36.735 4.602 2.08 1.23 1.332 1.95 3.153 1.995 5.08A14.79 14.79 0 0 1 7.5 20.1H7.5a14.79 14.79 0 0 1-6.598-1.555c.045-1.928.767-3.749 1.996-5.08 1.243-1.346 2.898-2.081 4.602-2.081ZM7.5.9c.817 0 1.621.357 2.228 1.024.608.67.963 1.595.963 2.576 0 .98-.355 1.906-.963 2.576C9.12 7.743 8.318 8.1 7.5 8.1c-.817 0-1.621-.357-2.228-1.024-.608-.67-.963-1.595-.963-2.576 0-.98.355-1.906.963-2.576.569-.626 1.31-.978 2.075-1.02L7.5.9Z" stroke="currentColor" stroke-width="1.8"/></symbol><symbol fill="none" viewBox="0 0 22 15" id="vk" xmlns="http://www.w3.org/2000/svg"><path fill-rule="evenodd" clip-rule="evenodd" d="M3.232.5H.825C.138.5 0 .847 0 1.23 0 1.911.816 5.3 3.8 9.78c1.988 3.06 4.79 4.719 7.34 4.719 1.53 0 1.72-.368 1.72-1.003v-2.313c0-.737.144-.884.629-.884.357 0 .969.192 2.396 1.667 1.632 1.749 1.901 2.533 2.82 2.533h2.406c.688 0 1.032-.368.833-1.095-.217-.725-.996-1.776-2.03-3.023-.56-.71-1.402-1.475-1.657-1.858-.357-.491-.255-.71 0-1.147 0 0 2.932-4.426 3.238-5.929.153-.546 0-.948-.728-.948H18.36c-.611 0-.894.347-1.047.73 0 0-1.223 3.196-2.957 5.273-.561.6-.816.792-1.122.792-.153 0-.375-.191-.375-.738V1.448c0-.656-.177-.948-.687-.948H8.389a.599.599 0 0 0-.612.593c0 .621.867.765.956 2.513v3.798c0 .833-.14.984-.446.984-.816 0-2.8-3.211-3.978-6.885C4.08.788 3.847.5 3.232.5Z" fill="currentColor"/></symbol><symbol fill="none" viewBox="0 0 14 19" id="yandex" xmlns="http://www.w3.org/2000/svg"><path fill-rule="evenodd" clip-rule="evenodd" d="M10.097 2.573H8.575c-2.79 0-4.249 1.363-4.249 3.388 0 2.294 1.015 3.358 3.097 4.732l1.712 1.116L4.178 19H.5l4.45-6.426C2.392 10.797.954 9.07.954 6.147.954 2.48 3.576 0 8.554 0H13.5v19h-3.403V2.573Z" fill="currentColor"/></symbol></svg>