<svg width="28" height="28" viewBox="0 0 28 28" fill="none" xmlns="http://www.w3.org/2000/svg">
<path d="M25.375 20.125V19.859C25.3748 19.4544 25.3278 19.0512 25.235 18.6573L22.589 7.41067C22.3857 6.54682 21.8966 5.77696 21.201 5.22595C20.5053 4.67493 19.6439 4.37507 18.7565 4.375H9.2435C8.35606 4.37507 7.49467 4.67493 6.79902 5.22595C6.10337 5.77696 5.61426 6.54682 5.411 7.41067L2.765 18.6573C2.67218 19.0512 2.62521 19.4544 2.625 19.859V20.125M25.375 20.125C25.375 21.0533 25.0063 21.9435 24.3499 22.5999C23.6935 23.2563 22.8033 23.625 21.875 23.625H6.125C5.19674 23.625 4.3065 23.2563 3.65013 22.5999C2.99375 21.9435 2.625 21.0533 2.625 20.125M25.375 20.125C25.375 19.1967 25.0063 18.3065 24.3499 17.6501C23.6935 16.9937 22.8033 16.625 21.875 16.625H6.125C5.19674 16.625 4.3065 16.9937 3.65013 17.6501C2.99375 18.3065 2.625 19.1967 2.625 20.125M21.875 20.125H21.8843V20.1343H21.875V20.125ZM18.375 20.125H18.3843V20.1343H18.375V20.125Z" stroke="black" stroke-width="1.5" stroke-linecap="round" stroke-linejoin="round"/>
</svg>
